<svg width="1363" height="167" viewBox="0 0 1363 167" fill="none" xmlns="http://www.w3.org/2000/svg">
<rect width="1363" height="167" rx="15" fill="#F0F0F0"/>
<path d="M0 15C0 6.71573 6.71573 0 15 0H37V167H15C6.71573 167 0 160.284 0 152V15Z" fill="#424241"/>
<path d="M100.906 50.9219L93.3945 48.2383V45.0859L103.602 49.375V51.6367L100.906 50.9219ZM93.3945 53.1719L100.918 50.4297L103.602 49.7852V52.0352L93.3945 56.3242V53.1719ZM123.348 55.2578V58H114.266V55.2578H123.348ZM115.414 40.9375V58H111.898V40.9375H115.414ZM122.164 47.8867V50.5586H114.266V47.8867H122.164ZM123.336 40.9375V43.6914H114.266V40.9375H123.336ZM127.906 45.3203L130.004 49.1758L132.16 45.3203H135.758L132.172 51.5195L135.922 58H132.312L130.027 53.9219L127.742 58H124.133L127.883 51.5195L124.297 45.3203H127.906ZM140.773 47.7578V62.875H137.398V45.3203H140.527L140.773 47.7578ZM148.801 51.5195V51.7656C148.801 52.6875 148.691 53.543 148.473 54.332C148.262 55.1211 147.949 55.8086 147.535 56.3945C147.121 56.9727 146.605 57.4258 145.988 57.7539C145.379 58.0742 144.676 58.2344 143.879 58.2344C143.105 58.2344 142.434 58.0781 141.863 57.7656C141.293 57.4531 140.812 57.0156 140.422 56.4531C140.039 55.8828 139.73 55.2227 139.496 54.4727C139.262 53.7227 139.082 52.918 138.957 52.0586V51.4141C139.082 50.4922 139.262 49.6484 139.496 48.8828C139.73 48.1094 140.039 47.4414 140.422 46.8789C140.812 46.3086 141.289 45.8672 141.852 45.5547C142.422 45.2422 143.09 45.0859 143.855 45.0859C144.66 45.0859 145.367 45.2383 145.977 45.543C146.594 45.8477 147.109 46.2852 147.523 46.8555C147.945 47.4258 148.262 48.1055 148.473 48.8945C148.691 49.6836 148.801 50.5586 148.801 51.5195ZM145.414 51.7656V51.5195C145.414 50.9805 145.367 50.4844 145.273 50.0312C145.188 49.5703 145.047 49.168 144.852 48.8242C144.664 48.4805 144.414 48.2148 144.102 48.0273C143.797 47.832 143.426 47.7344 142.988 47.7344C142.527 47.7344 142.133 47.8086 141.805 47.957C141.484 48.1055 141.223 48.3203 141.02 48.6016C140.816 48.8828 140.664 49.2188 140.562 49.6094C140.461 50 140.398 50.4414 140.375 50.9336V52.5625C140.414 53.1406 140.523 53.6602 140.703 54.1211C140.883 54.5742 141.16 54.9336 141.535 55.1992C141.91 55.4648 142.402 55.5977 143.012 55.5977C143.457 55.5977 143.832 55.5 144.137 55.3047C144.441 55.1016 144.688 54.8242 144.875 54.4727C145.07 54.1211 145.207 53.7148 145.285 53.2539C145.371 52.793 145.414 52.2969 145.414 51.7656ZM161 52.3398H164.504C164.434 53.4883 164.117 54.5078 163.555 55.3984C163 56.2891 162.223 56.9844 161.223 57.4844C160.23 57.9844 159.035 58.2344 157.637 58.2344C156.543 58.2344 155.562 58.0469 154.695 57.6719C153.828 57.2891 153.086 56.7422 152.469 56.0312C151.859 55.3203 151.395 54.4609 151.074 53.4531C150.754 52.4453 150.594 51.3164 150.594 50.0664V48.8828C150.594 47.6328 150.758 46.5039 151.086 45.4961C151.422 44.4805 151.898 43.6172 152.516 42.9062C153.141 42.1953 153.887 41.6484 154.754 41.2656C155.621 40.8828 156.59 40.6914 157.66 40.6914C159.082 40.6914 160.281 40.9492 161.258 41.4648C162.242 41.9805 163.004 42.6914 163.543 43.5977C164.09 44.5039 164.418 45.5352 164.527 46.6914H161.012C160.973 46.0039 160.836 45.4219 160.602 44.9453C160.367 44.4609 160.012 44.0977 159.535 43.8555C159.066 43.6055 158.441 43.4805 157.66 43.4805C157.074 43.4805 156.562 43.5898 156.125 43.8086C155.688 44.0273 155.32 44.3594 155.023 44.8047C154.727 45.25 154.504 45.8125 154.355 46.4922C154.215 47.1641 154.145 47.9531 154.145 48.8594V50.0664C154.145 50.9492 154.211 51.7266 154.344 52.3984C154.477 53.0625 154.68 53.625 154.953 54.0859C155.234 54.5391 155.594 54.8828 156.031 55.1172C156.477 55.3438 157.012 55.457 157.637 55.457C158.371 55.457 158.977 55.3398 159.453 55.1055C159.93 54.8711 160.293 54.5234 160.543 54.0625C160.801 53.6016 160.953 53.0273 161 52.3398ZM169.895 40V58H166.52V40H169.895ZM169.414 51.2148H168.488C168.496 50.332 168.613 49.5195 168.84 48.7773C169.066 48.0273 169.391 47.3789 169.812 46.832C170.234 46.2773 170.738 45.8477 171.324 45.543C171.918 45.2383 172.574 45.0859 173.293 45.0859C173.918 45.0859 174.484 45.1758 174.992 45.3555C175.508 45.5273 175.949 45.8086 176.316 46.1992C176.691 46.582 176.98 47.0859 177.184 47.7109C177.387 48.3359 177.488 49.0938 177.488 49.9844V58H174.09V49.9609C174.09 49.3984 174.008 48.957 173.844 48.6367C173.688 48.3086 173.457 48.0781 173.152 47.9453C172.855 47.8047 172.488 47.7344 172.051 47.7344C171.566 47.7344 171.152 47.8242 170.809 48.0039C170.473 48.1836 170.203 48.4336 170 48.7539C169.797 49.0664 169.648 49.4336 169.555 49.8555C169.461 50.2773 169.414 50.7305 169.414 51.2148ZM186.898 55.1406V49.4922C186.898 49.0859 186.832 48.7383 186.699 48.4492C186.566 48.1523 186.359 47.9219 186.078 47.7578C185.805 47.5938 185.449 47.5117 185.012 47.5117C184.637 47.5117 184.312 47.5781 184.039 47.7109C183.766 47.8359 183.555 48.0195 183.406 48.2617C183.258 48.4961 183.184 48.7734 183.184 49.0938H179.809C179.809 48.5547 179.934 48.043 180.184 47.5586C180.434 47.0742 180.797 46.6484 181.273 46.2812C181.75 45.9062 182.316 45.6133 182.973 45.4023C183.637 45.1914 184.379 45.0859 185.199 45.0859C186.184 45.0859 187.059 45.25 187.824 45.5781C188.59 45.9062 189.191 46.3984 189.629 47.0547C190.074 47.7109 190.297 48.5312 190.297 49.5156V54.9414C190.297 55.6367 190.34 56.207 190.426 56.6523C190.512 57.0898 190.637 57.4727 190.801 57.8008V58H187.391C187.227 57.6562 187.102 57.2266 187.016 56.7109C186.938 56.1875 186.898 55.6641 186.898 55.1406ZM187.344 50.2773L187.367 52.1875H185.48C185.035 52.1875 184.648 52.2383 184.32 52.3398C183.992 52.4414 183.723 52.5859 183.512 52.7734C183.301 52.9531 183.145 53.1641 183.043 53.4062C182.949 53.6484 182.902 53.9141 182.902 54.2031C182.902 54.4922 182.969 54.7539 183.102 54.9883C183.234 55.2148 183.426 55.3945 183.676 55.5273C183.926 55.6523 184.219 55.7148 184.555 55.7148C185.062 55.7148 185.504 55.6133 185.879 55.4102C186.254 55.207 186.543 54.957 186.746 54.6602C186.957 54.3633 187.066 54.082 187.074 53.8164L187.965 55.2461C187.84 55.5664 187.668 55.8984 187.449 56.2422C187.238 56.5859 186.969 56.9102 186.641 57.2148C186.312 57.5117 185.918 57.7578 185.457 57.9531C184.996 58.1406 184.449 58.2344 183.816 58.2344C183.012 58.2344 182.281 58.0742 181.625 57.7539C180.977 57.4258 180.461 56.9766 180.078 56.4062C179.703 55.8281 179.516 55.1719 179.516 54.4375C179.516 53.7734 179.641 53.1836 179.891 52.668C180.141 52.1523 180.508 51.7188 180.992 51.3672C181.484 51.0078 182.098 50.7383 182.832 50.5586C183.566 50.3711 184.418 50.2773 185.387 50.2773H187.344ZM196.203 48.0273V58H192.828V45.3203H195.992L196.203 48.0273ZM195.711 51.2148H194.797C194.797 50.2773 194.918 49.4336 195.16 48.6836C195.402 47.9258 195.742 47.2812 196.18 46.75C196.617 46.2109 197.137 45.8008 197.738 45.5195C198.348 45.2305 199.027 45.0859 199.777 45.0859C200.371 45.0859 200.914 45.1719 201.406 45.3438C201.898 45.5156 202.32 45.7891 202.672 46.1641C203.031 46.5391 203.305 47.0352 203.492 47.6523C203.688 48.2695 203.785 49.0234 203.785 49.9141V58H200.387V49.9023C200.387 49.3398 200.309 48.9023 200.152 48.5898C199.996 48.2773 199.766 48.0586 199.461 47.9336C199.164 47.8008 198.797 47.7344 198.359 47.7344C197.906 47.7344 197.512 47.8242 197.176 48.0039C196.848 48.1836 196.574 48.4336 196.355 48.7539C196.145 49.0664 195.984 49.4336 195.875 49.8555C195.766 50.2773 195.711 50.7305 195.711 51.2148ZM214.379 45.3203H217.438V57.5781C217.438 58.7344 217.18 59.7148 216.664 60.5195C216.156 61.332 215.445 61.9453 214.531 62.3594C213.617 62.7812 212.555 62.9922 211.344 62.9922C210.812 62.9922 210.25 62.9219 209.656 62.7812C209.07 62.6406 208.508 62.4219 207.969 62.125C207.438 61.8281 206.992 61.4531 206.633 61L208.121 59.0078C208.512 59.4609 208.965 59.8125 209.48 60.0625C209.996 60.3203 210.566 60.4492 211.191 60.4492C211.801 60.4492 212.316 60.3359 212.738 60.1094C213.16 59.8906 213.484 59.5664 213.711 59.1367C213.938 58.7148 214.051 58.2031 214.051 57.6016V48.25L214.379 45.3203ZM205.848 51.8125V51.5664C205.848 50.5977 205.965 49.7188 206.199 48.9297C206.441 48.1328 206.781 47.4492 207.219 46.8789C207.664 46.3086 208.203 45.8672 208.836 45.5547C209.469 45.2422 210.184 45.0859 210.98 45.0859C211.824 45.0859 212.531 45.2422 213.102 45.5547C213.672 45.8672 214.141 46.3125 214.508 46.8906C214.875 47.4609 215.16 48.1367 215.363 48.918C215.574 49.6914 215.738 50.5391 215.855 51.4609V52C215.738 52.8828 215.562 53.7031 215.328 54.4609C215.094 55.2188 214.785 55.8828 214.402 56.4531C214.02 57.0156 213.543 57.4531 212.973 57.7656C212.41 58.0781 211.738 58.2344 210.957 58.2344C210.176 58.2344 209.469 58.0742 208.836 57.7539C208.211 57.4336 207.676 56.9844 207.23 56.4062C206.785 55.8281 206.441 55.1484 206.199 54.3672C205.965 53.5859 205.848 52.7344 205.848 51.8125ZM209.223 51.5664V51.8125C209.223 52.3359 209.273 52.8242 209.375 53.2773C209.477 53.7305 209.633 54.1328 209.844 54.4844C210.062 54.8281 210.332 55.0977 210.652 55.293C210.98 55.4805 211.367 55.5742 211.812 55.5742C212.43 55.5742 212.934 55.4453 213.324 55.1875C213.715 54.9219 214.008 54.5586 214.203 54.0977C214.398 53.6367 214.512 53.1055 214.543 52.5039V50.9688C214.527 50.4766 214.461 50.0352 214.344 49.6445C214.227 49.2461 214.062 48.9062 213.852 48.625C213.641 48.3438 213.367 48.125 213.031 47.9688C212.695 47.8125 212.297 47.7344 211.836 47.7344C211.391 47.7344 211.004 47.8359 210.676 48.0391C210.355 48.2344 210.086 48.5039 209.867 48.8477C209.656 49.1914 209.496 49.5977 209.387 50.0664C209.277 50.5273 209.223 51.0273 209.223 51.5664ZM225.898 58.2344C224.914 58.2344 224.031 58.0781 223.25 57.7656C222.469 57.4453 221.805 57.0039 221.258 56.4414C220.719 55.8789 220.305 55.2266 220.016 54.4844C219.727 53.7344 219.582 52.9375 219.582 52.0938V51.625C219.582 50.6641 219.719 49.7852 219.992 48.9883C220.266 48.1914 220.656 47.5 221.164 46.9141C221.68 46.3281 222.305 45.8789 223.039 45.5664C223.773 45.2461 224.602 45.0859 225.523 45.0859C226.422 45.0859 227.219 45.2344 227.914 45.5312C228.609 45.8281 229.191 46.25 229.66 46.7969C230.137 47.3438 230.496 48 230.738 48.7656C230.98 49.5234 231.102 50.3672 231.102 51.2969V52.7031H221.023V50.4531H227.785V50.1953C227.785 49.7266 227.699 49.3086 227.527 48.9414C227.363 48.5664 227.113 48.2695 226.777 48.0508C226.441 47.832 226.012 47.7227 225.488 47.7227C225.043 47.7227 224.66 47.8203 224.34 48.0156C224.02 48.2109 223.758 48.4844 223.555 48.8359C223.359 49.1875 223.211 49.6016 223.109 50.0781C223.016 50.5469 222.969 51.0625 222.969 51.625V52.0938C222.969 52.6016 223.039 53.0703 223.18 53.5C223.328 53.9297 223.535 54.3008 223.801 54.6133C224.074 54.9258 224.402 55.168 224.785 55.3398C225.176 55.5117 225.617 55.5977 226.109 55.5977C226.719 55.5977 227.285 55.4805 227.809 55.2461C228.34 55.0039 228.797 54.6406 229.18 54.1562L230.82 55.9375C230.555 56.3203 230.191 56.6875 229.73 57.0391C229.277 57.3906 228.73 57.6797 228.09 57.9062C227.449 58.125 226.719 58.2344 225.898 58.2344Z" fill="#888888"/>
<path d="M115.994 98.708V104.641H99.5806V98.708H115.994ZM102.151 86.0078V118H94.439V86.0078H102.151ZM121.18 86.0078V118H113.489V86.0078H121.18ZM124.805 106.354V105.893C124.805 104.15 125.054 102.546 125.552 101.081C126.05 99.6016 126.783 98.3198 127.75 97.2358C128.716 96.1519 129.91 95.3096 131.331 94.709C132.752 94.0938 134.393 93.7861 136.253 93.7861C138.128 93.7861 139.776 94.0938 141.197 94.709C142.632 95.3096 143.833 96.1519 144.8 97.2358C145.767 98.3198 146.5 99.6016 146.998 101.081C147.496 102.546 147.745 104.15 147.745 105.893V106.354C147.745 108.083 147.496 109.687 146.998 111.167C146.5 112.631 145.767 113.913 144.8 115.012C143.833 116.096 142.64 116.938 141.219 117.539C139.798 118.139 138.157 118.439 136.297 118.439C134.437 118.439 132.789 118.139 131.353 117.539C129.917 116.938 128.716 116.096 127.75 115.012C126.783 113.913 126.05 112.631 125.552 111.167C125.054 109.687 124.805 108.083 124.805 106.354ZM132.21 105.893V106.354C132.21 107.248 132.276 108.083 132.408 108.859C132.54 109.636 132.759 110.317 133.067 110.903C133.375 111.474 133.792 111.921 134.319 112.243C134.847 112.565 135.506 112.727 136.297 112.727C137.073 112.727 137.718 112.565 138.23 112.243C138.758 111.921 139.175 111.474 139.483 110.903C139.791 110.317 140.01 109.636 140.142 108.859C140.274 108.083 140.34 107.248 140.34 106.354V105.893C140.34 105.029 140.274 104.216 140.142 103.454C140.01 102.678 139.791 101.997 139.483 101.411C139.175 100.81 138.758 100.341 138.23 100.004C137.703 99.6675 137.044 99.499 136.253 99.499C135.477 99.499 134.825 99.6675 134.297 100.004C133.785 100.341 133.375 100.81 133.067 101.411C132.759 101.997 132.54 102.678 132.408 103.454C132.276 104.216 132.21 105.029 132.21 105.893ZM158.27 110.925L162.664 94.2256H167.3L165.652 102.597L161.302 118H157.588L158.27 110.925ZM156.534 94.2256L159.258 110.793L159.566 118H155.062L149.437 94.2256H156.534ZM171.211 110.441L173.958 94.2256H181.055L175.474 118H170.97L171.211 110.441ZM167.828 94.2256L172.266 110.881L172.947 118H169.19L164.927 102.641L163.345 94.2256H167.828ZM209.466 86.0078V118H201.753V86.0078H209.466ZM219.09 86.0078V91.9624H192.349V86.0078H219.09ZM216.475 106.354V105.893C216.475 104.15 216.724 102.546 217.222 101.081C217.72 99.6016 218.453 98.3198 219.419 97.2358C220.386 96.1519 221.58 95.3096 223.001 94.709C224.422 94.0938 226.062 93.7861 227.923 93.7861C229.798 93.7861 231.446 94.0938 232.867 94.709C234.302 95.3096 235.503 96.1519 236.47 97.2358C237.437 98.3198 238.169 99.6016 238.667 101.081C239.166 102.546 239.415 104.15 239.415 105.893V106.354C239.415 108.083 239.166 109.687 238.667 111.167C238.169 112.631 237.437 113.913 236.47 115.012C235.503 116.096 234.31 116.938 232.889 117.539C231.468 118.139 229.827 118.439 227.967 118.439C226.106 118.439 224.458 118.139 223.023 117.539C221.587 116.938 220.386 116.096 219.419 115.012C218.453 113.913 217.72 112.631 217.222 111.167C216.724 109.687 216.475 108.083 216.475 106.354ZM223.88 105.893V106.354C223.88 107.248 223.946 108.083 224.078 108.859C224.209 109.636 224.429 110.317 224.737 110.903C225.044 111.474 225.462 111.921 225.989 112.243C226.517 112.565 227.176 112.727 227.967 112.727C228.743 112.727 229.388 112.565 229.9 112.243C230.428 111.921 230.845 111.474 231.153 110.903C231.46 110.317 231.68 109.636 231.812 108.859C231.944 108.083 232.01 107.248 232.01 106.354V105.893C232.01 105.029 231.944 104.216 231.812 103.454C231.68 102.678 231.46 101.997 231.153 101.411C230.845 100.81 230.428 100.341 229.9 100.004C229.373 99.6675 228.714 99.499 227.923 99.499C227.146 99.499 226.495 99.6675 225.967 100.004C225.455 100.341 225.044 100.81 224.737 101.411C224.429 101.997 224.209 102.678 224.078 103.454C223.946 104.216 223.88 105.029 223.88 105.893ZM254.268 86.0078H266.858C269.319 86.0078 271.458 86.374 273.274 87.1064C275.091 87.8389 276.49 88.9229 277.471 90.3584C278.467 91.7939 278.965 93.5664 278.965 95.6758C278.965 97.5068 278.68 99.0376 278.108 100.268C277.537 101.499 276.739 102.517 275.713 103.322C274.703 104.113 273.523 104.765 272.176 105.278L269.649 106.706H259.08L259.036 100.751H266.858C267.84 100.751 268.653 100.576 269.297 100.224C269.942 99.8726 270.425 99.3745 270.748 98.73C271.084 98.0708 271.253 97.2871 271.253 96.3789C271.253 95.4561 271.084 94.665 270.748 94.0059C270.411 93.3467 269.913 92.8413 269.253 92.4897C268.609 92.1382 267.811 91.9624 266.858 91.9624H261.98V118H254.268V86.0078ZM271.78 118L264.705 103.85L272.879 103.806L280.042 117.67V118H271.78ZM297.159 112.221V94.2256H304.585V118H297.642L297.159 112.221ZM297.862 107.387L299.795 107.343C299.795 108.94 299.605 110.419 299.224 111.782C298.843 113.129 298.279 114.301 297.532 115.297C296.8 116.293 295.892 117.07 294.808 117.626C293.738 118.168 292.5 118.439 291.094 118.439C289.922 118.439 288.846 118.278 287.864 117.956C286.897 117.619 286.062 117.099 285.359 116.396C284.656 115.678 284.107 114.763 283.711 113.649C283.331 112.521 283.14 111.174 283.14 109.606V94.2256H290.545V109.65C290.545 110.178 290.611 110.632 290.743 111.013C290.875 111.394 291.065 111.716 291.314 111.979C291.563 112.229 291.871 112.419 292.237 112.551C292.618 112.668 293.05 112.727 293.533 112.727C294.646 112.727 295.518 112.492 296.148 112.023C296.778 111.555 297.217 110.917 297.466 110.112C297.73 109.306 297.862 108.398 297.862 107.387ZM315.945 99.3013V118H308.541V94.2256H315.484L315.945 99.3013ZM315.066 105.3L313.331 105.344C313.331 103.527 313.55 101.909 313.99 100.488C314.429 99.0522 315.052 97.8364 315.857 96.8403C316.663 95.8442 317.623 95.0898 318.736 94.5771C319.864 94.0498 321.116 93.7861 322.493 93.7861C323.592 93.7861 324.595 93.9473 325.503 94.2695C326.426 94.5918 327.217 95.1118 327.876 95.8296C328.55 96.5474 329.063 97.4995 329.415 98.686C329.781 99.8579 329.964 101.308 329.964 103.037V118H322.515V103.015C322.515 102.062 322.383 101.337 322.12 100.839C321.856 100.327 321.475 99.9751 320.977 99.7847C320.479 99.5942 319.871 99.499 319.153 99.499C318.392 99.499 317.747 99.6455 317.22 99.9385C316.692 100.231 316.268 100.642 315.945 101.169C315.638 101.682 315.411 102.29 315.264 102.993C315.132 103.696 315.066 104.465 315.066 105.3ZM345.85 107.871H339.544C339.544 106.582 339.632 105.446 339.808 104.465C339.998 103.469 340.32 102.575 340.774 101.784C341.229 100.993 341.844 100.261 342.62 99.5869C343.309 99.0156 343.902 98.4663 344.4 97.939C344.898 97.4116 345.279 96.877 345.542 96.335C345.806 95.793 345.938 95.2144 345.938 94.5991C345.938 93.8374 345.828 93.2148 345.608 92.7314C345.403 92.248 345.088 91.8892 344.664 91.6548C344.253 91.4058 343.733 91.2812 343.104 91.2812C342.591 91.2812 342.107 91.4058 341.653 91.6548C341.214 91.9038 340.855 92.292 340.577 92.8193C340.298 93.332 340.145 94.0132 340.115 94.8628H332.667C332.71 92.6802 333.194 90.9077 334.117 89.5454C335.054 88.1685 336.299 87.165 337.852 86.5352C339.419 85.8906 341.17 85.5684 343.104 85.5684C345.242 85.5684 347.081 85.8979 348.619 86.5571C350.157 87.2163 351.336 88.1978 352.156 89.5015C352.977 90.7905 353.387 92.3799 353.387 94.2695C353.387 95.5293 353.145 96.6279 352.662 97.5654C352.193 98.4883 351.556 99.3525 350.75 100.158C349.959 100.949 349.073 101.799 348.091 102.707C347.242 103.454 346.663 104.216 346.355 104.992C346.048 105.754 345.879 106.713 345.85 107.871ZM338.643 114.55C338.643 113.496 339.024 112.617 339.786 111.914C340.547 111.196 341.536 110.837 342.752 110.837C343.968 110.837 344.957 111.196 345.718 111.914C346.48 112.617 346.861 113.496 346.861 114.55C346.861 115.605 346.48 116.491 345.718 117.209C344.957 117.912 343.968 118.264 342.752 118.264C341.536 118.264 340.547 117.912 339.786 117.209C339.024 116.491 338.643 115.605 338.643 114.55Z" fill="#424241"/>
<path d="M1363 15C1363 6.71573 1356.28 0 1348 0H1134V167H1348C1356.28 167 1363 160.284 1363 152V15Z" fill="#851E96"/>
<path d="M1260.77 81.3079C1263.96 81.3079 1267.09 82.2553 1269.74 84.0303C1272.4 85.8053 1274.47 88.3282 1275.69 91.2799C1276.92 94.2316 1277.24 97.4796 1276.61 100.613C1275.99 103.747 1274.45 106.625 1272.19 108.884C1269.93 111.143 1267.05 112.682 1263.92 113.305C1260.79 113.928 1257.54 113.608 1254.59 112.386C1251.64 111.163 1249.11 109.093 1247.34 106.436C1245.56 103.78 1244.62 100.657 1244.62 97.4617C1244.62 93.1774 1246.32 89.0686 1249.35 86.0392C1252.38 83.0098 1256.48 81.3079 1260.77 81.3079V81.3079ZM1260.77 75.9233C1256.51 75.9233 1252.35 77.1865 1248.8 79.5532C1245.26 81.9198 1242.5 85.2837 1240.87 89.2193C1239.24 93.1549 1238.81 97.4856 1239.64 101.664C1240.48 105.842 1242.53 109.679 1245.54 112.692C1248.55 115.704 1252.39 117.755 1256.57 118.586C1260.75 119.417 1265.08 118.991 1269.01 117.361C1272.95 115.73 1276.31 112.97 1278.68 109.428C1281.04 105.886 1282.31 101.722 1282.31 97.4617C1282.31 91.7493 1280.04 86.271 1276 82.2317C1271.96 78.1925 1266.48 75.9233 1260.77 75.9233Z" fill="white"/>
<path d="M1274.23 49H1220.38C1218.96 49 1217.59 49.5673 1216.58 50.5771C1215.57 51.5869 1215 52.9565 1215 54.3846V108.231C1215 109.659 1215.57 111.028 1216.58 112.038C1217.59 113.048 1218.96 113.615 1220.38 113.615H1231.15V108.231H1220.38V70.5384H1279.62V54.3846C1279.62 52.9565 1279.05 51.5869 1278.04 50.5771C1277.03 49.5673 1275.66 49 1274.23 49V49ZM1220.38 65.1538V54.3846H1274.23V65.1538H1220.38Z" fill="white"/>
<path d="M1255.38 89.3849V105.539L1268.85 97.4618L1255.38 89.3849Z" fill="white"/>
</svg>
