<svg width="1363" height="301" viewBox="0 0 1363 301" fill="none" xmlns="http://www.w3.org/2000/svg">
<rect width="1363" height="301" rx="15" fill="#F0F0F0"/>
<path d="M0 15C0 6.71573 6.71573 0 15 0H37V301H15C6.71573 301 0 294.284 0 286V15Z" fill="#851E96"/>
<path d="M121.89 136.749V144H101.05V136.749H121.89ZM104.407 104.898V144H94.981V104.898H104.407ZM119.205 120.421V127.43H101.05V120.421H119.205ZM121.971 104.898V112.176H101.05V104.898H121.971ZM133.008 114.942L137.09 122.945L141.307 114.942H150.706L143.079 129.095L151.109 144H141.629L137.09 135.406L132.579 144H123.099L131.128 129.095L123.528 114.942H133.008ZM162.818 120.528V155.172H153.768V114.942H162.2L162.818 120.528ZM180.65 129.122V129.686C180.65 131.799 180.408 133.759 179.925 135.567C179.441 137.376 178.725 138.951 177.776 140.294C176.827 141.637 175.646 142.684 174.231 143.436C172.835 144.17 171.215 144.537 169.371 144.537C167.634 144.537 166.139 144.152 164.886 143.382C163.632 142.612 162.585 141.547 161.744 140.187C160.902 138.826 160.222 137.268 159.703 135.514C159.183 133.759 158.772 131.906 158.467 129.955V129.229C158.772 127.135 159.183 125.192 159.703 123.402C160.222 121.594 160.902 120.018 161.744 118.675C162.585 117.333 163.624 116.285 164.859 115.533C166.112 114.781 167.607 114.405 169.344 114.405C171.188 114.405 172.808 114.754 174.205 115.453C175.619 116.151 176.801 117.153 177.75 118.46C178.716 119.75 179.441 121.298 179.925 123.106C180.408 124.915 180.65 126.92 180.65 129.122ZM171.6 129.686V129.122C171.6 127.994 171.519 126.965 171.358 126.034C171.197 125.085 170.937 124.261 170.579 123.563C170.239 122.865 169.782 122.328 169.209 121.952C168.637 121.576 167.929 121.388 167.088 121.388C166.121 121.388 165.306 121.54 164.644 121.844C164 122.131 163.48 122.578 163.086 123.187C162.71 123.778 162.442 124.521 162.281 125.416C162.138 126.293 162.075 127.323 162.093 128.504V130.707C162.057 132.067 162.191 133.267 162.496 134.305C162.8 135.326 163.328 136.122 164.08 136.695C164.832 137.268 165.853 137.555 167.142 137.555C168.001 137.555 168.717 137.358 169.29 136.964C169.863 136.552 170.319 135.988 170.66 135.272C171 134.538 171.242 133.696 171.385 132.748C171.528 131.799 171.6 130.778 171.6 129.686ZM207.344 130.76H216.744C216.618 133.482 215.884 135.881 214.542 137.958C213.199 140.034 211.337 141.655 208.956 142.818C206.592 143.964 203.799 144.537 200.577 144.537C197.963 144.537 195.626 144.098 193.567 143.221C191.526 142.344 189.79 141.082 188.357 139.435C186.943 137.787 185.86 135.791 185.108 133.446C184.374 131.1 184.007 128.46 184.007 125.523V123.402C184.007 120.466 184.392 117.825 185.162 115.479C185.949 113.116 187.059 111.111 188.492 109.464C189.942 107.799 191.679 106.528 193.702 105.65C195.725 104.773 197.972 104.334 200.442 104.334C203.844 104.334 206.718 104.943 209.063 106.161C211.408 107.378 213.226 109.052 214.515 111.183C215.804 113.295 216.565 115.703 216.797 118.407H207.398C207.362 116.939 207.111 115.712 206.646 114.728C206.181 113.725 205.446 112.973 204.444 112.472C203.441 111.97 202.107 111.72 200.442 111.72C199.279 111.72 198.267 111.935 197.408 112.364C196.548 112.794 195.832 113.474 195.259 114.405C194.686 115.336 194.257 116.545 193.97 118.031C193.702 119.499 193.567 121.271 193.567 123.348V125.523C193.567 127.6 193.693 129.373 193.943 130.841C194.194 132.309 194.597 133.508 195.152 134.439C195.707 135.37 196.423 136.06 197.3 136.507C198.195 136.937 199.288 137.152 200.577 137.152C202.009 137.152 203.217 136.928 204.202 136.48C205.187 136.015 205.948 135.317 206.485 134.386C207.022 133.437 207.308 132.228 207.344 130.76ZM229.634 102.75V144H220.584V102.75H229.634ZM228.56 128.478L226.438 128.531C226.438 126.49 226.689 124.61 227.19 122.892C227.692 121.173 228.408 119.678 229.339 118.407C230.27 117.136 231.389 116.151 232.696 115.453C234.003 114.754 235.453 114.405 237.046 114.405C238.479 114.405 239.786 114.611 240.967 115.023C242.167 115.435 243.196 116.097 244.056 117.01C244.933 117.923 245.604 119.114 246.07 120.582C246.553 122.05 246.795 123.84 246.795 125.953V144H237.691V125.899C237.691 124.718 237.521 123.805 237.181 123.16C236.858 122.498 236.393 122.041 235.784 121.791C235.175 121.522 234.432 121.388 233.555 121.388C232.499 121.388 231.639 121.567 230.977 121.925C230.315 122.283 229.804 122.784 229.446 123.429C229.106 124.055 228.873 124.798 228.748 125.658C228.623 126.517 228.56 127.457 228.56 128.478ZM266.91 136.695V124.718C266.91 123.894 266.793 123.187 266.561 122.596C266.328 122.005 265.961 121.549 265.459 121.227C264.958 120.886 264.287 120.716 263.445 120.716C262.765 120.716 262.183 120.833 261.7 121.065C261.216 121.298 260.849 121.647 260.599 122.113C260.348 122.578 260.223 123.169 260.223 123.885H251.172C251.172 122.542 251.468 121.298 252.059 120.152C252.667 118.989 253.527 117.977 254.637 117.118C255.765 116.258 257.107 115.596 258.665 115.13C260.241 114.647 261.995 114.405 263.929 114.405C266.238 114.405 268.297 114.79 270.105 115.56C271.932 116.33 273.373 117.485 274.429 119.024C275.486 120.546 276.014 122.462 276.014 124.771V136.668C276.014 138.566 276.121 140.007 276.336 140.992C276.551 141.959 276.855 142.809 277.249 143.543V144H268.172C267.742 143.105 267.42 142.013 267.205 140.724C267.008 139.417 266.91 138.074 266.91 136.695ZM268.011 126.249L268.064 131.083H264.063C263.222 131.083 262.505 131.199 261.915 131.432C261.342 131.664 260.876 131.987 260.518 132.398C260.178 132.792 259.927 133.24 259.766 133.741C259.623 134.243 259.551 134.771 259.551 135.326C259.551 135.863 259.677 136.346 259.927 136.776C260.196 137.188 260.554 137.51 261.001 137.743C261.449 137.975 261.95 138.092 262.505 138.092C263.508 138.092 264.358 137.904 265.057 137.528C265.773 137.134 266.319 136.66 266.695 136.104C267.071 135.549 267.259 135.03 267.259 134.547L269.246 138.253C268.888 138.969 268.476 139.694 268.011 140.428C267.563 141.162 266.999 141.843 266.319 142.469C265.656 143.078 264.842 143.579 263.875 143.973C262.908 144.349 261.736 144.537 260.357 144.537C258.567 144.537 256.919 144.17 255.416 143.436C253.93 142.702 252.739 141.681 251.844 140.375C250.949 139.05 250.501 137.528 250.501 135.809C250.501 134.305 250.77 132.962 251.307 131.781C251.862 130.599 252.694 129.597 253.804 128.773C254.914 127.949 256.329 127.323 258.047 126.893C259.766 126.463 261.789 126.249 264.117 126.249H268.011ZM289.925 121.146V144H280.875V114.942H289.361L289.925 121.146ZM288.851 128.478L286.729 128.531C286.729 126.311 286.998 124.333 287.535 122.596C288.072 120.842 288.833 119.356 289.817 118.138C290.802 116.921 291.975 115.999 293.335 115.372C294.714 114.728 296.245 114.405 297.928 114.405C299.271 114.405 300.497 114.602 301.607 114.996C302.735 115.39 303.702 116.026 304.507 116.903C305.331 117.78 305.958 118.944 306.387 120.394C306.835 121.826 307.059 123.599 307.059 125.711V144H297.955V125.685C297.955 124.521 297.793 123.635 297.471 123.026C297.149 122.399 296.683 121.97 296.075 121.737C295.466 121.504 294.723 121.388 293.846 121.388C292.915 121.388 292.127 121.567 291.482 121.925C290.838 122.283 290.319 122.784 289.925 123.429C289.549 124.055 289.271 124.798 289.092 125.658C288.931 126.517 288.851 127.457 288.851 128.478ZM330.342 114.942H338.56V142.872C338.56 145.558 337.942 147.831 336.707 149.693C335.472 151.573 333.744 152.997 331.524 153.963C329.322 154.948 326.744 155.44 323.79 155.44C322.483 155.44 321.149 155.27 319.788 154.93C318.427 154.608 317.156 154.125 315.975 153.48C314.793 152.835 313.799 152.039 312.994 151.09L316.78 145.772C317.514 146.596 318.436 147.294 319.546 147.867C320.656 148.458 321.963 148.753 323.467 148.753C324.774 148.753 325.866 148.521 326.744 148.055C327.639 147.59 328.319 146.909 328.785 146.014C329.25 145.137 329.483 144.072 329.483 142.818V121.817L330.342 114.942ZM311.033 129.82V129.256C311.033 127.054 311.302 125.049 311.839 123.241C312.394 121.415 313.182 119.848 314.202 118.541C315.241 117.216 316.494 116.196 317.962 115.479C319.43 114.763 321.086 114.405 322.93 114.405C324.917 114.405 326.547 114.79 327.818 115.56C329.107 116.312 330.136 117.368 330.906 118.729C331.694 120.09 332.303 121.683 332.732 123.509C333.18 125.318 333.556 127.269 333.86 129.364V130.035C333.556 132.005 333.135 133.867 332.598 135.621C332.079 137.358 331.399 138.897 330.557 140.24C329.716 141.583 328.659 142.639 327.388 143.409C326.135 144.161 324.631 144.537 322.876 144.537C321.05 144.537 319.403 144.17 317.935 143.436C316.485 142.702 315.241 141.673 314.202 140.348C313.182 139.023 312.394 137.465 311.839 135.675C311.302 133.884 311.033 131.933 311.033 129.82ZM320.083 129.256V129.82C320.083 130.912 320.182 131.924 320.379 132.855C320.594 133.786 320.916 134.61 321.346 135.326C321.775 136.024 322.304 136.57 322.93 136.964C323.575 137.358 324.327 137.555 325.186 137.555C326.493 137.555 327.549 137.277 328.355 136.722C329.161 136.167 329.743 135.379 330.101 134.359C330.459 133.338 330.611 132.139 330.557 130.76V128.639C330.593 127.457 330.512 126.419 330.315 125.523C330.118 124.61 329.805 123.849 329.375 123.241C328.964 122.632 328.409 122.175 327.71 121.871C327.03 121.549 326.207 121.388 325.24 121.388C324.398 121.388 323.655 121.585 323.011 121.979C322.366 122.372 321.829 122.927 321.399 123.644C320.97 124.342 320.639 125.174 320.406 126.141C320.191 127.09 320.083 128.128 320.083 129.256ZM357.842 144.537C355.479 144.537 353.366 144.17 351.504 143.436C349.642 142.684 348.067 141.655 346.778 140.348C345.507 139.041 344.531 137.537 343.851 135.836C343.188 134.135 342.857 132.336 342.857 130.438V129.417C342.857 127.287 343.152 125.318 343.743 123.509C344.334 121.683 345.211 120.09 346.375 118.729C347.539 117.368 348.998 116.312 350.752 115.56C352.507 114.79 354.548 114.405 356.875 114.405C358.934 114.405 360.778 114.736 362.408 115.399C364.037 116.061 365.416 117.01 366.543 118.246C367.689 119.481 368.558 120.976 369.148 122.73C369.757 124.485 370.062 126.454 370.062 128.639V132.318H346.321V126.651H361.226V125.953C361.244 124.986 361.074 124.163 360.716 123.482C360.376 122.802 359.874 122.283 359.212 121.925C358.549 121.567 357.744 121.388 356.795 121.388C355.81 121.388 354.996 121.603 354.351 122.032C353.724 122.462 353.232 123.053 352.874 123.805C352.534 124.539 352.292 125.389 352.149 126.356C352.006 127.323 351.934 128.343 351.934 129.417V130.438C351.934 131.512 352.077 132.488 352.364 133.365C352.668 134.243 353.098 134.994 353.653 135.621C354.226 136.23 354.906 136.704 355.694 137.044C356.5 137.385 357.413 137.555 358.433 137.555C359.668 137.555 360.886 137.322 362.085 136.856C363.285 136.391 364.314 135.621 365.174 134.547L369.283 139.435C368.692 140.276 367.85 141.091 366.758 141.878C365.684 142.666 364.395 143.311 362.891 143.812C361.387 144.295 359.704 144.537 357.842 144.537Z" fill="black"/>
<path d="M96.563 55.1172H100.904L107.295 73.3862L113.687 55.1172H118.028L109.039 80H105.552L96.563 55.1172ZM94.2217 55.1172H98.5454L99.3315 72.9248V80H94.2217V55.1172ZM116.045 55.1172H120.386V80H115.259V72.9248L116.045 55.1172ZM134.554 75.8301V67.5928C134.554 67.0003 134.457 66.4933 134.263 66.0718C134.069 65.6388 133.768 65.3027 133.357 65.0635C132.959 64.8242 132.44 64.7046 131.802 64.7046C131.255 64.7046 130.783 64.8014 130.384 64.9951C129.985 65.1774 129.677 65.4451 129.461 65.7983C129.244 66.1401 129.136 66.5446 129.136 67.0117H124.214C124.214 66.2256 124.397 65.4793 124.761 64.7729C125.126 64.0666 125.656 63.4456 126.351 62.9102C127.046 62.3633 127.872 61.936 128.829 61.6284C129.797 61.3208 130.879 61.167 132.076 61.167C133.511 61.167 134.787 61.4062 135.904 61.8848C137.02 62.3633 137.898 63.0811 138.536 64.0381C139.185 64.9951 139.51 66.1914 139.51 67.627V75.5396C139.51 76.5535 139.572 77.3853 139.698 78.0347C139.823 78.6727 140.005 79.231 140.245 79.7095V80H135.271C135.032 79.4987 134.85 78.8721 134.725 78.1201C134.611 77.3568 134.554 76.5934 134.554 75.8301ZM135.203 68.7378L135.237 71.5234H132.486C131.836 71.5234 131.272 71.5975 130.794 71.7456C130.315 71.8937 129.922 72.1045 129.615 72.3779C129.307 72.64 129.079 72.9476 128.931 73.3008C128.794 73.654 128.726 74.0413 128.726 74.4629C128.726 74.8844 128.823 75.2661 129.017 75.6079C129.21 75.9383 129.489 76.2004 129.854 76.394C130.219 76.5763 130.646 76.6675 131.136 76.6675C131.876 76.6675 132.52 76.5194 133.067 76.2231C133.614 75.9269 134.035 75.5623 134.332 75.1294C134.639 74.6965 134.799 74.2863 134.81 73.8989L136.109 75.9839C135.927 76.451 135.676 76.9352 135.357 77.4365C135.049 77.9378 134.656 78.4106 134.178 78.855C133.699 79.2879 133.124 79.6468 132.452 79.9316C131.779 80.2051 130.982 80.3418 130.059 80.3418C128.886 80.3418 127.82 80.1082 126.863 79.6411C125.918 79.1626 125.166 78.5075 124.607 77.6758C124.061 76.8327 123.787 75.8757 123.787 74.8047C123.787 73.8363 123.969 72.9761 124.334 72.2241C124.699 71.4722 125.234 70.8398 125.94 70.3271C126.658 69.8031 127.553 69.41 128.624 69.1479C129.694 68.8745 130.936 68.7378 132.349 68.7378H135.203ZM148.516 77.915L153.421 61.5088H158.702L151.268 82.7856C151.108 83.2528 150.892 83.7541 150.618 84.2896C150.356 84.825 149.997 85.332 149.542 85.8105C149.097 86.3005 148.533 86.6992 147.85 87.0068C147.177 87.3145 146.351 87.4683 145.372 87.4683C144.904 87.4683 144.523 87.4398 144.227 87.3828C143.93 87.3258 143.577 87.2461 143.167 87.1436V83.5376C143.292 83.5376 143.423 83.5376 143.56 83.5376C143.697 83.549 143.828 83.5547 143.953 83.5547C144.603 83.5547 145.132 83.4806 145.542 83.3325C145.953 83.1844 146.283 82.9565 146.534 82.6489C146.784 82.3527 146.984 81.9653 147.132 81.4868L148.516 77.915ZM146.465 61.5088L150.481 74.9072L151.182 80.1196L147.833 80.4785L141.185 61.5088H146.465ZM169.725 61.5088V64.9951H158.958V61.5088H169.725ZM161.624 56.9458H166.546V74.4287C166.546 74.9642 166.614 75.3743 166.751 75.6592C166.899 75.944 167.116 76.1434 167.4 76.2573C167.685 76.3599 168.044 76.4111 168.477 76.4111C168.785 76.4111 169.058 76.3997 169.297 76.377C169.548 76.3428 169.759 76.3086 169.93 76.2744L169.947 79.8975C169.525 80.0342 169.069 80.1424 168.58 80.2222C168.09 80.3019 167.549 80.3418 166.956 80.3418C165.874 80.3418 164.928 80.1652 164.119 79.812C163.322 79.4474 162.706 78.8664 162.273 78.0688C161.84 77.2713 161.624 76.2231 161.624 74.9243V56.9458ZM177.33 53.75V80H172.408V53.75H177.33ZM176.629 70.105H175.279C175.29 68.8175 175.461 67.6326 175.792 66.5503C176.122 65.4565 176.595 64.5109 177.21 63.7134C177.825 62.9045 178.56 62.2778 179.415 61.8335C180.28 61.3892 181.237 61.167 182.286 61.167C183.197 61.167 184.023 61.298 184.764 61.5601C185.516 61.8107 186.159 62.2209 186.695 62.7905C187.242 63.3488 187.663 64.0837 187.959 64.9951C188.256 65.9066 188.404 67.0117 188.404 68.3105V80H183.448V68.2764C183.448 67.4561 183.328 66.8123 183.089 66.3452C182.861 65.8667 182.525 65.5306 182.081 65.3369C181.648 65.1318 181.112 65.0293 180.474 65.0293C179.768 65.0293 179.164 65.1603 178.663 65.4224C178.173 65.6844 177.78 66.049 177.483 66.5161C177.187 66.9718 176.971 67.5073 176.834 68.1226C176.697 68.7378 176.629 69.3986 176.629 70.105ZM202.127 75.8301V67.5928C202.127 67.0003 202.03 66.4933 201.836 66.0718C201.643 65.6388 201.341 65.3027 200.931 65.0635C200.532 64.8242 200.014 64.7046 199.375 64.7046C198.829 64.7046 198.356 64.8014 197.957 64.9951C197.558 65.1774 197.251 65.4451 197.034 65.7983C196.818 66.1401 196.709 66.5446 196.709 67.0117H191.788C191.788 66.2256 191.97 65.4793 192.334 64.7729C192.699 64.0666 193.229 63.4456 193.924 62.9102C194.619 62.3633 195.445 61.936 196.402 61.6284C197.37 61.3208 198.453 61.167 199.649 61.167C201.084 61.167 202.361 61.4062 203.477 61.8848C204.594 62.3633 205.471 63.0811 206.109 64.0381C206.758 64.9951 207.083 66.1914 207.083 67.627V75.5396C207.083 76.5535 207.146 77.3853 207.271 78.0347C207.396 78.6727 207.579 79.231 207.818 79.7095V80H202.845C202.605 79.4987 202.423 78.8721 202.298 78.1201C202.184 77.3568 202.127 76.5934 202.127 75.8301ZM202.776 68.7378L202.811 71.5234H200.059C199.41 71.5234 198.846 71.5975 198.367 71.7456C197.889 71.8937 197.496 72.1045 197.188 72.3779C196.88 72.64 196.653 72.9476 196.504 73.3008C196.368 73.654 196.299 74.0413 196.299 74.4629C196.299 74.8844 196.396 75.2661 196.59 75.6079C196.784 75.9383 197.063 76.2004 197.427 76.394C197.792 76.5763 198.219 76.6675 198.709 76.6675C199.45 76.6675 200.093 76.5194 200.64 76.2231C201.187 75.9269 201.609 75.5623 201.905 75.1294C202.212 74.6965 202.372 74.2863 202.383 73.8989L203.682 75.9839C203.5 76.451 203.249 76.9352 202.93 77.4365C202.623 77.9378 202.229 78.4106 201.751 78.855C201.272 79.2879 200.697 79.6468 200.025 79.9316C199.353 80.2051 198.555 80.3418 197.632 80.3418C196.459 80.3418 195.394 80.1082 194.437 79.6411C193.491 79.1626 192.739 78.5075 192.181 77.6758C191.634 76.8327 191.36 75.8757 191.36 74.8047C191.36 73.8363 191.543 72.9761 191.907 72.2241C192.272 71.4722 192.807 70.8398 193.514 70.3271C194.231 69.8031 195.126 69.41 196.197 69.1479C197.268 68.8745 198.51 68.7378 199.922 68.7378H202.776ZM215.799 65.3369V80H210.86V61.5088H215.491L215.799 65.3369ZM215.115 70.105H213.748C213.748 68.8175 213.902 67.6326 214.209 66.5503C214.528 65.4565 214.99 64.5109 215.594 63.7134C216.209 62.9045 216.967 62.2778 217.867 61.8335C218.767 61.3892 219.809 61.167 220.994 61.167C221.814 61.167 222.566 61.2923 223.25 61.543C223.934 61.7822 224.52 62.1639 225.01 62.688C225.512 63.2007 225.899 63.8729 226.172 64.7046C226.446 65.5249 226.583 66.5104 226.583 67.6611V80H221.661V68.208C221.661 67.3649 221.547 66.7155 221.319 66.2598C221.091 65.804 220.766 65.485 220.345 65.3027C219.935 65.1204 219.439 65.0293 218.858 65.0293C218.22 65.0293 217.662 65.1603 217.183 65.4224C216.716 65.6844 216.329 66.049 216.021 66.5161C215.713 66.9718 215.486 67.5073 215.337 68.1226C215.189 68.7378 215.115 69.3986 215.115 70.105ZM226.121 69.541L224.361 69.7632C224.361 68.5555 224.509 67.4333 224.805 66.3965C225.113 65.3597 225.563 64.4482 226.155 63.6621C226.759 62.876 227.505 62.2664 228.394 61.8335C229.283 61.3892 230.308 61.167 231.47 61.167C232.359 61.167 233.168 61.298 233.897 61.5601C234.626 61.8107 235.247 62.2152 235.76 62.7734C236.284 63.3203 236.683 64.0381 236.956 64.9268C237.241 65.8154 237.383 66.9035 237.383 68.1909V80H232.444V68.1909C232.444 67.3364 232.33 66.687 232.103 66.2427C231.886 65.7869 231.567 65.4736 231.146 65.3027C230.735 65.1204 230.245 65.0293 229.676 65.0293C229.083 65.0293 228.565 65.1489 228.121 65.3882C227.676 65.616 227.306 65.9351 227.01 66.3452C226.714 66.7554 226.491 67.2339 226.343 67.7808C226.195 68.3162 226.121 68.903 226.121 69.541ZM269.939 66.9946V76.8555C269.552 77.3226 268.954 77.8296 268.145 78.3765C267.336 78.9119 266.294 79.3734 265.018 79.7607C263.742 80.1481 262.198 80.3418 260.386 80.3418C258.78 80.3418 257.316 80.0798 255.994 79.5557C254.673 79.0202 253.533 78.2397 252.576 77.2144C251.631 76.189 250.901 74.9357 250.389 73.4546C249.876 71.9621 249.62 70.2588 249.62 68.3447V66.7896C249.62 64.8755 249.865 63.1722 250.354 61.6797C250.856 60.1872 251.568 58.9282 252.491 57.9028C253.414 56.8774 254.513 56.097 255.789 55.5615C257.065 55.026 258.484 54.7583 260.044 54.7583C262.209 54.7583 263.986 55.1115 265.376 55.8179C266.766 56.5129 267.826 57.4813 268.555 58.7231C269.296 59.9536 269.751 61.3664 269.922 62.9614H264.949C264.824 62.1183 264.585 61.3835 264.231 60.7568C263.878 60.1302 263.371 59.6403 262.71 59.2871C262.061 58.9339 261.218 58.7573 260.181 58.7573C259.327 58.7573 258.563 58.9339 257.891 59.2871C257.23 59.6289 256.672 60.1359 256.216 60.8081C255.761 61.4803 255.413 62.312 255.174 63.3032C254.935 64.2944 254.815 65.4451 254.815 66.7554V68.3447C254.815 69.6436 254.94 70.7943 255.191 71.7969C255.442 72.7881 255.812 73.6255 256.302 74.3091C256.803 74.9813 257.418 75.4883 258.147 75.8301C258.877 76.1719 259.725 76.3428 260.694 76.3428C261.503 76.3428 262.175 76.2744 262.71 76.1377C263.257 76.001 263.696 75.8358 264.026 75.6421C264.368 75.437 264.63 75.2433 264.812 75.061V70.6519H260.13V66.9946H269.939ZM278.57 53.75V80H273.648V53.75H278.57ZM277.869 70.105H276.519C276.53 68.8175 276.701 67.6326 277.032 66.5503C277.362 65.4565 277.835 64.5109 278.45 63.7134C279.065 62.9045 279.8 62.2778 280.655 61.8335C281.521 61.3892 282.478 61.167 283.526 61.167C284.437 61.167 285.263 61.298 286.004 61.5601C286.756 61.8107 287.4 62.2209 287.935 62.7905C288.482 63.3488 288.903 64.0837 289.2 64.9951C289.496 65.9066 289.644 67.0117 289.644 68.3105V80H284.688V68.2764C284.688 67.4561 284.568 66.8123 284.329 66.3452C284.101 65.8667 283.765 65.5306 283.321 65.3369C282.888 65.1318 282.352 65.0293 281.714 65.0293C281.008 65.0293 280.404 65.1603 279.903 65.4224C279.413 65.6844 279.02 66.049 278.724 66.5161C278.427 66.9718 278.211 67.5073 278.074 68.1226C277.938 68.7378 277.869 69.3986 277.869 70.105ZM303.367 75.8301V67.5928C303.367 67.0003 303.27 66.4933 303.077 66.0718C302.883 65.6388 302.581 65.3027 302.171 65.0635C301.772 64.8242 301.254 64.7046 300.616 64.7046C300.069 64.7046 299.596 64.8014 299.197 64.9951C298.799 65.1774 298.491 65.4451 298.274 65.7983C298.058 66.1401 297.95 66.5446 297.95 67.0117H293.028C293.028 66.2256 293.21 65.4793 293.575 64.7729C293.939 64.0666 294.469 63.4456 295.164 62.9102C295.859 62.3633 296.685 61.936 297.642 61.6284C298.611 61.3208 299.693 61.167 300.889 61.167C302.325 61.167 303.601 61.4062 304.717 61.8848C305.834 62.3633 306.711 63.0811 307.349 64.0381C307.999 64.9951 308.323 66.1914 308.323 67.627V75.5396C308.323 76.5535 308.386 77.3853 308.511 78.0347C308.637 78.6727 308.819 79.231 309.058 79.7095V80H304.085C303.846 79.4987 303.663 78.8721 303.538 78.1201C303.424 77.3568 303.367 76.5934 303.367 75.8301ZM304.017 68.7378L304.051 71.5234H301.299C300.65 71.5234 300.086 71.5975 299.607 71.7456C299.129 71.8937 298.736 72.1045 298.428 72.3779C298.121 72.64 297.893 72.9476 297.745 73.3008C297.608 73.654 297.54 74.0413 297.54 74.4629C297.54 74.8844 297.636 75.2661 297.83 75.6079C298.024 75.9383 298.303 76.2004 298.667 76.394C299.032 76.5763 299.459 76.6675 299.949 76.6675C300.69 76.6675 301.333 76.5194 301.88 76.2231C302.427 75.9269 302.849 75.5623 303.145 75.1294C303.453 74.6965 303.612 74.2863 303.624 73.8989L304.922 75.9839C304.74 76.451 304.489 76.9352 304.17 77.4365C303.863 77.9378 303.47 78.4106 302.991 78.855C302.513 79.2879 301.937 79.6468 301.265 79.9316C300.593 80.2051 299.795 80.3418 298.873 80.3418C297.699 80.3418 296.634 80.1082 295.677 79.6411C294.731 79.1626 293.979 78.5075 293.421 77.6758C292.874 76.8327 292.601 75.8757 292.601 74.8047C292.601 73.8363 292.783 72.9761 293.147 72.2241C293.512 71.4722 294.048 70.8398 294.754 70.3271C295.472 69.8031 296.366 69.41 297.437 69.1479C298.508 68.8745 299.75 68.7378 301.163 68.7378H304.017ZM317.312 53.75V80H312.374V53.75H317.312ZM326.866 77.915L331.771 61.5088H337.051L329.617 82.7856C329.458 83.2528 329.241 83.7541 328.968 84.2896C328.706 84.825 328.347 85.332 327.891 85.8105C327.447 86.3005 326.883 86.6992 326.199 87.0068C325.527 87.3145 324.701 87.4683 323.721 87.4683C323.254 87.4683 322.872 87.4398 322.576 87.3828C322.28 87.3258 321.927 87.2461 321.517 87.1436V83.5376C321.642 83.5376 321.773 83.5376 321.91 83.5376C322.046 83.549 322.177 83.5547 322.303 83.5547C322.952 83.5547 323.482 83.4806 323.892 83.3325C324.302 83.1844 324.633 82.9565 324.883 82.6489C325.134 82.3527 325.333 81.9653 325.481 81.4868L326.866 77.915ZM324.815 61.5088L328.831 74.9072L329.532 80.1196L326.182 80.4785L319.534 61.5088H324.815Z" fill="#888888"/>
<rect x="92" y="181" width="1179" height="80" rx="13.3333" fill="#CCCCCC"/>
<rect x="107" y="196.333" width="208" height="49.3333" rx="4.66667" fill="#888888" stroke="#888888" stroke-width="4"/>
<path d="M183.833 213.167V228.333H180.177V213.167H183.833ZM189.729 219.479V222.292H182.792V219.479H189.729ZM190.323 213.167V215.99H182.792V213.167H190.323ZM195.385 212.333V228.333H191.865V212.333H195.385ZM204.135 225.594V217.062H207.656V228.333H204.365L204.135 225.594ZM204.469 223.302L205.385 223.281C205.385 224.038 205.295 224.74 205.115 225.385C204.934 226.024 204.667 226.58 204.313 227.052C203.965 227.524 203.535 227.892 203.021 228.156C202.514 228.413 201.927 228.542 201.26 228.542C200.705 228.542 200.194 228.465 199.729 228.312C199.271 228.153 198.875 227.906 198.542 227.573C198.208 227.233 197.948 226.799 197.76 226.271C197.58 225.736 197.49 225.097 197.49 224.354V217.062H201V224.375C201 224.625 201.031 224.84 201.094 225.021C201.156 225.201 201.247 225.354 201.365 225.479C201.483 225.597 201.628 225.687 201.802 225.75C201.983 225.806 202.188 225.833 202.417 225.833C202.944 225.833 203.358 225.722 203.656 225.5C203.955 225.278 204.163 224.976 204.281 224.594C204.406 224.212 204.469 223.781 204.469 223.302ZM215.531 217.062V219.5H208.74V217.062H215.531ZM210.167 214.26H213.677V224.656C213.677 224.955 213.712 225.187 213.781 225.354C213.851 225.514 213.969 225.628 214.135 225.698C214.309 225.76 214.538 225.792 214.823 225.792C215.024 225.792 215.191 225.788 215.323 225.781C215.455 225.767 215.58 225.75 215.698 225.729V228.24C215.399 228.337 215.087 228.41 214.76 228.458C214.434 228.514 214.087 228.542 213.719 228.542C212.969 228.542 212.326 228.424 211.792 228.187C211.264 227.951 210.861 227.58 210.583 227.073C210.306 226.566 210.167 225.906 210.167 225.094V214.26ZM222.865 217.062V219.5H216.073V217.062H222.865ZM217.5 214.26H221.01V224.656C221.01 224.955 221.045 225.187 221.115 225.354C221.184 225.514 221.302 225.628 221.469 225.698C221.642 225.76 221.872 225.792 222.156 225.792C222.358 225.792 222.524 225.788 222.656 225.781C222.788 225.767 222.913 225.75 223.031 225.729V228.24C222.733 228.337 222.42 228.41 222.094 228.458C221.767 228.514 221.42 228.542 221.052 228.542C220.302 228.542 219.66 228.424 219.125 228.187C218.597 227.951 218.194 227.58 217.917 227.073C217.639 226.566 217.5 225.906 217.5 225.094V214.26ZM229.719 228.542C228.802 228.542 227.983 228.399 227.26 228.115C226.538 227.823 225.927 227.424 225.427 226.917C224.934 226.41 224.556 225.826 224.292 225.167C224.035 224.507 223.906 223.809 223.906 223.073V222.677C223.906 221.851 224.021 221.087 224.25 220.385C224.479 219.677 224.819 219.059 225.271 218.531C225.722 218.003 226.288 217.594 226.969 217.302C227.649 217.003 228.441 216.854 229.344 216.854C230.142 216.854 230.858 216.983 231.49 217.24C232.122 217.497 232.656 217.865 233.094 218.344C233.538 218.823 233.875 219.403 234.104 220.083C234.34 220.764 234.458 221.528 234.458 222.375V223.802H225.25V221.604H231.031V221.333C231.038 220.958 230.972 220.639 230.833 220.375C230.701 220.111 230.507 219.91 230.25 219.771C229.993 219.632 229.681 219.562 229.312 219.562C228.931 219.562 228.615 219.646 228.365 219.812C228.122 219.979 227.931 220.208 227.792 220.5C227.66 220.785 227.566 221.115 227.51 221.49C227.455 221.865 227.427 222.26 227.427 222.677V223.073C227.427 223.49 227.483 223.868 227.594 224.208C227.712 224.549 227.878 224.84 228.094 225.083C228.316 225.319 228.58 225.503 228.885 225.635C229.198 225.767 229.552 225.833 229.948 225.833C230.427 225.833 230.899 225.743 231.365 225.562C231.83 225.382 232.229 225.083 232.562 224.667L234.156 226.562C233.927 226.889 233.601 227.205 233.177 227.51C232.76 227.816 232.26 228.066 231.677 228.26C231.094 228.448 230.441 228.542 229.719 228.542ZM239.427 219.854V228.333H235.917V217.062H239.198L239.427 219.854ZM242.76 216.979L242.698 220.24C242.559 220.226 242.372 220.208 242.135 220.187C241.899 220.167 241.701 220.156 241.542 220.156C241.132 220.156 240.778 220.205 240.479 220.302C240.187 220.392 239.944 220.531 239.75 220.719C239.562 220.899 239.424 221.128 239.333 221.406C239.25 221.684 239.212 222.007 239.219 222.375L238.583 221.958C238.583 221.201 238.656 220.514 238.802 219.896C238.955 219.271 239.17 218.733 239.448 218.281C239.726 217.823 240.062 217.472 240.458 217.229C240.854 216.979 241.299 216.854 241.792 216.854C241.965 216.854 242.135 216.865 242.302 216.885C242.476 216.906 242.628 216.937 242.76 216.979Z" fill="white"/>
<rect x="339" y="196.333" width="208" height="49.3333" rx="4.66667" fill="#888888" stroke="#888888" stroke-width="4"/>
<path d="M418.844 213.167V228.333H415.198L409.833 218.896V228.333H406.177V213.167H409.833L415.198 222.604V213.167H418.844ZM420.552 222.812V222.594C420.552 221.767 420.67 221.007 420.906 220.312C421.142 219.611 421.49 219.003 421.948 218.49C422.406 217.976 422.972 217.576 423.646 217.292C424.319 217 425.097 216.854 425.979 216.854C426.868 216.854 427.649 217 428.323 217.292C429.003 217.576 429.573 217.976 430.031 218.49C430.49 219.003 430.837 219.611 431.073 220.312C431.309 221.007 431.427 221.767 431.427 222.594V222.812C431.427 223.632 431.309 224.392 431.073 225.094C430.837 225.788 430.49 226.396 430.031 226.917C429.573 227.431 429.007 227.83 428.333 228.115C427.66 228.399 426.882 228.542 426 228.542C425.118 228.542 424.337 228.399 423.656 228.115C422.976 227.83 422.406 227.431 421.948 226.917C421.49 226.396 421.142 225.788 420.906 225.094C420.67 224.392 420.552 223.632 420.552 222.812ZM424.062 222.594V222.812C424.062 223.236 424.094 223.632 424.156 224C424.219 224.368 424.323 224.691 424.469 224.969C424.615 225.24 424.812 225.451 425.062 225.604C425.312 225.757 425.625 225.833 426 225.833C426.368 225.833 426.674 225.757 426.917 225.604C427.167 225.451 427.365 225.24 427.51 224.969C427.656 224.691 427.76 224.368 427.823 224C427.885 223.632 427.917 223.236 427.917 222.812V222.594C427.917 222.184 427.885 221.799 427.823 221.437C427.76 221.069 427.656 220.747 427.51 220.469C427.365 220.184 427.167 219.962 426.917 219.802C426.667 219.642 426.354 219.562 425.979 219.562C425.611 219.562 425.302 219.642 425.052 219.802C424.809 219.962 424.615 220.184 424.469 220.469C424.323 220.747 424.219 221.069 424.156 221.437C424.094 221.799 424.062 222.184 424.062 222.594ZM439.469 225.75V212.333H443V228.333H439.833L439.469 225.75ZM432.552 222.833V222.615C432.552 221.76 432.646 220.983 432.833 220.281C433.021 219.573 433.299 218.965 433.667 218.458C434.035 217.944 434.493 217.549 435.042 217.271C435.59 216.993 436.222 216.854 436.938 216.854C437.576 216.854 438.135 217.003 438.615 217.302C439.094 217.594 439.503 218.003 439.844 218.531C440.184 219.059 440.462 219.677 440.677 220.385C440.892 221.087 441.056 221.844 441.167 222.656V222.917C441.056 223.681 440.892 224.403 440.677 225.083C440.462 225.757 440.184 226.354 439.844 226.875C439.503 227.396 439.09 227.806 438.604 228.104C438.125 228.396 437.563 228.542 436.917 228.542C436.201 228.542 435.569 228.399 435.021 228.115C434.479 227.83 434.024 227.431 433.656 226.917C433.295 226.403 433.021 225.799 432.833 225.104C432.646 224.41 432.552 223.653 432.552 222.833ZM436.063 222.615V222.833C436.063 223.257 436.09 223.649 436.146 224.01C436.201 224.372 436.295 224.691 436.427 224.969C436.566 225.24 436.747 225.451 436.969 225.604C437.198 225.757 437.479 225.833 437.813 225.833C438.264 225.833 438.635 225.726 438.927 225.51C439.226 225.295 439.444 224.99 439.583 224.594C439.729 224.198 439.792 223.733 439.771 223.198V222.375C439.785 221.917 439.753 221.514 439.677 221.167C439.601 220.812 439.479 220.517 439.313 220.281C439.153 220.045 438.948 219.868 438.698 219.75C438.455 219.625 438.167 219.562 437.833 219.562C437.507 219.562 437.229 219.639 437 219.792C436.778 219.944 436.597 220.16 436.458 220.437C436.319 220.708 436.219 221.031 436.156 221.406C436.094 221.774 436.063 222.177 436.063 222.615ZM450.448 228.542C449.531 228.542 448.712 228.399 447.99 228.115C447.267 227.823 446.656 227.424 446.156 226.917C445.663 226.41 445.285 225.826 445.021 225.167C444.764 224.507 444.635 223.809 444.635 223.073V222.677C444.635 221.851 444.75 221.087 444.979 220.385C445.208 219.677 445.549 219.059 446 218.531C446.451 218.003 447.017 217.594 447.698 217.302C448.378 217.003 449.17 216.854 450.073 216.854C450.872 216.854 451.587 216.983 452.219 217.24C452.851 217.497 453.385 217.865 453.823 218.344C454.267 218.823 454.604 219.403 454.833 220.083C455.069 220.764 455.188 221.528 455.188 222.375V223.802H445.979V221.604H451.76V221.333C451.767 220.958 451.701 220.639 451.563 220.375C451.431 220.111 451.236 219.91 450.979 219.771C450.722 219.632 450.41 219.562 450.042 219.562C449.66 219.562 449.344 219.646 449.094 219.812C448.851 219.979 448.66 220.208 448.521 220.5C448.389 220.785 448.295 221.115 448.24 221.49C448.184 221.865 448.156 222.26 448.156 222.677V223.073C448.156 223.49 448.212 223.868 448.323 224.208C448.441 224.549 448.608 224.84 448.823 225.083C449.045 225.319 449.309 225.503 449.615 225.635C449.927 225.767 450.281 225.833 450.677 225.833C451.156 225.833 451.628 225.743 452.094 225.562C452.559 225.382 452.958 225.083 453.292 224.667L454.885 226.562C454.656 226.889 454.33 227.205 453.906 227.51C453.49 227.816 452.99 228.066 452.406 228.26C451.823 228.448 451.17 228.542 450.448 228.542ZM462.813 223.573V213.167H466.458V223.573C466.458 224.587 466.226 225.465 465.76 226.208C465.302 226.951 464.677 227.528 463.885 227.937C463.101 228.34 462.219 228.542 461.24 228.542C460.226 228.542 459.323 228.372 458.531 228.031C457.747 227.691 457.128 227.167 456.677 226.458C456.233 225.75 456.01 224.847 456.01 223.75H459.677C459.677 224.264 459.736 224.667 459.854 224.958C459.972 225.243 460.146 225.444 460.375 225.562C460.611 225.674 460.899 225.729 461.24 225.729C461.573 225.729 461.854 225.646 462.083 225.479C462.319 225.306 462.5 225.059 462.625 224.74C462.75 224.413 462.813 224.024 462.813 223.573ZM476.594 224.302C476.594 224.066 476.559 223.854 476.49 223.667C476.42 223.472 476.292 223.292 476.104 223.125C475.917 222.958 475.646 222.792 475.292 222.625C474.944 222.451 474.486 222.271 473.917 222.083C473.25 221.861 472.608 221.611 471.99 221.333C471.372 221.049 470.819 220.719 470.333 220.344C469.847 219.962 469.462 219.517 469.177 219.01C468.892 218.497 468.75 217.899 468.75 217.219C468.75 216.566 468.896 215.979 469.188 215.458C469.479 214.931 469.885 214.483 470.406 214.115C470.934 213.74 471.552 213.455 472.26 213.26C472.969 213.059 473.743 212.958 474.583 212.958C475.694 212.958 476.674 213.153 477.521 213.542C478.375 213.924 479.042 214.469 479.521 215.177C480.007 215.878 480.25 216.708 480.25 217.667H476.615C476.615 217.285 476.535 216.948 476.375 216.656C476.222 216.365 475.99 216.135 475.677 215.969C475.365 215.802 474.972 215.719 474.5 215.719C474.042 215.719 473.656 215.788 473.344 215.927C473.031 216.066 472.795 216.253 472.635 216.49C472.476 216.719 472.396 216.972 472.396 217.25C472.396 217.479 472.458 217.687 472.583 217.875C472.715 218.056 472.899 218.226 473.135 218.385C473.378 218.545 473.67 218.698 474.01 218.844C474.358 218.99 474.747 219.132 475.177 219.271C475.983 219.528 476.698 219.816 477.323 220.135C477.955 220.448 478.486 220.806 478.917 221.208C479.354 221.604 479.684 222.056 479.906 222.562C480.135 223.069 480.25 223.642 480.25 224.281C480.25 224.962 480.118 225.566 479.854 226.094C479.59 226.622 479.212 227.069 478.719 227.437C478.226 227.799 477.635 228.073 476.948 228.26C476.26 228.448 475.493 228.542 474.646 228.542C473.868 228.542 473.101 228.444 472.344 228.25C471.594 228.049 470.913 227.743 470.302 227.333C469.691 226.917 469.201 226.385 468.833 225.74C468.472 225.087 468.292 224.312 468.292 223.417H471.958C471.958 223.861 472.017 224.236 472.135 224.542C472.253 224.847 472.427 225.094 472.656 225.281C472.885 225.462 473.167 225.594 473.5 225.677C473.833 225.753 474.215 225.792 474.646 225.792C475.111 225.792 475.486 225.726 475.771 225.594C476.056 225.455 476.264 225.274 476.396 225.052C476.528 224.823 476.594 224.573 476.594 224.302Z" fill="white"/>
<rect x="571" y="196.333" width="208" height="49.3333" rx="4.66667" fill="#888888" stroke="#888888" stroke-width="4"/>
<path d="M630.656 213.167H633.635L637.021 223.719L640.406 213.167H643.385L638.229 228.333H635.813L630.656 213.167ZM628.844 213.167H631.927L632.5 224.792V228.333H628.844V213.167ZM642.115 213.167H645.208V228.333H641.542V224.792L642.115 213.167ZM646.948 222.812V222.594C646.948 221.767 647.066 221.007 647.302 220.312C647.538 219.611 647.885 219.003 648.344 218.49C648.802 217.976 649.368 217.576 650.042 217.292C650.715 217 651.493 216.854 652.375 216.854C653.264 216.854 654.045 217 654.719 217.292C655.399 217.576 655.969 217.976 656.427 218.49C656.885 219.003 657.233 219.611 657.469 220.312C657.705 221.007 657.823 221.767 657.823 222.594V222.812C657.823 223.632 657.705 224.392 657.469 225.094C657.233 225.788 656.885 226.396 656.427 226.917C655.969 227.431 655.403 227.83 654.729 228.115C654.056 228.399 653.278 228.542 652.396 228.542C651.514 228.542 650.733 228.399 650.052 228.115C649.372 227.83 648.802 227.431 648.344 226.917C647.885 226.396 647.538 225.788 647.302 225.094C647.066 224.392 646.948 223.632 646.948 222.812ZM650.458 222.594V222.812C650.458 223.236 650.49 223.632 650.552 224C650.615 224.368 650.719 224.691 650.865 224.969C651.01 225.24 651.208 225.451 651.458 225.604C651.708 225.757 652.021 225.833 652.396 225.833C652.764 225.833 653.069 225.757 653.313 225.604C653.563 225.451 653.76 225.24 653.906 224.969C654.052 224.691 654.156 224.368 654.219 224C654.281 223.632 654.313 223.236 654.313 222.812V222.594C654.313 222.184 654.281 221.799 654.219 221.437C654.156 221.069 654.052 220.747 653.906 220.469C653.76 220.184 653.563 219.962 653.313 219.802C653.063 219.642 652.75 219.562 652.375 219.562C652.007 219.562 651.698 219.642 651.448 219.802C651.205 219.962 651.01 220.184 650.865 220.469C650.719 220.747 650.615 221.069 650.552 221.437C650.49 221.799 650.458 222.184 650.458 222.594ZM662.833 219.469V228.333H659.323V217.062H662.615L662.833 219.469ZM662.417 222.312L661.594 222.333C661.594 221.472 661.698 220.705 661.906 220.031C662.115 219.351 662.41 218.774 662.792 218.302C663.174 217.83 663.628 217.472 664.156 217.229C664.691 216.979 665.285 216.854 665.938 216.854C666.458 216.854 666.934 216.931 667.365 217.083C667.802 217.236 668.177 217.483 668.49 217.823C668.809 218.163 669.052 218.615 669.219 219.177C669.392 219.733 669.479 220.42 669.479 221.24V228.333H665.948V221.229C665.948 220.778 665.885 220.434 665.76 220.198C665.635 219.955 665.455 219.788 665.219 219.698C664.983 219.608 664.694 219.562 664.354 219.562C663.993 219.562 663.688 219.632 663.438 219.771C663.188 219.91 662.986 220.104 662.833 220.354C662.688 220.597 662.58 220.885 662.51 221.219C662.448 221.552 662.417 221.917 662.417 222.312ZM678.51 217.062H681.698V227.896C681.698 228.937 681.458 229.819 680.979 230.542C680.5 231.271 679.83 231.823 678.969 232.198C678.115 232.58 677.115 232.771 675.969 232.771C675.462 232.771 674.944 232.705 674.417 232.573C673.889 232.448 673.396 232.26 672.938 232.01C672.479 231.76 672.094 231.451 671.781 231.083L673.25 229.021C673.535 229.34 673.892 229.611 674.323 229.833C674.753 230.062 675.26 230.177 675.844 230.177C676.351 230.177 676.774 230.087 677.115 229.906C677.462 229.726 677.726 229.462 677.906 229.115C678.087 228.774 678.177 228.361 678.177 227.875V219.729L678.51 217.062ZM671.021 222.833V222.615C671.021 221.76 671.125 220.983 671.333 220.281C671.549 219.573 671.854 218.965 672.25 218.458C672.653 217.944 673.139 217.549 673.708 217.271C674.278 216.993 674.92 216.854 675.635 216.854C676.406 216.854 677.038 217.003 677.531 217.302C678.031 217.594 678.431 218.003 678.729 218.531C679.035 219.059 679.271 219.677 679.438 220.385C679.611 221.087 679.757 221.844 679.875 222.656V222.917C679.757 223.681 679.594 224.403 679.385 225.083C679.184 225.757 678.92 226.354 678.594 226.875C678.267 227.396 677.858 227.806 677.365 228.104C676.878 228.396 676.295 228.542 675.615 228.542C674.906 228.542 674.267 228.399 673.698 228.115C673.135 227.83 672.653 227.431 672.25 226.917C671.854 226.403 671.549 225.799 671.333 225.104C671.125 224.41 671.021 223.653 671.021 222.833ZM674.531 222.615V222.833C674.531 223.257 674.569 223.649 674.646 224.01C674.729 224.372 674.854 224.691 675.021 224.969C675.188 225.24 675.392 225.451 675.635 225.604C675.885 225.757 676.177 225.833 676.51 225.833C677.017 225.833 677.427 225.726 677.74 225.51C678.052 225.295 678.278 224.99 678.417 224.594C678.556 224.198 678.615 223.733 678.594 223.198V222.375C678.608 221.917 678.576 221.514 678.5 221.167C678.424 220.812 678.302 220.517 678.135 220.281C677.976 220.045 677.76 219.868 677.49 219.75C677.226 219.625 676.906 219.562 676.531 219.562C676.205 219.562 675.917 219.639 675.667 219.792C675.417 219.944 675.208 220.16 675.042 220.437C674.875 220.708 674.747 221.031 674.656 221.406C674.573 221.774 674.531 222.177 674.531 222.615ZM683.281 222.812V222.594C683.281 221.767 683.399 221.007 683.635 220.312C683.872 219.611 684.219 219.003 684.677 218.49C685.135 217.976 685.701 217.576 686.375 217.292C687.049 217 687.826 216.854 688.708 216.854C689.597 216.854 690.378 217 691.052 217.292C691.733 217.576 692.302 217.976 692.76 218.49C693.219 219.003 693.566 219.611 693.802 220.312C694.038 221.007 694.156 221.767 694.156 222.594V222.812C694.156 223.632 694.038 224.392 693.802 225.094C693.566 225.788 693.219 226.396 692.76 226.917C692.302 227.431 691.736 227.83 691.063 228.115C690.389 228.399 689.611 228.542 688.729 228.542C687.847 228.542 687.066 228.399 686.385 228.115C685.705 227.83 685.135 227.431 684.677 226.917C684.219 226.396 683.872 225.788 683.635 225.094C683.399 224.392 683.281 223.632 683.281 222.812ZM686.792 222.594V222.812C686.792 223.236 686.823 223.632 686.885 224C686.948 224.368 687.052 224.691 687.198 224.969C687.344 225.24 687.542 225.451 687.792 225.604C688.042 225.757 688.354 225.833 688.729 225.833C689.097 225.833 689.403 225.757 689.646 225.604C689.896 225.451 690.094 225.24 690.24 224.969C690.385 224.691 690.49 224.368 690.552 224C690.615 223.632 690.646 223.236 690.646 222.812V222.594C690.646 222.184 690.615 221.799 690.552 221.437C690.49 221.069 690.385 220.747 690.24 220.469C690.094 220.184 689.896 219.962 689.646 219.802C689.396 219.642 689.083 219.562 688.708 219.562C688.34 219.562 688.031 219.642 687.781 219.802C687.538 219.962 687.344 220.184 687.198 220.469C687.052 220.747 686.948 221.069 686.885 221.437C686.823 221.799 686.792 222.184 686.792 222.594ZM700.813 228.333H697.448L697.469 225.521H700.813C701.507 225.521 702.094 225.354 702.573 225.021C703.059 224.687 703.427 224.191 703.677 223.531C703.934 222.865 704.063 222.045 704.063 221.073V220.417C704.063 219.687 703.99 219.049 703.844 218.5C703.705 217.944 703.497 217.483 703.219 217.115C702.941 216.74 702.594 216.458 702.177 216.271C701.767 216.083 701.295 215.99 700.76 215.99H697.385V213.167H700.76C701.788 213.167 702.729 213.344 703.583 213.698C704.444 214.045 705.188 214.545 705.813 215.198C706.444 215.844 706.931 216.611 707.271 217.5C707.618 218.382 707.792 219.361 707.792 220.437V221.073C707.792 222.142 707.618 223.122 707.271 224.01C706.931 224.899 706.448 225.667 705.823 226.312C705.198 226.958 704.458 227.458 703.604 227.812C702.757 228.16 701.826 228.333 700.813 228.333ZM699.542 213.167V228.333H695.885V213.167H699.542ZM715.885 221.885H711.979L711.958 219.49H715.125C715.694 219.49 716.149 219.427 716.49 219.302C716.83 219.17 717.076 218.979 717.229 218.729C717.389 218.479 717.469 218.167 717.469 217.792C717.469 217.361 717.389 217.014 717.229 216.75C717.069 216.486 716.816 216.295 716.469 216.177C716.128 216.052 715.688 215.99 715.146 215.99H713.354V228.333H709.698V213.167H715.146C716.083 213.167 716.92 213.253 717.656 213.427C718.392 213.594 719.017 213.851 719.531 214.198C720.052 214.545 720.448 214.983 720.719 215.51C720.99 216.031 721.125 216.646 721.125 217.354C721.125 217.972 720.993 218.552 720.729 219.094C720.465 219.635 720.024 220.076 719.406 220.417C718.795 220.75 717.958 220.924 716.896 220.937L715.885 221.885ZM715.74 228.333H711.094L712.344 225.521H715.74C716.24 225.521 716.639 225.444 716.938 225.292C717.243 225.132 717.462 224.924 717.594 224.667C717.733 224.403 717.802 224.111 717.802 223.792C717.802 223.403 717.736 223.066 717.604 222.781C717.479 222.497 717.278 222.278 717 222.125C716.722 221.965 716.351 221.885 715.885 221.885H712.813L712.833 219.49H716.51L717.365 220.448C718.378 220.406 719.181 220.549 719.771 220.875C720.368 221.201 720.795 221.632 721.052 222.167C721.309 222.701 721.438 223.26 721.438 223.844C721.438 224.837 721.222 225.667 720.792 226.333C720.368 227 719.733 227.5 718.885 227.833C718.038 228.167 716.99 228.333 715.74 228.333Z" fill="white"/>
</svg>
