<svg width="1363" height="167" viewBox="0 0 1363 167" fill="none" xmlns="http://www.w3.org/2000/svg">
<rect width="1363" height="167" rx="15" fill="#F0F0F0"/>
<path d="M0 15C0 6.71573 6.71573 0 15 0H37V167H15C6.71573 167 0 160.284 0 152V15Z" fill="#424241"/>
<path d="M100.906 54.9219L93.3945 52.2383V49.0859L103.602 53.375V55.6367L100.906 54.9219ZM93.3945 57.1719L100.918 54.4297L103.602 53.7852V56.0352L93.3945 60.3242V57.1719ZM123.348 59.2578V62H114.266V59.2578H123.348ZM115.414 44.9375V62H111.898V44.9375H115.414ZM122.164 51.8867V54.5586H114.266V51.8867H122.164ZM123.336 44.9375V47.6914H114.266V44.9375H123.336ZM127.906 49.3203L130.004 53.1758L132.16 49.3203H135.758L132.172 55.5195L135.922 62H132.312L130.027 57.9219L127.742 62H124.133L127.883 55.5195L124.297 49.3203H127.906ZM140.773 51.7578V66.875H137.398V49.3203H140.527L140.773 51.7578ZM148.801 55.5195V55.7656C148.801 56.6875 148.691 57.543 148.473 58.332C148.262 59.1211 147.949 59.8086 147.535 60.3945C147.121 60.9727 146.605 61.4258 145.988 61.7539C145.379 62.0742 144.676 62.2344 143.879 62.2344C143.105 62.2344 142.434 62.0781 141.863 61.7656C141.293 61.4531 140.812 61.0156 140.422 60.4531C140.039 59.8828 139.73 59.2227 139.496 58.4727C139.262 57.7227 139.082 56.918 138.957 56.0586V55.4141C139.082 54.4922 139.262 53.6484 139.496 52.8828C139.73 52.1094 140.039 51.4414 140.422 50.8789C140.812 50.3086 141.289 49.8672 141.852 49.5547C142.422 49.2422 143.09 49.0859 143.855 49.0859C144.66 49.0859 145.367 49.2383 145.977 49.543C146.594 49.8477 147.109 50.2852 147.523 50.8555C147.945 51.4258 148.262 52.1055 148.473 52.8945C148.691 53.6836 148.801 54.5586 148.801 55.5195ZM145.414 55.7656V55.5195C145.414 54.9805 145.367 54.4844 145.273 54.0312C145.188 53.5703 145.047 53.168 144.852 52.8242C144.664 52.4805 144.414 52.2148 144.102 52.0273C143.797 51.832 143.426 51.7344 142.988 51.7344C142.527 51.7344 142.133 51.8086 141.805 51.957C141.484 52.1055 141.223 52.3203 141.02 52.6016C140.816 52.8828 140.664 53.2188 140.562 53.6094C140.461 54 140.398 54.4414 140.375 54.9336V56.5625C140.414 57.1406 140.523 57.6602 140.703 58.1211C140.883 58.5742 141.16 58.9336 141.535 59.1992C141.91 59.4648 142.402 59.5977 143.012 59.5977C143.457 59.5977 143.832 59.5 144.137 59.3047C144.441 59.1016 144.688 58.8242 144.875 58.4727C145.07 58.1211 145.207 57.7148 145.285 57.2539C145.371 56.793 145.414 56.2969 145.414 55.7656ZM161 56.3398H164.504C164.434 57.4883 164.117 58.5078 163.555 59.3984C163 60.2891 162.223 60.9844 161.223 61.4844C160.23 61.9844 159.035 62.2344 157.637 62.2344C156.543 62.2344 155.562 62.0469 154.695 61.6719C153.828 61.2891 153.086 60.7422 152.469 60.0312C151.859 59.3203 151.395 58.4609 151.074 57.4531C150.754 56.4453 150.594 55.3164 150.594 54.0664V52.8828C150.594 51.6328 150.758 50.5039 151.086 49.4961C151.422 48.4805 151.898 47.6172 152.516 46.9062C153.141 46.1953 153.887 45.6484 154.754 45.2656C155.621 44.8828 156.59 44.6914 157.66 44.6914C159.082 44.6914 160.281 44.9492 161.258 45.4648C162.242 45.9805 163.004 46.6914 163.543 47.5977C164.09 48.5039 164.418 49.5352 164.527 50.6914H161.012C160.973 50.0039 160.836 49.4219 160.602 48.9453C160.367 48.4609 160.012 48.0977 159.535 47.8555C159.066 47.6055 158.441 47.4805 157.66 47.4805C157.074 47.4805 156.562 47.5898 156.125 47.8086C155.688 48.0273 155.32 48.3594 155.023 48.8047C154.727 49.25 154.504 49.8125 154.355 50.4922C154.215 51.1641 154.145 51.9531 154.145 52.8594V54.0664C154.145 54.9492 154.211 55.7266 154.344 56.3984C154.477 57.0625 154.68 57.625 154.953 58.0859C155.234 58.5391 155.594 58.8828 156.031 59.1172C156.477 59.3438 157.012 59.457 157.637 59.457C158.371 59.457 158.977 59.3398 159.453 59.1055C159.93 58.8711 160.293 58.5234 160.543 58.0625C160.801 57.6016 160.953 57.0273 161 56.3398ZM169.895 44V62H166.52V44H169.895ZM169.414 55.2148H168.488C168.496 54.332 168.613 53.5195 168.84 52.7773C169.066 52.0273 169.391 51.3789 169.812 50.832C170.234 50.2773 170.738 49.8477 171.324 49.543C171.918 49.2383 172.574 49.0859 173.293 49.0859C173.918 49.0859 174.484 49.1758 174.992 49.3555C175.508 49.5273 175.949 49.8086 176.316 50.1992C176.691 50.582 176.98 51.0859 177.184 51.7109C177.387 52.3359 177.488 53.0938 177.488 53.9844V62H174.09V53.9609C174.09 53.3984 174.008 52.957 173.844 52.6367C173.688 52.3086 173.457 52.0781 173.152 51.9453C172.855 51.8047 172.488 51.7344 172.051 51.7344C171.566 51.7344 171.152 51.8242 170.809 52.0039C170.473 52.1836 170.203 52.4336 170 52.7539C169.797 53.0664 169.648 53.4336 169.555 53.8555C169.461 54.2773 169.414 54.7305 169.414 55.2148ZM186.898 59.1406V53.4922C186.898 53.0859 186.832 52.7383 186.699 52.4492C186.566 52.1523 186.359 51.9219 186.078 51.7578C185.805 51.5938 185.449 51.5117 185.012 51.5117C184.637 51.5117 184.312 51.5781 184.039 51.7109C183.766 51.8359 183.555 52.0195 183.406 52.2617C183.258 52.4961 183.184 52.7734 183.184 53.0938H179.809C179.809 52.5547 179.934 52.043 180.184 51.5586C180.434 51.0742 180.797 50.6484 181.273 50.2812C181.75 49.9062 182.316 49.6133 182.973 49.4023C183.637 49.1914 184.379 49.0859 185.199 49.0859C186.184 49.0859 187.059 49.25 187.824 49.5781C188.59 49.9062 189.191 50.3984 189.629 51.0547C190.074 51.7109 190.297 52.5312 190.297 53.5156V58.9414C190.297 59.6367 190.34 60.207 190.426 60.6523C190.512 61.0898 190.637 61.4727 190.801 61.8008V62H187.391C187.227 61.6562 187.102 61.2266 187.016 60.7109C186.938 60.1875 186.898 59.6641 186.898 59.1406ZM187.344 54.2773L187.367 56.1875H185.48C185.035 56.1875 184.648 56.2383 184.32 56.3398C183.992 56.4414 183.723 56.5859 183.512 56.7734C183.301 56.9531 183.145 57.1641 183.043 57.4062C182.949 57.6484 182.902 57.9141 182.902 58.2031C182.902 58.4922 182.969 58.7539 183.102 58.9883C183.234 59.2148 183.426 59.3945 183.676 59.5273C183.926 59.6523 184.219 59.7148 184.555 59.7148C185.062 59.7148 185.504 59.6133 185.879 59.4102C186.254 59.207 186.543 58.957 186.746 58.6602C186.957 58.3633 187.066 58.082 187.074 57.8164L187.965 59.2461C187.84 59.5664 187.668 59.8984 187.449 60.2422C187.238 60.5859 186.969 60.9102 186.641 61.2148C186.312 61.5117 185.918 61.7578 185.457 61.9531C184.996 62.1406 184.449 62.2344 183.816 62.2344C183.012 62.2344 182.281 62.0742 181.625 61.7539C180.977 61.4258 180.461 60.9766 180.078 60.4062C179.703 59.8281 179.516 59.1719 179.516 58.4375C179.516 57.7734 179.641 57.1836 179.891 56.668C180.141 56.1523 180.508 55.7188 180.992 55.3672C181.484 55.0078 182.098 54.7383 182.832 54.5586C183.566 54.3711 184.418 54.2773 185.387 54.2773H187.344ZM196.203 52.0273V62H192.828V49.3203H195.992L196.203 52.0273ZM195.711 55.2148H194.797C194.797 54.2773 194.918 53.4336 195.16 52.6836C195.402 51.9258 195.742 51.2812 196.18 50.75C196.617 50.2109 197.137 49.8008 197.738 49.5195C198.348 49.2305 199.027 49.0859 199.777 49.0859C200.371 49.0859 200.914 49.1719 201.406 49.3438C201.898 49.5156 202.32 49.7891 202.672 50.1641C203.031 50.5391 203.305 51.0352 203.492 51.6523C203.688 52.2695 203.785 53.0234 203.785 53.9141V62H200.387V53.9023C200.387 53.3398 200.309 52.9023 200.152 52.5898C199.996 52.2773 199.766 52.0586 199.461 51.9336C199.164 51.8008 198.797 51.7344 198.359 51.7344C197.906 51.7344 197.512 51.8242 197.176 52.0039C196.848 52.1836 196.574 52.4336 196.355 52.7539C196.145 53.0664 195.984 53.4336 195.875 53.8555C195.766 54.2773 195.711 54.7305 195.711 55.2148ZM214.379 49.3203H217.438V61.5781C217.438 62.7344 217.18 63.7148 216.664 64.5195C216.156 65.332 215.445 65.9453 214.531 66.3594C213.617 66.7812 212.555 66.9922 211.344 66.9922C210.812 66.9922 210.25 66.9219 209.656 66.7812C209.07 66.6406 208.508 66.4219 207.969 66.125C207.438 65.8281 206.992 65.4531 206.633 65L208.121 63.0078C208.512 63.4609 208.965 63.8125 209.48 64.0625C209.996 64.3203 210.566 64.4492 211.191 64.4492C211.801 64.4492 212.316 64.3359 212.738 64.1094C213.16 63.8906 213.484 63.5664 213.711 63.1367C213.938 62.7148 214.051 62.2031 214.051 61.6016V52.25L214.379 49.3203ZM205.848 55.8125V55.5664C205.848 54.5977 205.965 53.7188 206.199 52.9297C206.441 52.1328 206.781 51.4492 207.219 50.8789C207.664 50.3086 208.203 49.8672 208.836 49.5547C209.469 49.2422 210.184 49.0859 210.98 49.0859C211.824 49.0859 212.531 49.2422 213.102 49.5547C213.672 49.8672 214.141 50.3125 214.508 50.8906C214.875 51.4609 215.16 52.1367 215.363 52.918C215.574 53.6914 215.738 54.5391 215.855 55.4609V56C215.738 56.8828 215.562 57.7031 215.328 58.4609C215.094 59.2188 214.785 59.8828 214.402 60.4531C214.02 61.0156 213.543 61.4531 212.973 61.7656C212.41 62.0781 211.738 62.2344 210.957 62.2344C210.176 62.2344 209.469 62.0742 208.836 61.7539C208.211 61.4336 207.676 60.9844 207.23 60.4062C206.785 59.8281 206.441 59.1484 206.199 58.3672C205.965 57.5859 205.848 56.7344 205.848 55.8125ZM209.223 55.5664V55.8125C209.223 56.3359 209.273 56.8242 209.375 57.2773C209.477 57.7305 209.633 58.1328 209.844 58.4844C210.062 58.8281 210.332 59.0977 210.652 59.293C210.98 59.4805 211.367 59.5742 211.812 59.5742C212.43 59.5742 212.934 59.4453 213.324 59.1875C213.715 58.9219 214.008 58.5586 214.203 58.0977C214.398 57.6367 214.512 57.1055 214.543 56.5039V54.9688C214.527 54.4766 214.461 54.0352 214.344 53.6445C214.227 53.2461 214.062 52.9062 213.852 52.625C213.641 52.3438 213.367 52.125 213.031 51.9688C212.695 51.8125 212.297 51.7344 211.836 51.7344C211.391 51.7344 211.004 51.8359 210.676 52.0391C210.355 52.2344 210.086 52.5039 209.867 52.8477C209.656 53.1914 209.496 53.5977 209.387 54.0664C209.277 54.5273 209.223 55.0273 209.223 55.5664ZM225.898 62.2344C224.914 62.2344 224.031 62.0781 223.25 61.7656C222.469 61.4453 221.805 61.0039 221.258 60.4414C220.719 59.8789 220.305 59.2266 220.016 58.4844C219.727 57.7344 219.582 56.9375 219.582 56.0938V55.625C219.582 54.6641 219.719 53.7852 219.992 52.9883C220.266 52.1914 220.656 51.5 221.164 50.9141C221.68 50.3281 222.305 49.8789 223.039 49.5664C223.773 49.2461 224.602 49.0859 225.523 49.0859C226.422 49.0859 227.219 49.2344 227.914 49.5312C228.609 49.8281 229.191 50.25 229.66 50.7969C230.137 51.3438 230.496 52 230.738 52.7656C230.98 53.5234 231.102 54.3672 231.102 55.2969V56.7031H221.023V54.4531H227.785V54.1953C227.785 53.7266 227.699 53.3086 227.527 52.9414C227.363 52.5664 227.113 52.2695 226.777 52.0508C226.441 51.832 226.012 51.7227 225.488 51.7227C225.043 51.7227 224.66 51.8203 224.34 52.0156C224.02 52.2109 223.758 52.4844 223.555 52.8359C223.359 53.1875 223.211 53.6016 223.109 54.0781C223.016 54.5469 222.969 55.0625 222.969 55.625V56.0938C222.969 56.6016 223.039 57.0703 223.18 57.5C223.328 57.9297 223.535 58.3008 223.801 58.6133C224.074 58.9258 224.402 59.168 224.785 59.3398C225.176 59.5117 225.617 59.5977 226.109 59.5977C226.719 59.5977 227.285 59.4805 227.809 59.2461C228.34 59.0039 228.797 58.6406 229.18 58.1562L230.82 59.9375C230.555 60.3203 230.191 60.6875 229.73 61.0391C229.277 61.3906 228.73 61.6797 228.09 61.9062C227.449 62.125 226.719 62.2344 225.898 62.2344Z" fill="#888888"/>
<path d="M102.635 86.0078V118H94.9443V86.0078H102.635ZM115.181 99.2573V118H107.776V94.2256H114.72L115.181 99.2573ZM114.28 105.3L112.588 105.344C112.588 103.674 112.786 102.136 113.182 100.729C113.577 99.3232 114.163 98.1001 114.939 97.0601C115.716 96.02 116.668 95.2144 117.796 94.6431C118.938 94.0718 120.257 93.7861 121.751 93.7861C122.791 93.7861 123.736 93.9473 124.585 94.2695C125.435 94.5771 126.167 95.0679 126.783 95.7417C127.398 96.4009 127.867 97.2651 128.189 98.3345C128.526 99.3892 128.694 100.656 128.694 102.136V118H121.29V103.081C121.29 102.07 121.172 101.308 120.938 100.795C120.718 100.283 120.396 99.9385 119.971 99.7627C119.546 99.5869 119.026 99.499 118.411 99.499C117.767 99.499 117.188 99.6455 116.675 99.9385C116.163 100.231 115.723 100.642 115.357 101.169C115.005 101.682 114.734 102.29 114.544 102.993C114.368 103.696 114.28 104.465 114.28 105.3ZM127.859 105.3L125.794 105.344C125.794 103.674 125.977 102.136 126.343 100.729C126.724 99.3232 127.288 98.1001 128.035 97.0601C128.797 96.02 129.742 95.2144 130.87 94.6431C131.998 94.0718 133.309 93.7861 134.803 93.7861C135.887 93.7861 136.883 93.9473 137.791 94.2695C138.699 94.5918 139.483 95.1118 140.142 95.8296C140.801 96.5474 141.314 97.4995 141.68 98.686C142.046 99.8579 142.229 101.308 142.229 103.037V118H134.803V103.037C134.803 102.055 134.686 101.315 134.451 100.817C134.231 100.305 133.909 99.9604 133.484 99.7847C133.06 99.5942 132.554 99.499 131.968 99.499C131.265 99.499 130.657 99.6455 130.145 99.9385C129.632 100.231 129.2 100.642 128.848 101.169C128.511 101.682 128.262 102.29 128.101 102.993C127.94 103.696 127.859 104.465 127.859 105.3ZM153.941 98.7959V127.141H146.536V94.2256H153.436L153.941 98.7959ZM168.531 105.827V106.289C168.531 108.017 168.333 109.621 167.938 111.101C167.542 112.58 166.956 113.869 166.18 114.968C165.403 116.066 164.437 116.923 163.279 117.539C162.137 118.139 160.811 118.439 159.302 118.439C157.881 118.439 156.658 118.125 155.633 117.495C154.607 116.865 153.75 115.993 153.062 114.88C152.374 113.767 151.817 112.492 151.392 111.057C150.967 109.621 150.63 108.105 150.381 106.508V105.915C150.63 104.201 150.967 102.612 151.392 101.147C151.817 99.6675 152.374 98.3784 153.062 97.2798C153.75 96.1812 154.6 95.3242 155.611 94.709C156.636 94.0938 157.859 93.7861 159.28 93.7861C160.789 93.7861 162.115 94.0718 163.257 94.6431C164.415 95.2144 165.381 96.0347 166.158 97.104C166.949 98.1587 167.542 99.4258 167.938 100.905C168.333 102.385 168.531 104.025 168.531 105.827ZM161.126 106.289V105.827C161.126 104.904 161.06 104.062 160.928 103.3C160.796 102.524 160.584 101.85 160.291 101.279C160.013 100.708 159.639 100.268 159.17 99.9604C158.702 99.6528 158.123 99.499 157.435 99.499C156.644 99.499 155.977 99.6235 155.435 99.8726C154.908 100.107 154.483 100.473 154.161 100.971C153.853 101.455 153.633 102.062 153.501 102.795C153.384 103.513 153.333 104.355 153.348 105.322V107.124C153.318 108.237 153.428 109.218 153.677 110.068C153.926 110.903 154.358 111.555 154.974 112.023C155.589 112.492 156.424 112.727 157.479 112.727C158.182 112.727 158.768 112.565 159.236 112.243C159.705 111.906 160.079 111.445 160.357 110.859C160.635 110.258 160.833 109.57 160.95 108.793C161.067 108.017 161.126 107.182 161.126 106.289ZM179.649 84.25V118H172.222V84.25H179.649ZM195.733 118.439C193.799 118.439 192.071 118.139 190.547 117.539C189.024 116.923 187.735 116.081 186.68 115.012C185.64 113.942 184.842 112.712 184.285 111.32C183.743 109.929 183.472 108.457 183.472 106.904V106.069C183.472 104.326 183.714 102.714 184.197 101.235C184.681 99.7407 185.398 98.437 186.351 97.3237C187.303 96.2104 188.497 95.3462 189.932 94.731C191.368 94.1011 193.038 93.7861 194.942 93.7861C196.626 93.7861 198.135 94.0571 199.468 94.5991C200.801 95.1411 201.929 95.9175 202.852 96.9282C203.79 97.939 204.5 99.1621 204.983 100.598C205.481 102.033 205.73 103.645 205.73 105.432V108.442H186.307V103.806H198.501V103.234C198.516 102.443 198.377 101.77 198.084 101.213C197.806 100.656 197.396 100.231 196.854 99.9385C196.312 99.6455 195.652 99.499 194.876 99.499C194.07 99.499 193.404 99.6748 192.876 100.026C192.364 100.378 191.961 100.861 191.668 101.477C191.39 102.077 191.192 102.773 191.075 103.564C190.958 104.355 190.899 105.19 190.899 106.069V106.904C190.899 107.783 191.016 108.581 191.25 109.299C191.5 110.017 191.851 110.632 192.305 111.145C192.774 111.643 193.331 112.031 193.975 112.309C194.634 112.587 195.381 112.727 196.216 112.727C197.227 112.727 198.223 112.536 199.205 112.155C200.186 111.774 201.028 111.145 201.731 110.266L205.093 114.265C204.61 114.953 203.921 115.62 203.028 116.264C202.149 116.909 201.094 117.436 199.864 117.846C198.633 118.242 197.256 118.439 195.733 118.439ZM216.211 99.2573V118H208.807V94.2256H215.75L216.211 99.2573ZM215.311 105.3L213.619 105.344C213.619 103.674 213.816 102.136 214.212 100.729C214.607 99.3232 215.193 98.1001 215.97 97.0601C216.746 96.02 217.698 95.2144 218.826 94.6431C219.969 94.0718 221.287 93.7861 222.781 93.7861C223.821 93.7861 224.766 93.9473 225.616 94.2695C226.465 94.5771 227.198 95.0679 227.813 95.7417C228.428 96.4009 228.897 97.2651 229.219 98.3345C229.556 99.3892 229.725 100.656 229.725 102.136V118H222.32V103.081C222.32 102.07 222.203 101.308 221.968 100.795C221.749 100.283 221.426 99.9385 221.001 99.7627C220.577 99.5869 220.057 99.499 219.441 99.499C218.797 99.499 218.218 99.6455 217.706 99.9385C217.193 100.231 216.753 100.642 216.387 101.169C216.036 101.682 215.765 102.29 215.574 102.993C215.398 103.696 215.311 104.465 215.311 105.3ZM228.89 105.3L226.824 105.344C226.824 103.674 227.007 102.136 227.374 100.729C227.754 99.3232 228.318 98.1001 229.065 97.0601C229.827 96.02 230.772 95.2144 231.9 94.6431C233.028 94.0718 234.339 93.7861 235.833 93.7861C236.917 93.7861 237.913 93.9473 238.821 94.2695C239.729 94.5918 240.513 95.1118 241.172 95.8296C241.832 96.5474 242.344 97.4995 242.71 98.686C243.077 99.8579 243.26 101.308 243.26 103.037V118H235.833V103.037C235.833 102.055 235.716 101.315 235.481 100.817C235.262 100.305 234.939 99.9604 234.515 99.7847C234.09 99.5942 233.584 99.499 232.999 99.499C232.295 99.499 231.688 99.6455 231.175 99.9385C230.662 100.231 230.23 100.642 229.878 101.169C229.542 101.682 229.292 102.29 229.131 102.993C228.97 103.696 228.89 104.465 228.89 105.3ZM259.014 118.439C257.081 118.439 255.352 118.139 253.829 117.539C252.305 116.923 251.016 116.081 249.961 115.012C248.921 113.942 248.123 112.712 247.566 111.32C247.024 109.929 246.753 108.457 246.753 106.904V106.069C246.753 104.326 246.995 102.714 247.479 101.235C247.962 99.7407 248.68 98.437 249.632 97.3237C250.584 96.2104 251.778 95.3462 253.213 94.731C254.649 94.1011 256.319 93.7861 258.223 93.7861C259.908 93.7861 261.417 94.0571 262.75 94.5991C264.083 95.1411 265.21 95.9175 266.133 96.9282C267.071 97.939 267.781 99.1621 268.265 100.598C268.763 102.033 269.012 103.645 269.012 105.432V108.442H249.588V103.806H261.783V103.234C261.797 102.443 261.658 101.77 261.365 101.213C261.087 100.656 260.677 100.231 260.135 99.9385C259.593 99.6455 258.934 99.499 258.157 99.499C257.352 99.499 256.685 99.6748 256.158 100.026C255.645 100.378 255.242 100.861 254.949 101.477C254.671 102.077 254.473 102.773 254.356 103.564C254.239 104.355 254.18 105.19 254.18 106.069V106.904C254.18 107.783 254.297 108.581 254.532 109.299C254.781 110.017 255.132 110.632 255.586 111.145C256.055 111.643 256.612 112.031 257.256 112.309C257.916 112.587 258.663 112.727 259.498 112.727C260.508 112.727 261.504 112.536 262.486 112.155C263.467 111.774 264.31 111.145 265.013 110.266L268.375 114.265C267.891 114.953 267.203 115.62 266.309 116.264C265.43 116.909 264.375 117.436 263.145 117.846C261.915 118.242 260.538 118.439 259.014 118.439ZM279.295 99.3013V118H271.89V94.2256H278.833L279.295 99.3013ZM278.416 105.3L276.68 105.344C276.68 103.527 276.9 101.909 277.339 100.488C277.779 99.0522 278.401 97.8364 279.207 96.8403C280.013 95.8442 280.972 95.0898 282.085 94.5771C283.213 94.0498 284.466 93.7861 285.843 93.7861C286.941 93.7861 287.945 93.9473 288.853 94.2695C289.776 94.5918 290.567 95.1118 291.226 95.8296C291.9 96.5474 292.413 97.4995 292.764 98.686C293.13 99.8579 293.313 101.308 293.313 103.037V118H285.865V103.015C285.865 102.062 285.733 101.337 285.469 100.839C285.206 100.327 284.825 99.9751 284.327 99.7847C283.829 99.5942 283.221 99.499 282.503 99.499C281.741 99.499 281.097 99.6455 280.569 99.9385C280.042 100.231 279.617 100.642 279.295 101.169C278.987 101.682 278.76 102.29 278.614 102.993C278.482 103.696 278.416 104.465 278.416 105.3ZM309.947 94.2256V99.3672H295.621V94.2256H309.947ZM298.631 88.3149H306.036V110.244C306.036 110.874 306.109 111.364 306.255 111.716C306.402 112.053 306.651 112.294 307.002 112.441C307.369 112.573 307.852 112.639 308.453 112.639C308.877 112.639 309.229 112.631 309.507 112.617C309.786 112.587 310.049 112.551 310.298 112.507V117.802C309.668 118.007 309.009 118.161 308.321 118.264C307.632 118.381 306.9 118.439 306.124 118.439C304.542 118.439 303.187 118.19 302.059 117.692C300.945 117.194 300.096 116.411 299.51 115.341C298.924 114.272 298.631 112.88 298.631 111.167V88.3149ZM325.24 112.023V102.224C325.24 101.55 325.145 100.971 324.954 100.488C324.764 100.004 324.463 99.6309 324.053 99.3672C323.643 99.0889 323.094 98.9497 322.405 98.9497C321.849 98.9497 321.373 99.0449 320.977 99.2354C320.582 99.4258 320.281 99.7114 320.076 100.092C319.871 100.473 319.769 100.957 319.769 101.542H312.364C312.364 100.444 312.605 99.4258 313.089 98.4883C313.587 97.5361 314.29 96.7085 315.198 96.0054C316.121 95.3022 317.22 94.7603 318.494 94.3794C319.783 93.9839 321.219 93.7861 322.801 93.7861C324.69 93.7861 326.375 94.1011 327.854 94.731C329.349 95.3608 330.528 96.3057 331.392 97.5654C332.256 98.8105 332.688 100.378 332.688 102.268V112.001C332.688 113.554 332.776 114.733 332.952 115.539C333.128 116.33 333.377 117.026 333.699 117.626V118H326.272C325.921 117.268 325.657 116.374 325.481 115.319C325.32 114.25 325.24 113.151 325.24 112.023ZM326.141 103.476L326.185 107.431H322.911C322.222 107.431 321.636 107.526 321.153 107.717C320.684 107.907 320.303 108.171 320.01 108.508C319.732 108.83 319.527 109.196 319.395 109.606C319.278 110.017 319.219 110.449 319.219 110.903C319.219 111.342 319.322 111.738 319.527 112.089C319.747 112.426 320.04 112.69 320.406 112.88C320.772 113.071 321.182 113.166 321.636 113.166C322.457 113.166 323.152 113.012 323.724 112.705C324.31 112.382 324.756 111.994 325.064 111.54C325.372 111.086 325.525 110.661 325.525 110.266L327.151 113.298C326.858 113.884 326.521 114.477 326.141 115.078C325.774 115.678 325.313 116.235 324.756 116.748C324.214 117.246 323.548 117.656 322.757 117.978C321.966 118.286 321.006 118.439 319.878 118.439C318.414 118.439 317.066 118.139 315.835 117.539C314.62 116.938 313.646 116.103 312.913 115.034C312.181 113.95 311.814 112.705 311.814 111.298C311.814 110.068 312.034 108.969 312.474 108.002C312.928 107.036 313.609 106.215 314.517 105.542C315.425 104.868 316.583 104.355 317.989 104.003C319.395 103.652 321.05 103.476 322.955 103.476H326.141ZM349.322 94.2256V99.3672H334.996V94.2256H349.322ZM338.006 88.3149H345.411V110.244C345.411 110.874 345.484 111.364 345.63 111.716C345.777 112.053 346.026 112.294 346.377 112.441C346.744 112.573 347.227 112.639 347.828 112.639C348.252 112.639 348.604 112.631 348.882 112.617C349.161 112.587 349.424 112.551 349.673 112.507V117.802C349.043 118.007 348.384 118.161 347.696 118.264C347.007 118.381 346.275 118.439 345.499 118.439C343.917 118.439 342.562 118.19 341.434 117.692C340.32 117.194 339.471 116.411 338.885 115.341C338.299 114.272 338.006 112.88 338.006 111.167V88.3149ZM360.088 94.2256V118H352.662V94.2256H360.088ZM352.222 88.0952C352.222 87.0405 352.603 86.1763 353.365 85.5024C354.126 84.8286 355.115 84.4917 356.331 84.4917C357.547 84.4917 358.536 84.8286 359.297 85.5024C360.059 86.1763 360.44 87.0405 360.44 88.0952C360.44 89.1499 360.059 90.0142 359.297 90.688C358.536 91.3618 357.547 91.6987 356.331 91.6987C355.115 91.6987 354.126 91.3618 353.365 90.688C352.603 90.0142 352.222 89.1499 352.222 88.0952ZM363.736 106.354V105.893C363.736 104.15 363.985 102.546 364.483 101.081C364.981 99.6016 365.713 98.3198 366.68 97.2358C367.647 96.1519 368.841 95.3096 370.262 94.709C371.683 94.0938 373.323 93.7861 375.184 93.7861C377.059 93.7861 378.707 94.0938 380.127 94.709C381.563 95.3096 382.764 96.1519 383.731 97.2358C384.698 98.3198 385.43 99.6016 385.928 101.081C386.426 102.546 386.675 104.15 386.675 105.893V106.354C386.675 108.083 386.426 109.687 385.928 111.167C385.43 112.631 384.698 113.913 383.731 115.012C382.764 116.096 381.57 116.938 380.149 117.539C378.729 118.139 377.088 118.439 375.228 118.439C373.367 118.439 371.719 118.139 370.284 117.539C368.848 116.938 367.647 116.096 366.68 115.012C365.713 113.913 364.981 112.631 364.483 111.167C363.985 109.687 363.736 108.083 363.736 106.354ZM371.141 105.893V106.354C371.141 107.248 371.207 108.083 371.338 108.859C371.47 109.636 371.69 110.317 371.998 110.903C372.305 111.474 372.723 111.921 373.25 112.243C373.777 112.565 374.437 112.727 375.228 112.727C376.004 112.727 376.648 112.565 377.161 112.243C377.688 111.921 378.106 111.474 378.414 110.903C378.721 110.317 378.941 109.636 379.073 108.859C379.205 108.083 379.271 107.248 379.271 106.354V105.893C379.271 105.029 379.205 104.216 379.073 103.454C378.941 102.678 378.721 101.997 378.414 101.411C378.106 100.81 377.688 100.341 377.161 100.004C376.634 99.6675 375.975 99.499 375.184 99.499C374.407 99.499 373.755 99.6675 373.228 100.004C372.715 100.341 372.305 100.81 371.998 101.411C371.69 101.997 371.47 102.678 371.338 103.454C371.207 104.216 371.141 105.029 371.141 105.893ZM397.244 99.3013V118H389.839V94.2256H396.783L397.244 99.3013ZM396.365 105.3L394.629 105.344C394.629 103.527 394.849 101.909 395.289 100.488C395.728 99.0522 396.351 97.8364 397.156 96.8403C397.962 95.8442 398.921 95.0898 400.035 94.5771C401.163 94.0498 402.415 93.7861 403.792 93.7861C404.891 93.7861 405.894 93.9473 406.802 94.2695C407.725 94.5918 408.516 95.1118 409.175 95.8296C409.849 96.5474 410.362 97.4995 410.713 98.686C411.08 99.8579 411.263 101.308 411.263 103.037V118H403.814V103.015C403.814 102.062 403.682 101.337 403.418 100.839C403.155 100.327 402.774 99.9751 402.276 99.7847C401.778 99.5942 401.17 99.499 400.452 99.499C399.69 99.499 399.046 99.6455 398.519 99.9385C397.991 100.231 397.566 100.642 397.244 101.169C396.937 101.682 396.709 102.29 396.563 102.993C396.431 103.696 396.365 104.465 396.365 105.3Z" fill="#424241"/>
<path d="M1363 15C1363 6.71573 1356.28 0 1348 0H1134V167H1348C1356.28 167 1363 160.284 1363 152V15Z" fill="#851E96"/>
<path d="M1281.5 49H1216.5L1214 51.5V116.5L1216.5 119H1281.5L1284 116.5V51.5L1281.5 49ZM1279 114H1234V104H1245.5C1247 107 1250.5 109 1254 109C1259.5 109 1264 104.5 1264 99C1264 93.5 1259.5 89 1254 89C1248.5 89 1244 93.5 1244 99H1229V114H1219V54H1229V65.5C1226 67 1224 70.5 1224 74C1224 79.5 1228.5 84 1234 84C1239.5 84 1244 79.5 1244 74H1254C1254 79.5 1258.5 84 1264 84C1269.5 84 1274 79.5 1274 74C1274 68.5 1269.5 64 1264 64C1260.5 64 1257 66 1255.5 69H1242.5C1241 66 1237.5 64 1234 64V54H1279V114ZM1249 99C1249 96 1251 94 1254 94C1257 94 1259 96 1259 99C1259 102 1257 104 1254 104C1251 104 1249 102 1249 99ZM1234 69C1237 69 1239 71 1239 74C1239 77 1237 79 1234 79C1231 79 1229 77 1229 74C1229 71 1231 69 1234 69ZM1264 69C1267 69 1269 71 1269 74C1269 77 1267 79 1264 79C1261 79 1259 77 1259 74C1259 71 1261 69 1264 69Z" fill="white"/>
</svg>
