<svg width="1363" height="167" viewBox="0 0 1363 167" fill="none" xmlns="http://www.w3.org/2000/svg">
<rect width="1363" height="167" rx="15" fill="#F0F0F0"/>
<path d="M0 15C0 6.71573 6.71573 0 15 0H37V167H15C6.71573 167 0 160.284 0 152V15Z" fill="#424241"/>
<path d="M100.906 50.9219L93.3945 48.2383V45.0859L103.602 49.375V51.6367L100.906 50.9219ZM93.3945 53.1719L100.918 50.4297L103.602 49.7852V52.0352L93.3945 56.3242V53.1719ZM123.348 55.2578V58H114.266V55.2578H123.348ZM115.414 40.9375V58H111.898V40.9375H115.414ZM122.164 47.8867V50.5586H114.266V47.8867H122.164ZM123.336 40.9375V43.6914H114.266V40.9375H123.336ZM127.906 45.3203L130.004 49.1758L132.16 45.3203H135.758L132.172 51.5195L135.922 58H132.312L130.027 53.9219L127.742 58H124.133L127.883 51.5195L124.297 45.3203H127.906ZM140.773 47.7578V62.875H137.398V45.3203H140.527L140.773 47.7578ZM148.801 51.5195V51.7656C148.801 52.6875 148.691 53.543 148.473 54.332C148.262 55.1211 147.949 55.8086 147.535 56.3945C147.121 56.9727 146.605 57.4258 145.988 57.7539C145.379 58.0742 144.676 58.2344 143.879 58.2344C143.105 58.2344 142.434 58.0781 141.863 57.7656C141.293 57.4531 140.812 57.0156 140.422 56.4531C140.039 55.8828 139.73 55.2227 139.496 54.4727C139.262 53.7227 139.082 52.918 138.957 52.0586V51.4141C139.082 50.4922 139.262 49.6484 139.496 48.8828C139.73 48.1094 140.039 47.4414 140.422 46.8789C140.812 46.3086 141.289 45.8672 141.852 45.5547C142.422 45.2422 143.09 45.0859 143.855 45.0859C144.66 45.0859 145.367 45.2383 145.977 45.543C146.594 45.8477 147.109 46.2852 147.523 46.8555C147.945 47.4258 148.262 48.1055 148.473 48.8945C148.691 49.6836 148.801 50.5586 148.801 51.5195ZM145.414 51.7656V51.5195C145.414 50.9805 145.367 50.4844 145.273 50.0312C145.188 49.5703 145.047 49.168 144.852 48.8242C144.664 48.4805 144.414 48.2148 144.102 48.0273C143.797 47.832 143.426 47.7344 142.988 47.7344C142.527 47.7344 142.133 47.8086 141.805 47.957C141.484 48.1055 141.223 48.3203 141.02 48.6016C140.816 48.8828 140.664 49.2188 140.562 49.6094C140.461 50 140.398 50.4414 140.375 50.9336V52.5625C140.414 53.1406 140.523 53.6602 140.703 54.1211C140.883 54.5742 141.16 54.9336 141.535 55.1992C141.91 55.4648 142.402 55.5977 143.012 55.5977C143.457 55.5977 143.832 55.5 144.137 55.3047C144.441 55.1016 144.688 54.8242 144.875 54.4727C145.07 54.1211 145.207 53.7148 145.285 53.2539C145.371 52.793 145.414 52.2969 145.414 51.7656ZM161 52.3398H164.504C164.434 53.4883 164.117 54.5078 163.555 55.3984C163 56.2891 162.223 56.9844 161.223 57.4844C160.23 57.9844 159.035 58.2344 157.637 58.2344C156.543 58.2344 155.562 58.0469 154.695 57.6719C153.828 57.2891 153.086 56.7422 152.469 56.0312C151.859 55.3203 151.395 54.4609 151.074 53.4531C150.754 52.4453 150.594 51.3164 150.594 50.0664V48.8828C150.594 47.6328 150.758 46.5039 151.086 45.4961C151.422 44.4805 151.898 43.6172 152.516 42.9062C153.141 42.1953 153.887 41.6484 154.754 41.2656C155.621 40.8828 156.59 40.6914 157.66 40.6914C159.082 40.6914 160.281 40.9492 161.258 41.4648C162.242 41.9805 163.004 42.6914 163.543 43.5977C164.09 44.5039 164.418 45.5352 164.527 46.6914H161.012C160.973 46.0039 160.836 45.4219 160.602 44.9453C160.367 44.4609 160.012 44.0977 159.535 43.8555C159.066 43.6055 158.441 43.4805 157.66 43.4805C157.074 43.4805 156.562 43.5898 156.125 43.8086C155.688 44.0273 155.32 44.3594 155.023 44.8047C154.727 45.25 154.504 45.8125 154.355 46.4922C154.215 47.1641 154.145 47.9531 154.145 48.8594V50.0664C154.145 50.9492 154.211 51.7266 154.344 52.3984C154.477 53.0625 154.68 53.625 154.953 54.0859C155.234 54.5391 155.594 54.8828 156.031 55.1172C156.477 55.3438 157.012 55.457 157.637 55.457C158.371 55.457 158.977 55.3398 159.453 55.1055C159.93 54.8711 160.293 54.5234 160.543 54.0625C160.801 53.6016 160.953 53.0273 161 52.3398ZM169.895 40V58H166.52V40H169.895ZM169.414 51.2148H168.488C168.496 50.332 168.613 49.5195 168.84 48.7773C169.066 48.0273 169.391 47.3789 169.812 46.832C170.234 46.2773 170.738 45.8477 171.324 45.543C171.918 45.2383 172.574 45.0859 173.293 45.0859C173.918 45.0859 174.484 45.1758 174.992 45.3555C175.508 45.5273 175.949 45.8086 176.316 46.1992C176.691 46.582 176.98 47.0859 177.184 47.7109C177.387 48.3359 177.488 49.0938 177.488 49.9844V58H174.09V49.9609C174.09 49.3984 174.008 48.957 173.844 48.6367C173.688 48.3086 173.457 48.0781 173.152 47.9453C172.855 47.8047 172.488 47.7344 172.051 47.7344C171.566 47.7344 171.152 47.8242 170.809 48.0039C170.473 48.1836 170.203 48.4336 170 48.7539C169.797 49.0664 169.648 49.4336 169.555 49.8555C169.461 50.2773 169.414 50.7305 169.414 51.2148ZM186.898 55.1406V49.4922C186.898 49.0859 186.832 48.7383 186.699 48.4492C186.566 48.1523 186.359 47.9219 186.078 47.7578C185.805 47.5938 185.449 47.5117 185.012 47.5117C184.637 47.5117 184.312 47.5781 184.039 47.7109C183.766 47.8359 183.555 48.0195 183.406 48.2617C183.258 48.4961 183.184 48.7734 183.184 49.0938H179.809C179.809 48.5547 179.934 48.043 180.184 47.5586C180.434 47.0742 180.797 46.6484 181.273 46.2812C181.75 45.9062 182.316 45.6133 182.973 45.4023C183.637 45.1914 184.379 45.0859 185.199 45.0859C186.184 45.0859 187.059 45.25 187.824 45.5781C188.59 45.9062 189.191 46.3984 189.629 47.0547C190.074 47.7109 190.297 48.5312 190.297 49.5156V54.9414C190.297 55.6367 190.34 56.207 190.426 56.6523C190.512 57.0898 190.637 57.4727 190.801 57.8008V58H187.391C187.227 57.6562 187.102 57.2266 187.016 56.7109C186.938 56.1875 186.898 55.6641 186.898 55.1406ZM187.344 50.2773L187.367 52.1875H185.48C185.035 52.1875 184.648 52.2383 184.32 52.3398C183.992 52.4414 183.723 52.5859 183.512 52.7734C183.301 52.9531 183.145 53.1641 183.043 53.4062C182.949 53.6484 182.902 53.9141 182.902 54.2031C182.902 54.4922 182.969 54.7539 183.102 54.9883C183.234 55.2148 183.426 55.3945 183.676 55.5273C183.926 55.6523 184.219 55.7148 184.555 55.7148C185.062 55.7148 185.504 55.6133 185.879 55.4102C186.254 55.207 186.543 54.957 186.746 54.6602C186.957 54.3633 187.066 54.082 187.074 53.8164L187.965 55.2461C187.84 55.5664 187.668 55.8984 187.449 56.2422C187.238 56.5859 186.969 56.9102 186.641 57.2148C186.312 57.5117 185.918 57.7578 185.457 57.9531C184.996 58.1406 184.449 58.2344 183.816 58.2344C183.012 58.2344 182.281 58.0742 181.625 57.7539C180.977 57.4258 180.461 56.9766 180.078 56.4062C179.703 55.8281 179.516 55.1719 179.516 54.4375C179.516 53.7734 179.641 53.1836 179.891 52.668C180.141 52.1523 180.508 51.7188 180.992 51.3672C181.484 51.0078 182.098 50.7383 182.832 50.5586C183.566 50.3711 184.418 50.2773 185.387 50.2773H187.344ZM196.203 48.0273V58H192.828V45.3203H195.992L196.203 48.0273ZM195.711 51.2148H194.797C194.797 50.2773 194.918 49.4336 195.16 48.6836C195.402 47.9258 195.742 47.2812 196.18 46.75C196.617 46.2109 197.137 45.8008 197.738 45.5195C198.348 45.2305 199.027 45.0859 199.777 45.0859C200.371 45.0859 200.914 45.1719 201.406 45.3438C201.898 45.5156 202.32 45.7891 202.672 46.1641C203.031 46.5391 203.305 47.0352 203.492 47.6523C203.688 48.2695 203.785 49.0234 203.785 49.9141V58H200.387V49.9023C200.387 49.3398 200.309 48.9023 200.152 48.5898C199.996 48.2773 199.766 48.0586 199.461 47.9336C199.164 47.8008 198.797 47.7344 198.359 47.7344C197.906 47.7344 197.512 47.8242 197.176 48.0039C196.848 48.1836 196.574 48.4336 196.355 48.7539C196.145 49.0664 195.984 49.4336 195.875 49.8555C195.766 50.2773 195.711 50.7305 195.711 51.2148ZM214.379 45.3203H217.438V57.5781C217.438 58.7344 217.18 59.7148 216.664 60.5195C216.156 61.332 215.445 61.9453 214.531 62.3594C213.617 62.7812 212.555 62.9922 211.344 62.9922C210.812 62.9922 210.25 62.9219 209.656 62.7812C209.07 62.6406 208.508 62.4219 207.969 62.125C207.438 61.8281 206.992 61.4531 206.633 61L208.121 59.0078C208.512 59.4609 208.965 59.8125 209.48 60.0625C209.996 60.3203 210.566 60.4492 211.191 60.4492C211.801 60.4492 212.316 60.3359 212.738 60.1094C213.16 59.8906 213.484 59.5664 213.711 59.1367C213.938 58.7148 214.051 58.2031 214.051 57.6016V48.25L214.379 45.3203ZM205.848 51.8125V51.5664C205.848 50.5977 205.965 49.7188 206.199 48.9297C206.441 48.1328 206.781 47.4492 207.219 46.8789C207.664 46.3086 208.203 45.8672 208.836 45.5547C209.469 45.2422 210.184 45.0859 210.98 45.0859C211.824 45.0859 212.531 45.2422 213.102 45.5547C213.672 45.8672 214.141 46.3125 214.508 46.8906C214.875 47.4609 215.16 48.1367 215.363 48.918C215.574 49.6914 215.738 50.5391 215.855 51.4609V52C215.738 52.8828 215.562 53.7031 215.328 54.4609C215.094 55.2188 214.785 55.8828 214.402 56.4531C214.02 57.0156 213.543 57.4531 212.973 57.7656C212.41 58.0781 211.738 58.2344 210.957 58.2344C210.176 58.2344 209.469 58.0742 208.836 57.7539C208.211 57.4336 207.676 56.9844 207.23 56.4062C206.785 55.8281 206.441 55.1484 206.199 54.3672C205.965 53.5859 205.848 52.7344 205.848 51.8125ZM209.223 51.5664V51.8125C209.223 52.3359 209.273 52.8242 209.375 53.2773C209.477 53.7305 209.633 54.1328 209.844 54.4844C210.062 54.8281 210.332 55.0977 210.652 55.293C210.98 55.4805 211.367 55.5742 211.812 55.5742C212.43 55.5742 212.934 55.4453 213.324 55.1875C213.715 54.9219 214.008 54.5586 214.203 54.0977C214.398 53.6367 214.512 53.1055 214.543 52.5039V50.9688C214.527 50.4766 214.461 50.0352 214.344 49.6445C214.227 49.2461 214.062 48.9062 213.852 48.625C213.641 48.3438 213.367 48.125 213.031 47.9688C212.695 47.8125 212.297 47.7344 211.836 47.7344C211.391 47.7344 211.004 47.8359 210.676 48.0391C210.355 48.2344 210.086 48.5039 209.867 48.8477C209.656 49.1914 209.496 49.5977 209.387 50.0664C209.277 50.5273 209.223 51.0273 209.223 51.5664ZM225.898 58.2344C224.914 58.2344 224.031 58.0781 223.25 57.7656C222.469 57.4453 221.805 57.0039 221.258 56.4414C220.719 55.8789 220.305 55.2266 220.016 54.4844C219.727 53.7344 219.582 52.9375 219.582 52.0938V51.625C219.582 50.6641 219.719 49.7852 219.992 48.9883C220.266 48.1914 220.656 47.5 221.164 46.9141C221.68 46.3281 222.305 45.8789 223.039 45.5664C223.773 45.2461 224.602 45.0859 225.523 45.0859C226.422 45.0859 227.219 45.2344 227.914 45.5312C228.609 45.8281 229.191 46.25 229.66 46.7969C230.137 47.3438 230.496 48 230.738 48.7656C230.98 49.5234 231.102 50.3672 231.102 51.2969V52.7031H221.023V50.4531H227.785V50.1953C227.785 49.7266 227.699 49.3086 227.527 48.9414C227.363 48.5664 227.113 48.2695 226.777 48.0508C226.441 47.832 226.012 47.7227 225.488 47.7227C225.043 47.7227 224.66 47.8203 224.34 48.0156C224.02 48.2109 223.758 48.4844 223.555 48.8359C223.359 49.1875 223.211 49.6016 223.109 50.0781C223.016 50.5469 222.969 51.0625 222.969 51.625V52.0938C222.969 52.6016 223.039 53.0703 223.18 53.5C223.328 53.9297 223.535 54.3008 223.801 54.6133C224.074 54.9258 224.402 55.168 224.785 55.3398C225.176 55.5117 225.617 55.5977 226.109 55.5977C226.719 55.5977 227.285 55.4805 227.809 55.2461C228.34 55.0039 228.797 54.6406 229.18 54.1562L230.82 55.9375C230.555 56.3203 230.191 56.6875 229.73 57.0391C229.277 57.3906 228.73 57.6797 228.09 57.9062C227.449 58.125 226.719 58.2344 225.898 58.2344Z" fill="#888888"/>
<path d="M107.205 107.146H99.251V101.191H107.205C108.289 101.191 109.168 101.008 109.842 100.642C110.516 100.275 111.006 99.77 111.314 99.1255C111.636 98.4663 111.797 97.7266 111.797 96.9062C111.797 96.0273 111.636 95.2144 111.314 94.4673C111.006 93.7202 110.516 93.1196 109.842 92.6655C109.168 92.1968 108.289 91.9624 107.205 91.9624H102.151V118H94.439V86.0078H107.205C109.769 86.0078 111.973 86.4766 113.819 87.4141C115.679 88.3516 117.107 89.6406 118.104 91.2812C119.1 92.9072 119.598 94.7676 119.598 96.8623C119.598 98.9277 119.1 100.729 118.104 102.268C117.107 103.806 115.679 105.007 113.819 105.871C111.973 106.721 109.769 107.146 107.205 107.146ZM130.87 100.114V118H123.465V94.2256H130.386L130.87 100.114ZM137.901 94.0498L137.769 100.927C137.476 100.898 137.081 100.861 136.583 100.817C136.084 100.773 135.667 100.751 135.33 100.751C134.466 100.751 133.719 100.854 133.089 101.059C132.474 101.25 131.961 101.542 131.551 101.938C131.155 102.319 130.862 102.802 130.672 103.388C130.496 103.974 130.416 104.655 130.43 105.432L129.09 104.553C129.09 102.956 129.244 101.506 129.551 100.202C129.874 98.8838 130.328 97.7485 130.914 96.7964C131.5 95.8296 132.21 95.0898 133.045 94.5771C133.88 94.0498 134.817 93.7861 135.857 93.7861C136.224 93.7861 136.583 93.8081 136.934 93.8521C137.3 93.896 137.623 93.9619 137.901 94.0498ZM138.736 106.354V105.893C138.736 104.15 138.985 102.546 139.483 101.081C139.981 99.6016 140.713 98.3198 141.68 97.2358C142.647 96.1519 143.841 95.3096 145.262 94.709C146.683 94.0938 148.323 93.7861 150.184 93.7861C152.059 93.7861 153.707 94.0938 155.127 94.709C156.563 95.3096 157.764 96.1519 158.731 97.2358C159.698 98.3198 160.43 99.6016 160.928 101.081C161.426 102.546 161.675 104.15 161.675 105.893V106.354C161.675 108.083 161.426 109.687 160.928 111.167C160.43 112.631 159.698 113.913 158.731 115.012C157.764 116.096 156.57 116.938 155.149 117.539C153.729 118.139 152.088 118.439 150.228 118.439C148.367 118.439 146.719 118.139 145.284 117.539C143.848 116.938 142.647 116.096 141.68 115.012C140.713 113.913 139.981 112.631 139.483 111.167C138.985 109.687 138.736 108.083 138.736 106.354ZM146.141 105.893V106.354C146.141 107.248 146.207 108.083 146.338 108.859C146.47 109.636 146.69 110.317 146.998 110.903C147.305 111.474 147.723 111.921 148.25 112.243C148.777 112.565 149.437 112.727 150.228 112.727C151.004 112.727 151.648 112.565 152.161 112.243C152.688 111.921 153.106 111.474 153.414 110.903C153.721 110.317 153.941 109.636 154.073 108.859C154.205 108.083 154.271 107.248 154.271 106.354V105.893C154.271 105.029 154.205 104.216 154.073 103.454C153.941 102.678 153.721 101.997 153.414 101.411C153.106 100.81 152.688 100.341 152.161 100.004C151.634 99.6675 150.975 99.499 150.184 99.499C149.407 99.499 148.755 99.6675 148.228 100.004C147.715 100.341 147.305 100.81 146.998 101.411C146.69 101.997 146.47 102.678 146.338 103.454C146.207 104.216 146.141 105.029 146.141 105.893ZM165.521 94.2256H172.947V118.769C172.947 120.673 172.581 122.277 171.849 123.581C171.116 124.899 170.069 125.896 168.707 126.569C167.344 127.258 165.718 127.602 163.829 127.602C163.199 127.602 162.62 127.573 162.093 127.514C161.551 127.47 160.958 127.375 160.313 127.229V121.625C160.694 121.684 161.045 121.728 161.368 121.757C161.69 121.801 162.042 121.823 162.422 121.823C163.096 121.823 163.66 121.713 164.114 121.494C164.568 121.274 164.913 120.937 165.147 120.483C165.396 120.029 165.521 119.458 165.521 118.769V94.2256ZM164.971 88.0952C164.971 87.0405 165.352 86.1763 166.114 85.5024C166.875 84.8286 167.864 84.4917 169.08 84.4917C170.296 84.4917 171.285 84.8286 172.046 85.5024C172.808 86.1763 173.189 87.0405 173.189 88.0952C173.189 89.1499 172.808 90.0142 172.046 90.688C171.285 91.3618 170.296 91.6987 169.08 91.6987C167.864 91.6987 166.875 91.3618 166.114 90.688C165.352 90.0142 164.971 89.1499 164.971 88.0952ZM188.658 118.439C186.724 118.439 184.996 118.139 183.472 117.539C181.949 116.923 180.66 116.081 179.605 115.012C178.565 113.942 177.767 112.712 177.21 111.32C176.668 109.929 176.397 108.457 176.397 106.904V106.069C176.397 104.326 176.639 102.714 177.122 101.235C177.605 99.7407 178.323 98.437 179.275 97.3237C180.228 96.2104 181.421 95.3462 182.857 94.731C184.292 94.1011 185.962 93.7861 187.867 93.7861C189.551 93.7861 191.06 94.0571 192.393 94.5991C193.726 95.1411 194.854 95.9175 195.777 96.9282C196.714 97.939 197.425 99.1621 197.908 100.598C198.406 102.033 198.655 103.645 198.655 105.432V108.442H179.231V103.806H191.426V103.234C191.441 102.443 191.302 101.77 191.009 101.213C190.73 100.656 190.32 100.231 189.778 99.9385C189.236 99.6455 188.577 99.499 187.801 99.499C186.995 99.499 186.329 99.6748 185.801 100.026C185.289 100.378 184.886 100.861 184.593 101.477C184.314 102.077 184.117 102.773 184 103.564C183.882 104.355 183.824 105.19 183.824 106.069V106.904C183.824 107.783 183.941 108.581 184.175 109.299C184.424 110.017 184.776 110.632 185.23 111.145C185.699 111.643 186.255 112.031 186.9 112.309C187.559 112.587 188.306 112.727 189.141 112.727C190.152 112.727 191.148 112.536 192.129 112.155C193.111 111.774 193.953 111.145 194.656 110.266L198.018 114.265C197.535 114.953 196.846 115.62 195.953 116.264C195.074 116.909 194.019 117.436 192.789 117.846C191.558 118.242 190.181 118.439 188.658 118.439ZM211.707 112.727C212.396 112.727 212.981 112.602 213.465 112.353C213.963 112.089 214.336 111.723 214.585 111.254C214.849 110.771 214.974 110.192 214.959 109.519H221.924C221.939 111.306 221.5 112.873 220.606 114.221C219.727 115.554 218.526 116.594 217.002 117.341C215.494 118.073 213.787 118.439 211.883 118.439C210.022 118.439 208.396 118.139 207.005 117.539C205.613 116.923 204.449 116.074 203.511 114.99C202.588 113.891 201.893 112.609 201.424 111.145C200.97 109.68 200.743 108.09 200.743 106.376V105.871C200.743 104.157 200.97 102.568 201.424 101.103C201.893 99.6235 202.588 98.3418 203.511 97.2578C204.449 96.1592 205.606 95.3096 206.983 94.709C208.375 94.0938 209.993 93.7861 211.839 93.7861C213.816 93.7861 215.56 94.1597 217.068 94.9067C218.592 95.6538 219.786 96.7378 220.65 98.1587C221.514 99.5796 221.939 101.301 221.924 103.322H214.959C214.974 102.604 214.864 101.96 214.629 101.389C214.395 100.817 214.029 100.363 213.531 100.026C213.047 99.6748 212.425 99.499 211.663 99.499C210.901 99.499 210.286 99.6675 209.817 100.004C209.349 100.341 208.99 100.81 208.741 101.411C208.506 101.997 208.345 102.67 208.257 103.432C208.184 104.194 208.147 105.007 208.147 105.871V106.376C208.147 107.255 208.184 108.083 208.257 108.859C208.345 109.621 208.514 110.295 208.763 110.881C209.012 111.452 209.371 111.906 209.839 112.243C210.308 112.565 210.931 112.727 211.707 112.727ZM237.613 94.2256V99.3672H223.287V94.2256H237.613ZM226.297 88.3149H233.702V110.244C233.702 110.874 233.775 111.364 233.921 111.716C234.068 112.053 234.317 112.294 234.668 112.441C235.035 112.573 235.518 112.639 236.119 112.639C236.543 112.639 236.895 112.631 237.173 112.617C237.452 112.587 237.715 112.551 237.964 112.507V117.802C237.334 118.007 236.675 118.161 235.987 118.264C235.298 118.381 234.566 118.439 233.79 118.439C232.208 118.439 230.853 118.19 229.725 117.692C228.611 117.194 227.762 116.411 227.176 115.341C226.59 114.272 226.297 112.88 226.297 111.167V88.3149ZM264.881 107.146H256.927V101.191H264.881C265.965 101.191 266.844 101.008 267.518 100.642C268.191 100.275 268.682 99.77 268.99 99.1255C269.312 98.4663 269.473 97.7266 269.473 96.9062C269.473 96.0273 269.312 95.2144 268.99 94.4673C268.682 93.7202 268.191 93.1196 267.518 92.6655C266.844 92.1968 265.965 91.9624 264.881 91.9624H259.827V118H252.115V86.0078H264.881C267.444 86.0078 269.649 86.4766 271.495 87.4141C273.355 88.3516 274.783 89.6406 275.779 91.2812C276.775 92.9072 277.273 94.7676 277.273 96.8623C277.273 98.9277 276.775 100.729 275.779 102.268C274.783 103.806 273.355 105.007 271.495 105.871C269.649 106.721 267.444 107.146 264.881 107.146ZM288.326 84.25V118H280.921V84.25H288.326ZM287.447 105.3L285.711 105.344C285.711 103.674 285.916 102.136 286.326 100.729C286.736 99.3232 287.322 98.1001 288.084 97.0601C288.846 96.02 289.761 95.2144 290.831 94.6431C291.9 94.0718 293.086 93.7861 294.39 93.7861C295.562 93.7861 296.631 93.9546 297.598 94.2915C298.58 94.6284 299.422 95.1704 300.125 95.9175C300.843 96.6646 301.392 97.6387 301.773 98.8398C302.168 100.041 302.366 101.506 302.366 103.234V118H294.917V103.19C294.917 102.224 294.778 101.477 294.5 100.949C294.236 100.407 293.855 100.034 293.357 99.8286C292.859 99.6089 292.251 99.499 291.534 99.499C290.669 99.499 289.966 99.6455 289.424 99.9385C288.882 100.231 288.465 100.642 288.172 101.169C287.894 101.682 287.703 102.29 287.601 102.993C287.498 103.696 287.447 104.465 287.447 105.3ZM314.297 94.2256V118H306.871V94.2256H314.297ZM306.431 88.0952C306.431 87.0405 306.812 86.1763 307.574 85.5024C308.335 84.8286 309.324 84.4917 310.54 84.4917C311.756 84.4917 312.745 84.8286 313.506 85.5024C314.268 86.1763 314.649 87.0405 314.649 88.0952C314.649 89.1499 314.268 90.0142 313.506 90.688C312.745 91.3618 311.756 91.6987 310.54 91.6987C309.324 91.6987 308.335 91.3618 307.574 90.688C306.812 90.0142 306.431 89.1499 306.431 88.0952ZM326.69 84.25V118H319.263V84.25H326.69ZM330.337 106.354V105.893C330.337 104.15 330.586 102.546 331.084 101.081C331.583 99.6016 332.315 98.3198 333.282 97.2358C334.249 96.1519 335.442 95.3096 336.863 94.709C338.284 94.0938 339.925 93.7861 341.785 93.7861C343.66 93.7861 345.308 94.0938 346.729 94.709C348.165 95.3096 349.366 96.1519 350.333 97.2358C351.299 98.3198 352.032 99.6016 352.53 101.081C353.028 102.546 353.277 104.15 353.277 105.893V106.354C353.277 108.083 353.028 109.687 352.53 111.167C352.032 112.631 351.299 113.913 350.333 115.012C349.366 116.096 348.172 116.938 346.751 117.539C345.33 118.139 343.689 118.439 341.829 118.439C339.969 118.439 338.321 118.139 336.885 117.539C335.45 116.938 334.249 116.096 333.282 115.012C332.315 113.913 331.583 112.631 331.084 111.167C330.586 109.687 330.337 108.083 330.337 106.354ZM337.742 105.893V106.354C337.742 107.248 337.808 108.083 337.94 108.859C338.072 109.636 338.292 110.317 338.599 110.903C338.907 111.474 339.324 111.921 339.852 112.243C340.379 112.565 341.038 112.727 341.829 112.727C342.605 112.727 343.25 112.565 343.763 112.243C344.29 111.921 344.708 111.474 345.015 110.903C345.323 110.317 345.542 109.636 345.674 108.859C345.806 108.083 345.872 107.248 345.872 106.354V105.893C345.872 105.029 345.806 104.216 345.674 103.454C345.542 102.678 345.323 101.997 345.015 101.411C344.708 100.81 344.29 100.341 343.763 100.004C343.235 99.6675 342.576 99.499 341.785 99.499C341.009 99.499 340.357 99.6675 339.83 100.004C339.317 100.341 338.907 100.81 338.599 101.411C338.292 101.997 338.072 102.678 337.94 103.454C337.808 104.216 337.742 105.029 337.742 105.893ZM369.031 111.32C369.031 110.91 368.892 110.559 368.614 110.266C368.35 109.958 367.881 109.68 367.208 109.431C366.534 109.167 365.589 108.903 364.373 108.64C363.216 108.391 362.125 108.061 361.099 107.651C360.088 107.241 359.202 106.743 358.44 106.157C357.679 105.571 357.078 104.875 356.639 104.069C356.214 103.264 356.001 102.341 356.001 101.301C356.001 100.29 356.214 99.3379 356.639 98.4443C357.078 97.5361 357.715 96.7378 358.55 96.0493C359.4 95.3462 360.433 94.7969 361.648 94.4014C362.864 93.9912 364.249 93.7861 365.801 93.7861C367.94 93.7861 369.786 94.1157 371.338 94.7749C372.891 95.4194 374.085 96.3276 374.92 97.4995C375.77 98.6567 376.194 99.9971 376.194 101.521H368.79C368.79 100.92 368.687 100.407 368.482 99.9824C368.292 99.5576 367.977 99.2354 367.537 99.0156C367.098 98.7812 366.512 98.6641 365.779 98.6641C365.267 98.6641 364.798 98.7593 364.373 98.9497C363.963 99.1401 363.633 99.4038 363.384 99.7407C363.135 100.078 363.011 100.473 363.011 100.927C363.011 101.25 363.084 101.542 363.23 101.806C363.392 102.055 363.633 102.29 363.956 102.509C364.278 102.714 364.688 102.905 365.186 103.081C365.684 103.242 366.285 103.388 366.988 103.52C368.584 103.813 370.079 104.23 371.47 104.772C372.862 105.314 373.99 106.083 374.854 107.08C375.733 108.076 376.172 109.416 376.172 111.101C376.172 112.155 375.931 113.129 375.447 114.023C374.964 114.902 374.268 115.678 373.36 116.352C372.452 117.011 371.36 117.524 370.086 117.89C368.812 118.256 367.376 118.439 365.779 118.439C363.509 118.439 361.59 118.037 360.022 117.231C358.455 116.411 357.269 115.385 356.463 114.155C355.672 112.91 355.276 111.65 355.276 110.375H362.176C362.205 111.108 362.381 111.708 362.703 112.177C363.04 112.646 363.487 112.99 364.043 113.21C364.6 113.43 365.245 113.54 365.977 113.54C366.651 113.54 367.208 113.444 367.647 113.254C368.101 113.063 368.445 112.807 368.68 112.485C368.914 112.148 369.031 111.76 369.031 111.32ZM378.721 106.354V105.893C378.721 104.15 378.97 102.546 379.468 101.081C379.966 99.6016 380.699 98.3198 381.666 97.2358C382.632 96.1519 383.826 95.3096 385.247 94.709C386.668 94.0938 388.309 93.7861 390.169 93.7861C392.044 93.7861 393.692 94.0938 395.113 94.709C396.548 95.3096 397.75 96.1519 398.716 97.2358C399.683 98.3198 400.416 99.6016 400.914 101.081C401.412 102.546 401.661 104.15 401.661 105.893V106.354C401.661 108.083 401.412 109.687 400.914 111.167C400.416 112.631 399.683 113.913 398.716 115.012C397.75 116.096 396.556 116.938 395.135 117.539C393.714 118.139 392.073 118.439 390.213 118.439C388.353 118.439 386.705 118.139 385.269 117.539C383.833 116.938 382.632 116.096 381.666 115.012C380.699 113.913 379.966 112.631 379.468 111.167C378.97 109.687 378.721 108.083 378.721 106.354ZM386.126 105.893V106.354C386.126 107.248 386.192 108.083 386.324 108.859C386.456 109.636 386.675 110.317 386.983 110.903C387.291 111.474 387.708 111.921 388.235 112.243C388.763 112.565 389.422 112.727 390.213 112.727C390.989 112.727 391.634 112.565 392.146 112.243C392.674 111.921 393.091 111.474 393.399 110.903C393.707 110.317 393.926 109.636 394.058 108.859C394.19 108.083 394.256 107.248 394.256 106.354V105.893C394.256 105.029 394.19 104.216 394.058 103.454C393.926 102.678 393.707 101.997 393.399 101.411C393.091 100.81 392.674 100.341 392.146 100.004C391.619 99.6675 390.96 99.499 390.169 99.499C389.393 99.499 388.741 99.6675 388.213 100.004C387.701 100.341 387.291 100.81 386.983 101.411C386.675 101.997 386.456 102.678 386.324 103.454C386.192 104.216 386.126 105.029 386.126 105.893ZM412.427 98.7959V127.141H405.022V94.2256H411.922L412.427 98.7959ZM427.017 105.827V106.289C427.017 108.017 426.819 109.621 426.424 111.101C426.028 112.58 425.442 113.869 424.666 114.968C423.89 116.066 422.923 116.923 421.766 117.539C420.623 118.139 419.297 118.439 417.789 118.439C416.368 118.439 415.145 118.125 414.119 117.495C413.094 116.865 412.237 115.993 411.548 114.88C410.86 113.767 410.303 112.492 409.878 111.057C409.454 109.621 409.117 108.105 408.868 106.508V105.915C409.117 104.201 409.454 102.612 409.878 101.147C410.303 99.6675 410.86 98.3784 411.548 97.2798C412.237 96.1812 413.086 95.3242 414.097 94.709C415.123 94.0938 416.346 93.7861 417.767 93.7861C419.275 93.7861 420.601 94.0718 421.744 94.6431C422.901 95.2144 423.868 96.0347 424.644 97.104C425.435 98.1587 426.028 99.4258 426.424 100.905C426.819 102.385 427.017 104.025 427.017 105.827ZM419.612 106.289V105.827C419.612 104.904 419.546 104.062 419.415 103.3C419.283 102.524 419.07 101.85 418.777 101.279C418.499 100.708 418.125 100.268 417.657 99.9604C417.188 99.6528 416.609 99.499 415.921 99.499C415.13 99.499 414.463 99.6235 413.921 99.8726C413.394 100.107 412.969 100.473 412.647 100.971C412.339 101.455 412.12 102.062 411.988 102.795C411.871 103.513 411.819 104.355 411.834 105.322V107.124C411.805 108.237 411.915 109.218 412.164 110.068C412.413 110.903 412.845 111.555 413.46 112.023C414.075 112.492 414.91 112.727 415.965 112.727C416.668 112.727 417.254 112.565 417.723 112.243C418.191 111.906 418.565 111.445 418.843 110.859C419.122 110.258 419.319 109.57 419.437 108.793C419.554 108.017 419.612 107.182 419.612 106.289ZM437.564 84.25V118H430.159V84.25H437.564ZM436.685 105.3L434.949 105.344C434.949 103.674 435.154 102.136 435.564 100.729C435.975 99.3232 436.561 98.1001 437.322 97.0601C438.084 96.02 439 95.2144 440.069 94.6431C441.138 94.0718 442.325 93.7861 443.628 93.7861C444.8 93.7861 445.87 93.9546 446.836 94.2915C447.818 94.6284 448.66 95.1704 449.363 95.9175C450.081 96.6646 450.63 97.6387 451.011 98.8398C451.407 100.041 451.604 101.506 451.604 103.234V118H444.156V103.19C444.156 102.224 444.017 101.477 443.738 100.949C443.475 100.407 443.094 100.034 442.596 99.8286C442.098 99.6089 441.49 99.499 440.772 99.499C439.908 99.499 439.205 99.6455 438.663 99.9385C438.121 100.231 437.703 100.642 437.41 101.169C437.132 101.682 436.941 102.29 436.839 102.993C436.736 103.696 436.685 104.465 436.685 105.3ZM463.008 115.209L469.161 94.2256H477.115L467.557 121.538C467.352 122.138 467.081 122.783 466.744 123.471C466.407 124.174 465.945 124.841 465.359 125.471C464.773 126.101 464.019 126.613 463.096 127.009C462.188 127.404 461.06 127.602 459.712 127.602C458.995 127.602 458.467 127.565 458.13 127.492C457.808 127.434 457.31 127.324 456.636 127.163V121.867C456.827 121.867 456.988 121.867 457.12 121.867C457.266 121.867 457.427 121.867 457.603 121.867C458.394 121.867 459.024 121.787 459.493 121.625C459.976 121.464 460.342 121.23 460.591 120.922C460.855 120.615 461.06 120.241 461.207 119.802L463.008 115.209ZM461.448 94.2256L466.128 110.859L466.941 118.703H461.976L453.516 94.2256H461.448Z" fill="#424241"/>
<path d="M1363 15C1363 6.71573 1356.28 0 1348 0H1134V167H1348C1356.28 167 1363 160.284 1363 152V15Z" fill="#851E96"/>
<path d="M1234.26 106.286H1262.74V111.857H1234.26V106.286ZM1239.96 117.429H1257.04V123H1239.96V117.429ZM1248.5 45C1240.95 45 1233.71 47.9349 1228.37 53.1592C1223.03 58.3834 1220.03 65.469 1220.03 72.8571C1219.84 76.9057 1220.63 80.9412 1222.34 84.6315C1224.05 88.3219 1226.64 91.5616 1229.88 94.0843C1232.73 96.675 1234.26 98.1514 1234.26 100.714H1239.96C1239.96 95.5886 1236.8 92.7193 1233.72 89.9614C1231.06 87.9676 1228.94 85.3658 1227.55 82.3838C1226.15 79.4019 1225.53 76.1308 1225.72 72.8571C1225.72 66.9466 1228.12 61.2781 1232.39 57.0988C1236.67 52.9194 1242.46 50.5714 1248.5 50.5714C1254.54 50.5714 1260.33 52.9194 1264.61 57.0988C1268.88 61.2781 1271.28 66.9466 1271.28 72.8571C1271.47 76.1333 1270.84 79.4059 1269.44 82.388C1268.04 85.3701 1265.92 87.9706 1263.25 89.9614C1260.2 92.7471 1257.04 95.5329 1257.04 100.714H1262.74C1262.74 98.1514 1264.25 96.675 1267.12 94.0564C1270.36 91.5381 1272.94 88.3031 1274.66 84.6176C1276.37 80.9321 1277.16 76.9014 1276.97 72.8571C1276.97 69.1989 1276.24 65.5765 1274.81 62.1967C1273.37 58.8169 1271.28 55.7459 1268.63 53.1592C1265.99 50.5724 1262.85 48.5205 1259.4 47.1205C1255.94 45.7205 1252.24 45 1248.5 45V45Z" fill="white"/>
</svg>
