<svg width="1363" height="167" viewBox="0 0 1363 167" fill="none" xmlns="http://www.w3.org/2000/svg">
<rect width="1363" height="167" rx="15" fill="#F0F0F0"/>
<path d="M0 15C0 6.71573 6.71573 0 15 0H37V167H15C6.71573 167 0 160.284 0 152V15Z" fill="#424241"/>
<path d="M100.906 54.9219L93.3945 52.2383V49.0859L103.602 53.375V55.6367L100.906 54.9219ZM93.3945 57.1719L100.918 54.4297L103.602 53.7852V56.0352L93.3945 60.3242V57.1719ZM123.348 59.2578V62H114.266V59.2578H123.348ZM115.414 44.9375V62H111.898V44.9375H115.414ZM122.164 51.8867V54.5586H114.266V51.8867H122.164ZM123.336 44.9375V47.6914H114.266V44.9375H123.336ZM127.906 49.3203L130.004 53.1758L132.16 49.3203H135.758L132.172 55.5195L135.922 62H132.312L130.027 57.9219L127.742 62H124.133L127.883 55.5195L124.297 49.3203H127.906ZM140.773 51.7578V66.875H137.398V49.3203H140.527L140.773 51.7578ZM148.801 55.5195V55.7656C148.801 56.6875 148.691 57.543 148.473 58.332C148.262 59.1211 147.949 59.8086 147.535 60.3945C147.121 60.9727 146.605 61.4258 145.988 61.7539C145.379 62.0742 144.676 62.2344 143.879 62.2344C143.105 62.2344 142.434 62.0781 141.863 61.7656C141.293 61.4531 140.812 61.0156 140.422 60.4531C140.039 59.8828 139.73 59.2227 139.496 58.4727C139.262 57.7227 139.082 56.918 138.957 56.0586V55.4141C139.082 54.4922 139.262 53.6484 139.496 52.8828C139.73 52.1094 140.039 51.4414 140.422 50.8789C140.812 50.3086 141.289 49.8672 141.852 49.5547C142.422 49.2422 143.09 49.0859 143.855 49.0859C144.66 49.0859 145.367 49.2383 145.977 49.543C146.594 49.8477 147.109 50.2852 147.523 50.8555C147.945 51.4258 148.262 52.1055 148.473 52.8945C148.691 53.6836 148.801 54.5586 148.801 55.5195ZM145.414 55.7656V55.5195C145.414 54.9805 145.367 54.4844 145.273 54.0312C145.188 53.5703 145.047 53.168 144.852 52.8242C144.664 52.4805 144.414 52.2148 144.102 52.0273C143.797 51.832 143.426 51.7344 142.988 51.7344C142.527 51.7344 142.133 51.8086 141.805 51.957C141.484 52.1055 141.223 52.3203 141.02 52.6016C140.816 52.8828 140.664 53.2188 140.562 53.6094C140.461 54 140.398 54.4414 140.375 54.9336V56.5625C140.414 57.1406 140.523 57.6602 140.703 58.1211C140.883 58.5742 141.16 58.9336 141.535 59.1992C141.91 59.4648 142.402 59.5977 143.012 59.5977C143.457 59.5977 143.832 59.5 144.137 59.3047C144.441 59.1016 144.688 58.8242 144.875 58.4727C145.07 58.1211 145.207 57.7148 145.285 57.2539C145.371 56.793 145.414 56.2969 145.414 55.7656ZM161 56.3398H164.504C164.434 57.4883 164.117 58.5078 163.555 59.3984C163 60.2891 162.223 60.9844 161.223 61.4844C160.23 61.9844 159.035 62.2344 157.637 62.2344C156.543 62.2344 155.562 62.0469 154.695 61.6719C153.828 61.2891 153.086 60.7422 152.469 60.0312C151.859 59.3203 151.395 58.4609 151.074 57.4531C150.754 56.4453 150.594 55.3164 150.594 54.0664V52.8828C150.594 51.6328 150.758 50.5039 151.086 49.4961C151.422 48.4805 151.898 47.6172 152.516 46.9062C153.141 46.1953 153.887 45.6484 154.754 45.2656C155.621 44.8828 156.59 44.6914 157.66 44.6914C159.082 44.6914 160.281 44.9492 161.258 45.4648C162.242 45.9805 163.004 46.6914 163.543 47.5977C164.09 48.5039 164.418 49.5352 164.527 50.6914H161.012C160.973 50.0039 160.836 49.4219 160.602 48.9453C160.367 48.4609 160.012 48.0977 159.535 47.8555C159.066 47.6055 158.441 47.4805 157.66 47.4805C157.074 47.4805 156.562 47.5898 156.125 47.8086C155.688 48.0273 155.32 48.3594 155.023 48.8047C154.727 49.25 154.504 49.8125 154.355 50.4922C154.215 51.1641 154.145 51.9531 154.145 52.8594V54.0664C154.145 54.9492 154.211 55.7266 154.344 56.3984C154.477 57.0625 154.68 57.625 154.953 58.0859C155.234 58.5391 155.594 58.8828 156.031 59.1172C156.477 59.3438 157.012 59.457 157.637 59.457C158.371 59.457 158.977 59.3398 159.453 59.1055C159.93 58.8711 160.293 58.5234 160.543 58.0625C160.801 57.6016 160.953 57.0273 161 56.3398ZM169.895 44V62H166.52V44H169.895ZM169.414 55.2148H168.488C168.496 54.332 168.613 53.5195 168.84 52.7773C169.066 52.0273 169.391 51.3789 169.812 50.832C170.234 50.2773 170.738 49.8477 171.324 49.543C171.918 49.2383 172.574 49.0859 173.293 49.0859C173.918 49.0859 174.484 49.1758 174.992 49.3555C175.508 49.5273 175.949 49.8086 176.316 50.1992C176.691 50.582 176.98 51.0859 177.184 51.7109C177.387 52.3359 177.488 53.0938 177.488 53.9844V62H174.09V53.9609C174.09 53.3984 174.008 52.957 173.844 52.6367C173.688 52.3086 173.457 52.0781 173.152 51.9453C172.855 51.8047 172.488 51.7344 172.051 51.7344C171.566 51.7344 171.152 51.8242 170.809 52.0039C170.473 52.1836 170.203 52.4336 170 52.7539C169.797 53.0664 169.648 53.4336 169.555 53.8555C169.461 54.2773 169.414 54.7305 169.414 55.2148ZM186.898 59.1406V53.4922C186.898 53.0859 186.832 52.7383 186.699 52.4492C186.566 52.1523 186.359 51.9219 186.078 51.7578C185.805 51.5938 185.449 51.5117 185.012 51.5117C184.637 51.5117 184.312 51.5781 184.039 51.7109C183.766 51.8359 183.555 52.0195 183.406 52.2617C183.258 52.4961 183.184 52.7734 183.184 53.0938H179.809C179.809 52.5547 179.934 52.043 180.184 51.5586C180.434 51.0742 180.797 50.6484 181.273 50.2812C181.75 49.9062 182.316 49.6133 182.973 49.4023C183.637 49.1914 184.379 49.0859 185.199 49.0859C186.184 49.0859 187.059 49.25 187.824 49.5781C188.59 49.9062 189.191 50.3984 189.629 51.0547C190.074 51.7109 190.297 52.5312 190.297 53.5156V58.9414C190.297 59.6367 190.34 60.207 190.426 60.6523C190.512 61.0898 190.637 61.4727 190.801 61.8008V62H187.391C187.227 61.6562 187.102 61.2266 187.016 60.7109C186.938 60.1875 186.898 59.6641 186.898 59.1406ZM187.344 54.2773L187.367 56.1875H185.48C185.035 56.1875 184.648 56.2383 184.32 56.3398C183.992 56.4414 183.723 56.5859 183.512 56.7734C183.301 56.9531 183.145 57.1641 183.043 57.4062C182.949 57.6484 182.902 57.9141 182.902 58.2031C182.902 58.4922 182.969 58.7539 183.102 58.9883C183.234 59.2148 183.426 59.3945 183.676 59.5273C183.926 59.6523 184.219 59.7148 184.555 59.7148C185.062 59.7148 185.504 59.6133 185.879 59.4102C186.254 59.207 186.543 58.957 186.746 58.6602C186.957 58.3633 187.066 58.082 187.074 57.8164L187.965 59.2461C187.84 59.5664 187.668 59.8984 187.449 60.2422C187.238 60.5859 186.969 60.9102 186.641 61.2148C186.312 61.5117 185.918 61.7578 185.457 61.9531C184.996 62.1406 184.449 62.2344 183.816 62.2344C183.012 62.2344 182.281 62.0742 181.625 61.7539C180.977 61.4258 180.461 60.9766 180.078 60.4062C179.703 59.8281 179.516 59.1719 179.516 58.4375C179.516 57.7734 179.641 57.1836 179.891 56.668C180.141 56.1523 180.508 55.7188 180.992 55.3672C181.484 55.0078 182.098 54.7383 182.832 54.5586C183.566 54.3711 184.418 54.2773 185.387 54.2773H187.344ZM196.203 52.0273V62H192.828V49.3203H195.992L196.203 52.0273ZM195.711 55.2148H194.797C194.797 54.2773 194.918 53.4336 195.16 52.6836C195.402 51.9258 195.742 51.2812 196.18 50.75C196.617 50.2109 197.137 49.8008 197.738 49.5195C198.348 49.2305 199.027 49.0859 199.777 49.0859C200.371 49.0859 200.914 49.1719 201.406 49.3438C201.898 49.5156 202.32 49.7891 202.672 50.1641C203.031 50.5391 203.305 51.0352 203.492 51.6523C203.688 52.2695 203.785 53.0234 203.785 53.9141V62H200.387V53.9023C200.387 53.3398 200.309 52.9023 200.152 52.5898C199.996 52.2773 199.766 52.0586 199.461 51.9336C199.164 51.8008 198.797 51.7344 198.359 51.7344C197.906 51.7344 197.512 51.8242 197.176 52.0039C196.848 52.1836 196.574 52.4336 196.355 52.7539C196.145 53.0664 195.984 53.4336 195.875 53.8555C195.766 54.2773 195.711 54.7305 195.711 55.2148ZM214.379 49.3203H217.438V61.5781C217.438 62.7344 217.18 63.7148 216.664 64.5195C216.156 65.332 215.445 65.9453 214.531 66.3594C213.617 66.7812 212.555 66.9922 211.344 66.9922C210.812 66.9922 210.25 66.9219 209.656 66.7812C209.07 66.6406 208.508 66.4219 207.969 66.125C207.438 65.8281 206.992 65.4531 206.633 65L208.121 63.0078C208.512 63.4609 208.965 63.8125 209.48 64.0625C209.996 64.3203 210.566 64.4492 211.191 64.4492C211.801 64.4492 212.316 64.3359 212.738 64.1094C213.16 63.8906 213.484 63.5664 213.711 63.1367C213.938 62.7148 214.051 62.2031 214.051 61.6016V52.25L214.379 49.3203ZM205.848 55.8125V55.5664C205.848 54.5977 205.965 53.7188 206.199 52.9297C206.441 52.1328 206.781 51.4492 207.219 50.8789C207.664 50.3086 208.203 49.8672 208.836 49.5547C209.469 49.2422 210.184 49.0859 210.98 49.0859C211.824 49.0859 212.531 49.2422 213.102 49.5547C213.672 49.8672 214.141 50.3125 214.508 50.8906C214.875 51.4609 215.16 52.1367 215.363 52.918C215.574 53.6914 215.738 54.5391 215.855 55.4609V56C215.738 56.8828 215.562 57.7031 215.328 58.4609C215.094 59.2188 214.785 59.8828 214.402 60.4531C214.02 61.0156 213.543 61.4531 212.973 61.7656C212.41 62.0781 211.738 62.2344 210.957 62.2344C210.176 62.2344 209.469 62.0742 208.836 61.7539C208.211 61.4336 207.676 60.9844 207.23 60.4062C206.785 59.8281 206.441 59.1484 206.199 58.3672C205.965 57.5859 205.848 56.7344 205.848 55.8125ZM209.223 55.5664V55.8125C209.223 56.3359 209.273 56.8242 209.375 57.2773C209.477 57.7305 209.633 58.1328 209.844 58.4844C210.062 58.8281 210.332 59.0977 210.652 59.293C210.98 59.4805 211.367 59.5742 211.812 59.5742C212.43 59.5742 212.934 59.4453 213.324 59.1875C213.715 58.9219 214.008 58.5586 214.203 58.0977C214.398 57.6367 214.512 57.1055 214.543 56.5039V54.9688C214.527 54.4766 214.461 54.0352 214.344 53.6445C214.227 53.2461 214.062 52.9062 213.852 52.625C213.641 52.3438 213.367 52.125 213.031 51.9688C212.695 51.8125 212.297 51.7344 211.836 51.7344C211.391 51.7344 211.004 51.8359 210.676 52.0391C210.355 52.2344 210.086 52.5039 209.867 52.8477C209.656 53.1914 209.496 53.5977 209.387 54.0664C209.277 54.5273 209.223 55.0273 209.223 55.5664ZM225.898 62.2344C224.914 62.2344 224.031 62.0781 223.25 61.7656C222.469 61.4453 221.805 61.0039 221.258 60.4414C220.719 59.8789 220.305 59.2266 220.016 58.4844C219.727 57.7344 219.582 56.9375 219.582 56.0938V55.625C219.582 54.6641 219.719 53.7852 219.992 52.9883C220.266 52.1914 220.656 51.5 221.164 50.9141C221.68 50.3281 222.305 49.8789 223.039 49.5664C223.773 49.2461 224.602 49.0859 225.523 49.0859C226.422 49.0859 227.219 49.2344 227.914 49.5312C228.609 49.8281 229.191 50.25 229.66 50.7969C230.137 51.3438 230.496 52 230.738 52.7656C230.98 53.5234 231.102 54.3672 231.102 55.2969V56.7031H221.023V54.4531H227.785V54.1953C227.785 53.7266 227.699 53.3086 227.527 52.9414C227.363 52.5664 227.113 52.2695 226.777 52.0508C226.441 51.832 226.012 51.7227 225.488 51.7227C225.043 51.7227 224.66 51.8203 224.34 52.0156C224.02 52.2109 223.758 52.4844 223.555 52.8359C223.359 53.1875 223.211 53.6016 223.109 54.0781C223.016 54.5469 222.969 55.0625 222.969 55.625V56.0938C222.969 56.6016 223.039 57.0703 223.18 57.5C223.328 57.9297 223.535 58.3008 223.801 58.6133C224.074 58.9258 224.402 59.168 224.785 59.3398C225.176 59.5117 225.617 59.5977 226.109 59.5977C226.719 59.5977 227.285 59.4805 227.809 59.2461C228.34 59.0039 228.797 58.6406 229.18 58.1562L230.82 59.9375C230.555 60.3203 230.191 60.6875 229.73 61.0391C229.277 61.3906 228.73 61.6797 228.09 61.9062C227.449 62.125 226.719 62.2344 225.898 62.2344Z" fill="#888888"/>
<path d="M109.93 86.0078V118H102.217V86.0078H109.93ZM119.554 86.0078V91.9624H92.813V86.0078H119.554ZM132.012 118.439C130.079 118.439 128.35 118.139 126.827 117.539C125.303 116.923 124.014 116.081 122.959 115.012C121.919 113.942 121.121 112.712 120.564 111.32C120.022 109.929 119.751 108.457 119.751 106.904V106.069C119.751 104.326 119.993 102.714 120.477 101.235C120.96 99.7407 121.678 98.437 122.63 97.3237C123.582 96.2104 124.776 95.3462 126.211 94.731C127.647 94.1011 129.317 93.7861 131.221 93.7861C132.906 93.7861 134.415 94.0571 135.748 94.5991C137.081 95.1411 138.208 95.9175 139.131 96.9282C140.069 97.939 140.779 99.1621 141.263 100.598C141.761 102.033 142.01 103.645 142.01 105.432V108.442H122.586V103.806H134.781V103.234C134.795 102.443 134.656 101.77 134.363 101.213C134.085 100.656 133.675 100.231 133.133 99.9385C132.591 99.6455 131.932 99.499 131.155 99.499C130.35 99.499 129.683 99.6748 129.156 100.026C128.643 100.378 128.24 100.861 127.947 101.477C127.669 102.077 127.471 102.773 127.354 103.564C127.237 104.355 127.178 105.19 127.178 106.069V106.904C127.178 107.783 127.295 108.581 127.53 109.299C127.779 110.017 128.13 110.632 128.584 111.145C129.053 111.643 129.61 112.031 130.254 112.309C130.914 112.587 131.661 112.727 132.496 112.727C133.506 112.727 134.502 112.536 135.484 112.155C136.465 111.774 137.308 111.145 138.011 110.266L141.373 114.265C140.889 114.953 140.201 115.62 139.307 116.264C138.428 116.909 137.374 117.436 136.143 117.846C134.913 118.242 133.536 118.439 132.012 118.439ZM155.062 112.727C155.75 112.727 156.336 112.602 156.819 112.353C157.317 112.089 157.691 111.723 157.94 111.254C158.204 110.771 158.328 110.192 158.313 109.519H165.279C165.293 111.306 164.854 112.873 163.96 114.221C163.082 115.554 161.88 116.594 160.357 117.341C158.848 118.073 157.142 118.439 155.237 118.439C153.377 118.439 151.751 118.139 150.359 117.539C148.968 116.923 147.803 116.074 146.866 114.99C145.943 113.891 145.247 112.609 144.778 111.145C144.324 109.68 144.097 108.09 144.097 106.376V105.871C144.097 104.157 144.324 102.568 144.778 101.103C145.247 99.6235 145.943 98.3418 146.866 97.2578C147.803 96.1592 148.96 95.3096 150.337 94.709C151.729 94.0938 153.348 93.7861 155.193 93.7861C157.171 93.7861 158.914 94.1597 160.423 94.9067C161.946 95.6538 163.14 96.7378 164.004 98.1587C164.869 99.5796 165.293 101.301 165.279 103.322H158.313C158.328 102.604 158.218 101.96 157.984 101.389C157.75 100.817 157.383 100.363 156.885 100.026C156.402 99.6748 155.779 99.499 155.018 99.499C154.256 99.499 153.641 99.6675 153.172 100.004C152.703 100.341 152.344 100.81 152.095 101.411C151.861 101.997 151.7 102.67 151.612 103.432C151.539 104.194 151.502 105.007 151.502 105.871V106.376C151.502 107.255 151.539 108.083 151.612 108.859C151.7 109.621 151.868 110.295 152.117 110.881C152.366 111.452 152.725 111.906 153.194 112.243C153.663 112.565 154.285 112.727 155.062 112.727ZM175.694 84.25V118H168.289V84.25H175.694ZM174.815 105.3L173.079 105.344C173.079 103.674 173.284 102.136 173.694 100.729C174.104 99.3232 174.69 98.1001 175.452 97.0601C176.214 96.02 177.129 95.2144 178.199 94.6431C179.268 94.0718 180.455 93.7861 181.758 93.7861C182.93 93.7861 184 93.9546 184.966 94.2915C185.948 94.6284 186.79 95.1704 187.493 95.9175C188.211 96.6646 188.76 97.6387 189.141 98.8398C189.537 100.041 189.734 101.506 189.734 103.234V118H182.286V103.19C182.286 102.224 182.146 101.477 181.868 100.949C181.604 100.407 181.224 100.034 180.726 99.8286C180.228 99.6089 179.62 99.499 178.902 99.499C178.038 99.499 177.334 99.6455 176.792 99.9385C176.25 100.231 175.833 100.642 175.54 101.169C175.262 101.682 175.071 102.29 174.969 102.993C174.866 103.696 174.815 104.465 174.815 105.3ZM221.88 109.497C221.88 108.999 221.807 108.552 221.661 108.156C221.514 107.746 221.243 107.365 220.848 107.014C220.452 106.662 219.881 106.311 219.134 105.959C218.401 105.593 217.435 105.212 216.233 104.816C214.827 104.348 213.472 103.82 212.168 103.234C210.865 102.634 209.7 101.938 208.675 101.147C207.649 100.341 206.836 99.4038 206.236 98.3345C205.635 97.2505 205.335 95.9907 205.335 94.5552C205.335 93.1782 205.643 91.9404 206.258 90.8418C206.873 89.7285 207.73 88.7837 208.829 88.0073C209.942 87.2163 211.246 86.6157 212.74 86.2056C214.234 85.7808 215.867 85.5684 217.64 85.5684C219.983 85.5684 222.049 85.9785 223.836 86.7988C225.638 87.6045 227.044 88.7544 228.055 90.2485C229.08 91.728 229.593 93.4785 229.593 95.5H221.924C221.924 94.6943 221.756 93.9839 221.419 93.3687C221.097 92.7534 220.606 92.27 219.947 91.9185C219.288 91.5669 218.46 91.3911 217.464 91.3911C216.497 91.3911 215.684 91.5376 215.025 91.8306C214.366 92.1235 213.868 92.519 213.531 93.0171C213.194 93.5005 213.025 94.0352 213.025 94.6211C213.025 95.1045 213.157 95.5439 213.421 95.9395C213.699 96.3203 214.087 96.6792 214.585 97.0161C215.098 97.353 215.713 97.6753 216.431 97.9829C217.164 98.2905 217.984 98.5908 218.892 98.8838C220.591 99.4258 222.1 100.034 223.418 100.708C224.751 101.367 225.872 102.121 226.78 102.971C227.703 103.806 228.399 104.758 228.868 105.827C229.351 106.896 229.593 108.105 229.593 109.453C229.593 110.888 229.314 112.163 228.758 113.276C228.201 114.389 227.403 115.334 226.363 116.11C225.323 116.872 224.078 117.451 222.627 117.846C221.177 118.242 219.559 118.439 217.771 118.439C216.131 118.439 214.512 118.234 212.916 117.824C211.333 117.399 209.898 116.755 208.609 115.891C207.32 115.012 206.287 113.891 205.511 112.529C204.749 111.152 204.368 109.519 204.368 107.629H212.103C212.103 108.566 212.227 109.357 212.476 110.002C212.725 110.646 213.091 111.167 213.575 111.562C214.058 111.943 214.651 112.221 215.354 112.397C216.058 112.558 216.863 112.639 217.771 112.639C218.753 112.639 219.544 112.5 220.145 112.221C220.745 111.928 221.185 111.547 221.463 111.079C221.741 110.595 221.88 110.068 221.88 109.497ZM245.743 94.2256V99.3672H231.417V94.2256H245.743ZM234.427 88.3149H241.832V110.244C241.832 110.874 241.905 111.364 242.051 111.716C242.198 112.053 242.447 112.294 242.798 112.441C243.165 112.573 243.648 112.639 244.249 112.639C244.673 112.639 245.025 112.631 245.303 112.617C245.582 112.587 245.845 112.551 246.094 112.507V117.802C245.464 118.007 244.805 118.161 244.117 118.264C243.428 118.381 242.696 118.439 241.919 118.439C240.337 118.439 238.982 118.19 237.854 117.692C236.741 117.194 235.892 116.411 235.306 115.341C234.72 114.272 234.427 112.88 234.427 111.167V88.3149ZM261.036 112.023V102.224C261.036 101.55 260.94 100.971 260.75 100.488C260.56 100.004 260.259 99.6309 259.849 99.3672C259.439 99.0889 258.89 98.9497 258.201 98.9497C257.645 98.9497 257.168 99.0449 256.773 99.2354C256.377 99.4258 256.077 99.7114 255.872 100.092C255.667 100.473 255.564 100.957 255.564 101.542H248.16C248.16 100.444 248.401 99.4258 248.885 98.4883C249.383 97.5361 250.086 96.7085 250.994 96.0054C251.917 95.3022 253.016 94.7603 254.29 94.3794C255.579 93.9839 257.015 93.7861 258.597 93.7861C260.486 93.7861 262.171 94.1011 263.65 94.731C265.145 95.3608 266.324 96.3057 267.188 97.5654C268.052 98.8105 268.484 100.378 268.484 102.268V112.001C268.484 113.554 268.572 114.733 268.748 115.539C268.924 116.33 269.173 117.026 269.495 117.626V118H262.068C261.717 117.268 261.453 116.374 261.277 115.319C261.116 114.25 261.036 113.151 261.036 112.023ZM261.937 103.476L261.98 107.431H258.707C258.018 107.431 257.432 107.526 256.949 107.717C256.48 107.907 256.099 108.171 255.806 108.508C255.528 108.83 255.323 109.196 255.191 109.606C255.074 110.017 255.015 110.449 255.015 110.903C255.015 111.342 255.118 111.738 255.323 112.089C255.542 112.426 255.835 112.69 256.202 112.88C256.568 113.071 256.978 113.166 257.432 113.166C258.252 113.166 258.948 113.012 259.52 112.705C260.105 112.382 260.552 111.994 260.86 111.54C261.167 111.086 261.321 110.661 261.321 110.266L262.947 113.298C262.654 113.884 262.317 114.477 261.937 115.078C261.57 115.678 261.109 116.235 260.552 116.748C260.01 117.246 259.344 117.656 258.553 117.978C257.762 118.286 256.802 118.439 255.674 118.439C254.209 118.439 252.862 118.139 251.631 117.539C250.416 116.938 249.441 116.103 248.709 115.034C247.977 113.95 247.61 112.705 247.61 111.298C247.61 110.068 247.83 108.969 248.27 108.002C248.724 107.036 249.405 106.215 250.313 105.542C251.221 104.868 252.378 104.355 253.785 104.003C255.191 103.652 256.846 103.476 258.75 103.476H261.937ZM282.635 112.727C283.323 112.727 283.909 112.602 284.393 112.353C284.891 112.089 285.264 111.723 285.513 111.254C285.777 110.771 285.901 110.192 285.887 109.519H292.852C292.867 111.306 292.427 112.873 291.534 114.221C290.655 115.554 289.454 116.594 287.93 117.341C286.421 118.073 284.715 118.439 282.811 118.439C280.95 118.439 279.324 118.139 277.933 117.539C276.541 116.923 275.376 116.074 274.439 114.99C273.516 113.891 272.82 112.609 272.352 111.145C271.897 109.68 271.67 108.09 271.67 106.376V105.871C271.67 104.157 271.897 102.568 272.352 101.103C272.82 99.6235 273.516 98.3418 274.439 97.2578C275.376 96.1592 276.534 95.3096 277.911 94.709C279.302 94.0938 280.921 93.7861 282.767 93.7861C284.744 93.7861 286.487 94.1597 287.996 94.9067C289.52 95.6538 290.713 96.7378 291.578 98.1587C292.442 99.5796 292.867 101.301 292.852 103.322H285.887C285.901 102.604 285.792 101.96 285.557 101.389C285.323 100.817 284.957 100.363 284.458 100.026C283.975 99.6748 283.353 99.499 282.591 99.499C281.829 99.499 281.214 99.6675 280.745 100.004C280.276 100.341 279.917 100.81 279.668 101.411C279.434 101.997 279.273 102.67 279.185 103.432C279.112 104.194 279.075 105.007 279.075 105.871V106.376C279.075 107.255 279.112 108.083 279.185 108.859C279.273 109.621 279.441 110.295 279.69 110.881C279.939 111.452 280.298 111.906 280.767 112.243C281.236 112.565 281.858 112.727 282.635 112.727ZM303.487 84.228V118H296.082V84.228H303.487ZM318.692 94.2256L308.365 106.333L302.959 111.738L299.729 107.036L304.234 101.169L309.815 94.2256H318.692ZM310.76 118L304.41 107.167L309.881 103.278L319.241 118H310.76Z" fill="#424241"/>
<path d="M1363 15C1363 6.71573 1356.28 0 1348 0H1134V167H1348C1356.28 167 1363 160.284 1363 152V15Z" fill="#851E96"/>
<path fill-rule="evenodd" clip-rule="evenodd" d="M1218.5 55C1218.37 55 1218.24 55.0527 1218.15 55.1464C1218.05 55.2402 1218 55.3674 1218 55.5V111.5C1218 111.633 1218.05 111.76 1218.15 111.854C1218.24 111.947 1218.37 112 1218.5 112H1278C1278.13 112 1278.26 111.947 1278.35 111.854C1278.45 111.76 1278.5 111.633 1278.5 111.5V66C1278.5 65.8674 1278.45 65.7402 1278.35 65.6464C1278.26 65.5527 1278.13 65.5 1278 65.5H1248.25C1247.36 65.5 1246.52 65.1045 1245.95 64.4206L1238.09 55H1218.5ZM1213.9 50.9038C1215.12 49.6848 1216.78 49 1218.5 49H1239.5C1240.39 49 1241.23 49.3955 1241.8 50.0794L1249.66 59.5H1278C1279.72 59.5 1281.38 60.1848 1282.6 61.4038C1283.82 62.6228 1284.5 64.2761 1284.5 66V111.5C1284.5 113.224 1283.82 114.877 1282.6 116.096C1281.38 117.315 1279.72 118 1278 118H1218.5C1216.78 118 1215.12 117.315 1213.9 116.096C1212.68 114.877 1212 113.224 1212 111.5V55.5C1212 53.7761 1212.68 52.1228 1213.9 50.9038Z" fill="white"/>
<path fill-rule="evenodd" clip-rule="evenodd" d="M1243.72 77.5251C1245.09 78.892 1245.09 81.108 1243.72 82.4749L1237.45 88.75L1243.72 95.0251C1245.09 96.392 1245.09 98.608 1243.72 99.9749C1242.36 101.342 1240.14 101.342 1238.78 99.9749L1230.03 91.2249C1228.66 89.858 1228.66 87.642 1230.03 86.2751L1238.78 77.5251C1240.14 76.1583 1242.36 76.1583 1243.72 77.5251Z" fill="white"/>
<path fill-rule="evenodd" clip-rule="evenodd" d="M1252.03 99.9749C1250.66 98.608 1250.66 96.392 1252.03 95.0251L1258.3 88.75L1252.03 82.4749C1250.66 81.108 1250.66 78.892 1252.03 77.5251C1253.39 76.1583 1255.61 76.1583 1256.97 77.5251L1265.72 86.2751C1267.09 87.642 1267.09 89.858 1265.72 91.2249L1256.97 99.9749C1255.61 101.342 1253.39 101.342 1252.03 99.9749Z" fill="white"/>
</svg>
