<svg width="428" height="926" viewBox="0 0 428 926" fill="none" xmlns="http://www.w3.org/2000/svg">
<rect width="428" height="926" fill="white"/>
<rect width="428" height="70" fill="#D9D9D9"/>
<path d="M162.875 43H159.25L164.773 27H169.133L174.648 43H171.023L167.016 30.6562H166.891L162.875 43ZM162.648 36.7109H171.211V39.3516H162.648V36.7109ZM176.512 47.5V31H179.793V33.0156H179.941C180.087 32.6927 180.298 32.3646 180.574 32.0312C180.855 31.6927 181.22 31.4115 181.668 31.1875C182.121 30.9583 182.684 30.8438 183.355 30.8438C184.23 30.8438 185.038 31.0729 185.777 31.5313C186.517 31.9844 187.108 32.6693 187.551 33.5859C187.993 34.4974 188.215 35.6406 188.215 37.0156C188.215 38.3542 187.999 39.4844 187.566 40.4062C187.139 41.3229 186.556 42.0182 185.816 42.4922C185.082 42.9609 184.259 43.1953 183.348 43.1953C182.702 43.1953 182.152 43.0885 181.699 42.875C181.251 42.6615 180.884 42.3932 180.598 42.0703C180.311 41.7422 180.092 41.4115 179.941 41.0781H179.84V47.5H176.512ZM179.77 37C179.77 37.7135 179.868 38.3359 180.066 38.8672C180.264 39.3984 180.551 39.8125 180.926 40.1094C181.301 40.401 181.757 40.5469 182.293 40.5469C182.835 40.5469 183.293 40.3984 183.668 40.1016C184.043 39.7995 184.327 39.3828 184.52 38.8516C184.717 38.3151 184.816 37.6979 184.816 37C184.816 36.3073 184.72 35.6979 184.527 35.1719C184.335 34.6458 184.051 34.2344 183.676 33.9375C183.301 33.6406 182.84 33.4922 182.293 33.4922C181.751 33.4922 181.293 33.6354 180.918 33.9219C180.548 34.2083 180.264 34.6146 180.066 35.1406C179.868 35.6667 179.77 36.2865 179.77 37ZM190.434 47.5V31H193.715V33.0156H193.863C194.009 32.6927 194.22 32.3646 194.496 32.0312C194.777 31.6927 195.142 31.4115 195.59 31.1875C196.043 30.9583 196.605 30.8438 197.277 30.8438C198.152 30.8438 198.96 31.0729 199.699 31.5313C200.439 31.9844 201.03 32.6693 201.473 33.5859C201.915 34.4974 202.137 35.6406 202.137 37.0156C202.137 38.3542 201.921 39.4844 201.488 40.4062C201.061 41.3229 200.478 42.0182 199.738 42.4922C199.004 42.9609 198.181 43.1953 197.27 43.1953C196.624 43.1953 196.074 43.0885 195.621 42.875C195.173 42.6615 194.806 42.3932 194.52 42.0703C194.233 41.7422 194.014 41.4115 193.863 41.0781H193.762V47.5H190.434ZM193.691 37C193.691 37.7135 193.79 38.3359 193.988 38.8672C194.186 39.3984 194.473 39.8125 194.848 40.1094C195.223 40.401 195.678 40.5469 196.215 40.5469C196.757 40.5469 197.215 40.3984 197.59 40.1016C197.965 39.7995 198.249 39.3828 198.441 38.8516C198.639 38.3151 198.738 37.6979 198.738 37C198.738 36.3073 198.642 35.6979 198.449 35.1719C198.257 34.6458 197.973 34.2344 197.598 33.9375C197.223 33.6406 196.762 33.4922 196.215 33.4922C195.673 33.4922 195.215 33.6354 194.84 33.9219C194.47 34.2083 194.186 34.6146 193.988 35.1406C193.79 35.6667 193.691 36.2865 193.691 37ZM222.893 27V43H219.971L213.01 32.9297H212.893V43H209.51V27H212.479L219.385 37.0625H219.525V27H222.893ZM229.047 43.2266C228.281 43.2266 227.599 43.0938 227 42.8281C226.401 42.5573 225.927 42.1589 225.578 41.6328C225.234 41.1016 225.063 40.4401 225.063 39.6484C225.063 38.9818 225.185 38.4219 225.43 37.9687C225.674 37.5156 226.008 37.151 226.43 36.875C226.852 36.599 227.331 36.3906 227.867 36.25C228.409 36.1094 228.977 36.0104 229.57 35.9531C230.268 35.8802 230.831 35.8125 231.258 35.75C231.685 35.6823 231.995 35.5833 232.188 35.4531C232.38 35.3229 232.477 35.1302 232.477 34.875V34.8281C232.477 34.3333 232.32 33.9505 232.008 33.6797C231.701 33.4089 231.263 33.2734 230.695 33.2734C230.096 33.2734 229.62 33.4062 229.266 33.6719C228.911 33.9323 228.677 34.2604 228.563 34.6562L225.484 34.4062C225.641 33.6771 225.948 33.0469 226.406 32.5156C226.865 31.9792 227.456 31.5677 228.18 31.2812C228.909 30.9896 229.753 30.8438 230.711 30.8438C231.378 30.8438 232.016 30.9219 232.625 31.0781C233.24 31.2344 233.784 31.4766 234.258 31.8047C234.737 32.1328 235.115 32.5547 235.391 33.0703C235.667 33.5807 235.805 34.1927 235.805 34.9062V43H232.648V41.3359H232.555C232.362 41.7109 232.104 42.0417 231.781 42.3281C231.458 42.6094 231.07 42.8307 230.617 42.9922C230.164 43.1484 229.641 43.2266 229.047 43.2266ZM230 40.9297C230.49 40.9297 230.922 40.8333 231.297 40.6406C231.672 40.4427 231.966 40.1771 232.18 39.8438C232.393 39.5104 232.5 39.1328 232.5 38.7109V37.4375C232.396 37.5052 232.253 37.5677 232.07 37.625C231.893 37.6771 231.693 37.7266 231.469 37.7734C231.245 37.8151 231.021 37.8542 230.797 37.8906C230.573 37.9219 230.37 37.9505 230.188 37.9766C229.797 38.0339 229.456 38.125 229.164 38.25C228.872 38.375 228.646 38.5443 228.484 38.7578C228.323 38.9661 228.242 39.2266 228.242 39.5391C228.242 39.9922 228.406 40.3385 228.734 40.5781C229.068 40.8125 229.49 40.9297 230 40.9297ZM238.387 43V31H241.559V33.1172H241.699C241.949 32.4141 242.366 31.8594 242.949 31.4531C243.533 31.0469 244.23 30.8438 245.043 30.8438C245.866 30.8438 246.566 31.0495 247.145 31.4609C247.723 31.8672 248.108 32.4193 248.301 33.1172H248.426C248.671 32.4297 249.113 31.8802 249.754 31.4687C250.4 31.0521 251.163 30.8438 252.043 30.8438C253.163 30.8438 254.072 31.2005 254.77 31.9141C255.473 32.6224 255.824 33.6276 255.824 34.9297V43H252.504V35.5859C252.504 34.9193 252.327 34.4193 251.973 34.0859C251.618 33.7526 251.176 33.5859 250.645 33.5859C250.04 33.5859 249.569 33.7786 249.23 34.1641C248.892 34.5443 248.723 35.0469 248.723 35.6719V43H245.496V35.5156C245.496 34.9271 245.327 34.4583 244.988 34.1094C244.655 33.7604 244.215 33.5859 243.668 33.5859C243.298 33.5859 242.965 33.6797 242.668 33.8672C242.376 34.0495 242.145 34.3073 241.973 34.6406C241.801 34.9687 241.715 35.3542 241.715 35.7969V43H238.387ZM263.922 43.2344C262.688 43.2344 261.625 42.9844 260.734 42.4844C259.849 41.9792 259.167 41.2656 258.687 40.3437C258.208 39.4167 257.969 38.3203 257.969 37.0547C257.969 35.8203 258.208 34.737 258.687 33.8047C259.167 32.8724 259.841 32.1458 260.711 31.625C261.586 31.1042 262.612 30.8438 263.789 30.8438C264.581 30.8438 265.318 30.9714 266 31.2266C266.688 31.4766 267.286 31.8542 267.797 32.3594C268.313 32.8646 268.714 33.5 269 34.2656C269.286 35.026 269.43 35.9167 269.43 36.9375V37.8516H259.297V35.7891H266.297C266.297 35.3099 266.193 34.8854 265.984 34.5156C265.776 34.1458 265.487 33.8568 265.117 33.6484C264.753 33.4349 264.328 33.3281 263.844 33.3281C263.339 33.3281 262.891 33.4453 262.5 33.6797C262.115 33.9089 261.813 34.2187 261.594 34.6094C261.375 34.9948 261.263 35.4245 261.258 35.8984V37.8594C261.258 38.4531 261.367 38.9661 261.586 39.3984C261.81 39.8307 262.125 40.1641 262.531 40.3984C262.938 40.6328 263.419 40.75 263.977 40.75C264.346 40.75 264.685 40.6979 264.992 40.5938C265.299 40.4896 265.563 40.3333 265.781 40.125C266 39.9167 266.167 39.6615 266.281 39.3594L269.359 39.5625C269.203 40.3021 268.883 40.9479 268.398 41.5C267.919 42.0469 267.299 42.474 266.539 42.7813C265.784 43.0833 264.911 43.2344 263.922 43.2344Z" fill="black"/>
<rect x="123" y="178" width="180" height="180" fill="#D9D9D9"/>
<path d="M178.939 405V386.091H182.937V401.704H191.044V405H178.939ZM200.025 405.277C198.591 405.277 197.351 404.972 196.304 404.363C195.264 403.747 194.461 402.892 193.894 401.796C193.328 400.694 193.045 399.417 193.045 397.964C193.045 396.5 193.328 395.219 193.894 394.124C194.461 393.022 195.264 392.166 196.304 391.557C197.351 390.941 198.591 390.634 200.025 390.634C201.459 390.634 202.697 390.941 203.737 391.557C204.783 392.166 205.59 393.022 206.156 394.124C206.722 395.219 207.005 396.5 207.005 397.964C207.005 399.417 206.722 400.694 206.156 401.796C205.59 402.892 204.783 403.747 203.737 404.363C202.697 404.972 201.459 405.277 200.025 405.277ZM200.044 402.23C200.696 402.23 201.241 402.045 201.678 401.676C202.115 401.301 202.444 400.79 202.666 400.143C202.893 399.497 203.007 398.762 203.007 397.937C203.007 397.112 202.893 396.376 202.666 395.73C202.444 395.084 202.115 394.573 201.678 394.197C201.241 393.822 200.696 393.634 200.044 393.634C199.385 393.634 198.831 393.822 198.382 394.197C197.938 394.573 197.603 395.084 197.375 395.73C197.154 396.376 197.043 397.112 197.043 397.937C197.043 398.762 197.154 399.497 197.375 400.143C197.603 400.79 197.938 401.301 198.382 401.676C198.831 402.045 199.385 402.23 200.044 402.23ZM215.952 410.614C214.678 410.614 213.585 410.438 212.674 410.087C211.769 409.743 211.049 409.272 210.514 408.675C209.978 408.078 209.63 407.407 209.47 406.662L213.108 406.173C213.219 406.456 213.394 406.72 213.634 406.967C213.875 407.213 214.192 407.41 214.585 407.558C214.986 407.711 215.472 407.788 216.044 407.788C216.9 407.788 217.605 407.579 218.159 407.161C218.719 406.748 218.999 406.056 218.999 405.083V402.489H218.833C218.66 402.883 218.402 403.255 218.057 403.606C217.712 403.957 217.269 404.243 216.728 404.464C216.186 404.686 215.54 404.797 214.789 404.797C213.724 404.797 212.754 404.551 211.88 404.058C211.012 403.56 210.32 402.799 209.803 401.778C209.292 400.75 209.036 399.451 209.036 397.881C209.036 396.275 209.298 394.933 209.821 393.856C210.344 392.779 211.04 391.972 211.908 391.437C212.782 390.901 213.739 390.634 214.779 390.634C215.573 390.634 216.238 390.769 216.774 391.04C217.309 391.304 217.74 391.637 218.066 392.037C218.399 392.431 218.654 392.819 218.833 393.2H218.98V390.818H222.886V405.138C222.886 406.345 222.59 407.354 222 408.167C221.409 408.979 220.59 409.589 219.544 409.995C218.503 410.407 217.306 410.614 215.952 410.614ZM216.035 401.842C216.669 401.842 217.205 401.685 217.642 401.371C218.085 401.051 218.423 400.596 218.657 400.005C218.897 399.408 219.017 398.694 219.017 397.863C219.017 397.032 218.9 396.312 218.666 395.702C218.433 395.087 218.094 394.61 217.651 394.271C217.208 393.933 216.669 393.763 216.035 393.763C215.389 393.763 214.844 393.939 214.401 394.29C213.958 394.634 213.622 395.115 213.394 395.73C213.167 396.346 213.053 397.057 213.053 397.863C213.053 398.682 213.167 399.389 213.394 399.987C213.628 400.577 213.964 401.036 214.401 401.362C214.844 401.682 215.389 401.842 216.035 401.842ZM226.016 405V390.818H229.949V405H226.016ZM227.992 388.99C227.407 388.99 226.905 388.796 226.487 388.408C226.074 388.014 225.868 387.544 225.868 386.996C225.868 386.454 226.074 385.989 226.487 385.602C226.905 385.208 227.407 385.011 227.992 385.011C228.576 385.011 229.075 385.208 229.487 385.602C229.906 385.989 230.115 386.454 230.115 386.996C230.115 387.544 229.906 388.014 229.487 388.408C229.075 388.796 228.576 388.99 227.992 388.99ZM237.033 396.801V405H233.1V390.818H236.848V393.32H237.015C237.329 392.496 237.855 391.843 238.593 391.363C239.332 390.877 240.228 390.634 241.28 390.634C242.265 390.634 243.124 390.849 243.856 391.28C244.589 391.711 245.158 392.326 245.564 393.126C245.971 393.92 246.174 394.868 246.174 395.97V405H242.241V396.672C242.247 395.804 242.025 395.127 241.576 394.641C241.126 394.148 240.508 393.902 239.72 393.902C239.191 393.902 238.723 394.016 238.316 394.244C237.916 394.471 237.602 394.804 237.375 395.241C237.153 395.672 237.039 396.192 237.033 396.801Z" fill="black"/>
<rect x="42" y="456" width="344" height="60" rx="30" fill="#D9D9D9" fill-opacity="0.45"/>
<path d="M156.26 492V480.364H162.737V481.023H156.97V485.847H162.391V486.506H156.97V491.341H162.874V492H156.26ZM166.131 486.341V492H165.438V483.273H166.114V484.653H166.182C166.386 484.203 166.714 483.841 167.165 483.568C167.616 483.295 168.152 483.159 168.773 483.159C169.36 483.159 169.875 483.284 170.318 483.534C170.765 483.784 171.114 484.14 171.364 484.602C171.617 485.061 171.744 485.608 171.744 486.244V492H171.051V486.273C171.051 485.53 170.83 484.934 170.386 484.483C169.947 484.028 169.366 483.801 168.642 483.801C168.157 483.801 167.725 483.907 167.347 484.119C166.968 484.331 166.67 484.629 166.455 485.011C166.239 485.39 166.131 485.833 166.131 486.341ZM177.71 483.273V483.892H173.898V483.273H177.71ZM175.188 481.182H175.875V489.938C175.875 490.294 175.943 490.585 176.08 490.812C176.22 491.036 176.402 491.203 176.625 491.312C176.852 491.419 177.095 491.472 177.352 491.472C177.477 491.472 177.585 491.462 177.676 491.443C177.771 491.424 177.86 491.4 177.943 491.369L178.114 492C178.008 492.038 177.89 492.07 177.761 492.097C177.633 492.127 177.481 492.142 177.307 492.142C176.943 492.142 176.598 492.061 176.273 491.898C175.951 491.735 175.689 491.498 175.489 491.188C175.288 490.877 175.188 490.502 175.188 490.062V481.182ZM183.591 492.182C182.803 492.182 182.117 491.987 181.534 491.597C180.951 491.206 180.5 490.672 180.182 489.994C179.864 489.316 179.705 488.544 179.705 487.676C179.705 486.805 179.864 486.028 180.182 485.347C180.504 484.665 180.945 484.127 181.506 483.733C182.066 483.339 182.706 483.142 183.426 483.142C183.915 483.142 184.377 483.241 184.812 483.438C185.252 483.631 185.638 483.911 185.972 484.278C186.309 484.646 186.572 485.089 186.761 485.608C186.955 486.127 187.051 486.71 187.051 487.358V487.79H180.142V487.159H186.358C186.358 486.527 186.229 485.956 185.972 485.449C185.714 484.941 185.364 484.538 184.92 484.239C184.477 483.939 183.979 483.79 183.426 483.79C182.847 483.79 182.33 483.953 181.875 484.278C181.424 484.6 181.066 485.036 180.801 485.585C180.54 486.134 180.403 486.748 180.392 487.426V487.71C180.392 488.437 180.519 489.091 180.773 489.67C181.03 490.246 181.398 490.703 181.875 491.04C182.352 491.373 182.924 491.54 183.591 491.54C184.068 491.54 184.475 491.46 184.812 491.301C185.153 491.138 185.432 490.941 185.648 490.71C185.864 490.479 186.027 490.256 186.136 490.04L186.767 490.295C186.634 490.587 186.428 490.879 186.148 491.17C185.871 491.458 185.519 491.699 185.091 491.892C184.667 492.085 184.167 492.182 183.591 492.182ZM189.438 492V483.273H190.114V484.636H190.176C190.366 484.189 190.686 483.831 191.136 483.562C191.587 483.29 192.1 483.153 192.676 483.153C192.737 483.153 192.797 483.153 192.858 483.153C192.919 483.153 192.975 483.155 193.028 483.159V483.858C192.983 483.854 192.928 483.848 192.864 483.841C192.803 483.83 192.727 483.824 192.636 483.824C192.152 483.824 191.72 483.928 191.341 484.136C190.966 484.345 190.67 484.633 190.455 485C190.239 485.364 190.131 485.78 190.131 486.25V492H189.438ZM199.947 495.273C199.773 495.273 199.601 495.254 199.43 495.216C199.26 495.178 199.107 495.129 198.97 495.068L199.175 494.46C199.531 494.597 199.853 494.646 200.141 494.608C200.432 494.57 200.69 494.438 200.913 494.21C201.137 493.983 201.326 493.65 201.482 493.21L201.879 492.119L198.68 483.273H199.425L202.197 491.108H202.254L205.027 483.273H205.771L202.089 493.483C201.949 493.877 201.773 494.206 201.561 494.472C201.349 494.737 201.107 494.936 200.834 495.068C200.565 495.205 200.269 495.273 199.947 495.273ZM210.869 492.182C210.15 492.182 209.509 491.989 208.949 491.602C208.388 491.212 207.947 490.676 207.625 489.994C207.303 489.312 207.142 488.536 207.142 487.665C207.142 486.79 207.303 486.013 207.625 485.335C207.947 484.653 208.388 484.117 208.949 483.727C209.509 483.337 210.15 483.142 210.869 483.142C211.589 483.142 212.229 483.337 212.79 483.727C213.35 484.117 213.792 484.653 214.114 485.335C214.436 486.017 214.597 486.794 214.597 487.665C214.597 488.536 214.436 489.312 214.114 489.994C213.792 490.676 213.35 491.212 212.79 491.602C212.229 491.989 211.589 492.182 210.869 492.182ZM210.869 491.54C211.479 491.54 212.011 491.367 212.466 491.023C212.924 490.678 213.278 490.212 213.528 489.625C213.782 489.038 213.909 488.384 213.909 487.665C213.909 486.945 213.782 486.294 213.528 485.71C213.275 485.123 212.92 484.657 212.466 484.312C212.011 483.964 211.479 483.79 210.869 483.79C210.259 483.79 209.727 483.964 209.273 484.312C208.818 484.657 208.464 485.123 208.21 485.71C207.956 486.294 207.83 486.945 207.83 487.665C207.83 488.384 207.955 489.038 208.205 489.625C208.458 490.212 208.812 490.678 209.267 491.023C209.725 491.367 210.259 491.54 210.869 491.54ZM222.575 488.903V483.273H223.268V492H222.575V490.585H222.518C222.314 491.036 221.982 491.403 221.524 491.688C221.07 491.972 220.532 492.114 219.911 492.114C219.339 492.114 218.833 491.989 218.393 491.739C217.954 491.489 217.609 491.134 217.359 490.676C217.109 490.214 216.984 489.665 216.984 489.028V483.273H217.678V489C217.678 489.727 217.897 490.316 218.337 490.767C218.78 491.214 219.352 491.438 220.053 491.438C220.507 491.438 220.926 491.335 221.308 491.131C221.691 490.926 221.998 490.634 222.229 490.256C222.46 489.873 222.575 489.422 222.575 488.903ZM226.141 492V483.273H226.817V484.636H226.879C227.069 484.189 227.389 483.831 227.839 483.562C228.29 483.29 228.804 483.153 229.379 483.153C229.44 483.153 229.5 483.153 229.561 483.153C229.622 483.153 229.679 483.155 229.732 483.159V483.858C229.686 483.854 229.631 483.848 229.567 483.841C229.506 483.83 229.43 483.824 229.339 483.824C228.855 483.824 228.423 483.928 228.044 484.136C227.669 484.345 227.374 484.633 227.158 485C226.942 485.364 226.834 485.78 226.834 486.25V492H226.141ZM239.497 492.182C238.709 492.182 238.024 491.987 237.44 491.597C236.857 491.206 236.406 490.672 236.088 489.994C235.77 489.316 235.611 488.544 235.611 487.676C235.611 486.805 235.77 486.028 236.088 485.347C236.41 484.665 236.851 484.127 237.412 483.733C237.973 483.339 238.613 483.142 239.332 483.142C239.821 483.142 240.283 483.241 240.719 483.438C241.158 483.631 241.545 483.911 241.878 484.278C242.215 484.646 242.478 485.089 242.668 485.608C242.861 486.127 242.957 486.71 242.957 487.358V487.79H236.048V487.159H242.264C242.264 486.527 242.135 485.956 241.878 485.449C241.62 484.941 241.27 484.538 240.827 484.239C240.384 483.939 239.885 483.79 239.332 483.79C238.753 483.79 238.236 483.953 237.781 484.278C237.33 484.6 236.973 485.036 236.707 485.585C236.446 486.134 236.31 486.748 236.298 487.426V487.71C236.298 488.437 236.425 489.091 236.679 489.67C236.937 490.246 237.304 490.703 237.781 491.04C238.259 491.373 238.83 491.54 239.497 491.54C239.974 491.54 240.382 491.46 240.719 491.301C241.06 491.138 241.338 490.941 241.554 490.71C241.77 490.479 241.933 490.256 242.043 490.04L242.673 490.295C242.541 490.587 242.334 490.879 242.054 491.17C241.777 491.458 241.425 491.699 240.997 491.892C240.573 492.085 240.073 492.182 239.497 492.182ZM245.344 492V483.273H246.02V484.591H246.088C246.255 484.152 246.543 483.803 246.952 483.545C247.361 483.288 247.853 483.159 248.429 483.159C249.062 483.159 249.571 483.311 249.957 483.614C250.348 483.917 250.628 484.328 250.798 484.847H250.861C251.031 484.335 251.336 483.926 251.776 483.619C252.219 483.312 252.764 483.159 253.412 483.159C254.257 483.159 254.901 483.426 255.344 483.96C255.791 484.491 256.014 485.218 256.014 486.142V492H255.321V486.142C255.321 485.415 255.147 484.843 254.798 484.426C254.45 484.009 253.938 483.801 253.264 483.801C252.545 483.801 251.991 484.027 251.605 484.477C251.219 484.928 251.026 485.502 251.026 486.199V492H250.332V486.097C250.332 485.419 250.162 484.867 249.821 484.443C249.48 484.015 248.969 483.801 248.287 483.801C247.825 483.801 247.425 483.907 247.088 484.119C246.755 484.331 246.495 484.623 246.31 484.994C246.128 485.366 246.037 485.792 246.037 486.273V492H245.344ZM261.203 492.188C260.699 492.188 260.237 492.087 259.817 491.886C259.4 491.686 259.065 491.392 258.811 491.006C258.561 490.619 258.436 490.15 258.436 489.597C258.436 489.233 258.5 488.913 258.629 488.636C258.758 488.36 258.957 488.121 259.226 487.92C259.495 487.72 259.839 487.555 260.26 487.426C260.68 487.294 261.182 487.191 261.766 487.119C262.209 487.066 262.605 487.015 262.953 486.966C263.302 486.913 263.574 486.831 263.771 486.722C263.972 486.612 264.072 486.445 264.072 486.222V485.858C264.072 485.222 263.872 484.716 263.47 484.341C263.069 483.966 262.516 483.778 261.811 483.778C261.186 483.778 260.66 483.917 260.232 484.193C259.807 484.466 259.51 484.818 259.339 485.25L258.686 485.006C258.853 484.589 259.093 484.242 259.408 483.966C259.726 483.689 260.089 483.483 260.499 483.347C260.911 483.21 261.343 483.142 261.794 483.142C262.184 483.142 262.555 483.197 262.908 483.307C263.264 483.417 263.58 483.583 263.857 483.807C264.137 484.03 264.358 484.316 264.521 484.665C264.684 485.009 264.766 485.422 264.766 485.903V492H264.072V490.426H264.021C263.87 490.752 263.661 491.049 263.396 491.318C263.135 491.583 262.819 491.795 262.447 491.955C262.08 492.11 261.665 492.188 261.203 492.188ZM261.271 491.545C261.817 491.545 262.3 491.413 262.72 491.148C263.144 490.879 263.476 490.511 263.714 490.045C263.953 489.58 264.072 489.051 264.072 488.46V487.176C263.985 487.252 263.858 487.32 263.692 487.381C263.529 487.437 263.343 487.489 263.135 487.534C262.93 487.576 262.714 487.614 262.487 487.648C262.264 487.678 262.046 487.706 261.834 487.733C261.197 487.809 260.679 487.926 260.277 488.085C259.879 488.241 259.588 488.445 259.402 488.699C259.22 488.953 259.129 489.259 259.129 489.619C259.129 490.214 259.334 490.684 259.743 491.028C260.152 491.373 260.661 491.545 261.271 491.545ZM267.706 492V483.273H268.393V492H267.706ZM268.053 481.727C267.901 481.727 267.768 481.674 267.655 481.568C267.545 481.462 267.49 481.333 267.49 481.182C267.49 481.03 267.545 480.902 267.655 480.795C267.765 480.689 267.897 480.636 268.053 480.636C268.204 480.636 268.335 480.689 268.445 480.795C268.558 480.902 268.615 481.03 268.615 481.182C268.615 481.333 268.56 481.462 268.45 481.568C268.34 481.674 268.208 481.727 268.053 481.727ZM271.99 480.364V492H271.297V480.364H271.99Z" fill="black"/>
<rect x="42" y="542" width="344" height="60" rx="30" fill="#D9D9D9" fill-opacity="0.45"/>
<path d="M140.135 578V566.364H146.612V567.023H140.845V571.847H146.266V572.506H140.845V577.341H146.749V578H140.135ZM150.006 572.341V578H149.312V569.273H149.989V570.653H150.057C150.261 570.203 150.589 569.841 151.04 569.568C151.491 569.295 152.027 569.159 152.648 569.159C153.235 569.159 153.75 569.284 154.193 569.534C154.64 569.784 154.989 570.14 155.239 570.602C155.492 571.061 155.619 571.608 155.619 572.244V578H154.926V572.273C154.926 571.53 154.705 570.934 154.261 570.483C153.822 570.028 153.241 569.801 152.517 569.801C152.032 569.801 151.6 569.907 151.222 570.119C150.843 570.331 150.545 570.629 150.33 571.011C150.114 571.39 150.006 571.833 150.006 572.341ZM161.585 569.273V569.892H157.773V569.273H161.585ZM159.062 567.182H159.75V575.938C159.75 576.294 159.818 576.585 159.955 576.812C160.095 577.036 160.277 577.203 160.5 577.312C160.727 577.419 160.97 577.472 161.227 577.472C161.352 577.472 161.46 577.462 161.551 577.443C161.646 577.424 161.735 577.4 161.818 577.369L161.989 578C161.883 578.038 161.765 578.07 161.636 578.097C161.508 578.127 161.356 578.142 161.182 578.142C160.818 578.142 160.473 578.061 160.148 577.898C159.826 577.735 159.564 577.498 159.364 577.188C159.163 576.877 159.062 576.502 159.062 576.062V567.182ZM167.466 578.182C166.678 578.182 165.992 577.987 165.409 577.597C164.826 577.206 164.375 576.672 164.057 575.994C163.739 575.316 163.58 574.544 163.58 573.676C163.58 572.805 163.739 572.028 164.057 571.347C164.379 570.665 164.82 570.127 165.381 569.733C165.941 569.339 166.581 569.142 167.301 569.142C167.79 569.142 168.252 569.241 168.688 569.438C169.127 569.631 169.513 569.911 169.847 570.278C170.184 570.646 170.447 571.089 170.636 571.608C170.83 572.127 170.926 572.71 170.926 573.358V573.79H164.017V573.159H170.233C170.233 572.527 170.104 571.956 169.847 571.449C169.589 570.941 169.239 570.538 168.795 570.239C168.352 569.939 167.854 569.79 167.301 569.79C166.722 569.79 166.205 569.953 165.75 570.278C165.299 570.6 164.941 571.036 164.676 571.585C164.415 572.134 164.278 572.748 164.267 573.426V573.71C164.267 574.437 164.394 575.091 164.648 575.67C164.905 576.246 165.273 576.703 165.75 577.04C166.227 577.373 166.799 577.54 167.466 577.54C167.943 577.54 168.35 577.46 168.688 577.301C169.028 577.138 169.307 576.941 169.523 576.71C169.739 576.479 169.902 576.256 170.011 576.04L170.642 576.295C170.509 576.587 170.303 576.879 170.023 577.17C169.746 577.458 169.394 577.699 168.966 577.892C168.542 578.085 168.042 578.182 167.466 578.182ZM173.312 578V569.273H173.989V570.636H174.051C174.241 570.189 174.561 569.831 175.011 569.562C175.462 569.29 175.975 569.153 176.551 569.153C176.612 569.153 176.672 569.153 176.733 569.153C176.794 569.153 176.85 569.155 176.903 569.159V569.858C176.858 569.854 176.803 569.848 176.739 569.841C176.678 569.83 176.602 569.824 176.511 569.824C176.027 569.824 175.595 569.928 175.216 570.136C174.841 570.345 174.545 570.633 174.33 571C174.114 571.364 174.006 571.78 174.006 572.25V578H173.312ZM183.822 581.273C183.648 581.273 183.476 581.254 183.305 581.216C183.135 581.178 182.982 581.129 182.845 581.068L183.05 580.46C183.406 580.597 183.728 580.646 184.016 580.608C184.307 580.57 184.565 580.438 184.788 580.21C185.012 579.983 185.201 579.65 185.357 579.21L185.754 578.119L182.555 569.273H183.3L186.072 577.108H186.129L188.902 569.273H189.646L185.964 579.483C185.824 579.877 185.648 580.206 185.436 580.472C185.224 580.737 184.982 580.936 184.709 581.068C184.44 581.205 184.144 581.273 183.822 581.273ZM194.744 578.182C194.025 578.182 193.384 577.989 192.824 577.602C192.263 577.212 191.822 576.676 191.5 575.994C191.178 575.312 191.017 574.536 191.017 573.665C191.017 572.79 191.178 572.013 191.5 571.335C191.822 570.653 192.263 570.117 192.824 569.727C193.384 569.337 194.025 569.142 194.744 569.142C195.464 569.142 196.104 569.337 196.665 569.727C197.225 570.117 197.667 570.653 197.989 571.335C198.311 572.017 198.472 572.794 198.472 573.665C198.472 574.536 198.311 575.312 197.989 575.994C197.667 576.676 197.225 577.212 196.665 577.602C196.104 577.989 195.464 578.182 194.744 578.182ZM194.744 577.54C195.354 577.54 195.886 577.367 196.341 577.023C196.799 576.678 197.153 576.212 197.403 575.625C197.657 575.038 197.784 574.384 197.784 573.665C197.784 572.945 197.657 572.294 197.403 571.71C197.15 571.123 196.795 570.657 196.341 570.312C195.886 569.964 195.354 569.79 194.744 569.79C194.134 569.79 193.602 569.964 193.148 570.312C192.693 570.657 192.339 571.123 192.085 571.71C191.831 572.294 191.705 572.945 191.705 573.665C191.705 574.384 191.83 575.038 192.08 575.625C192.333 576.212 192.688 576.678 193.142 577.023C193.6 577.367 194.134 577.54 194.744 577.54ZM206.45 574.903V569.273H207.143V578H206.45V576.585H206.393C206.189 577.036 205.857 577.403 205.399 577.688C204.945 577.972 204.407 578.114 203.786 578.114C203.214 578.114 202.708 577.989 202.268 577.739C201.829 577.489 201.484 577.134 201.234 576.676C200.984 576.214 200.859 575.665 200.859 575.028V569.273H201.553V575C201.553 575.727 201.772 576.316 202.212 576.767C202.655 577.214 203.227 577.438 203.928 577.438C204.382 577.438 204.801 577.335 205.183 577.131C205.566 576.926 205.873 576.634 206.104 576.256C206.335 575.873 206.45 575.422 206.45 574.903ZM210.016 578V569.273H210.692V570.636H210.754C210.944 570.189 211.264 569.831 211.714 569.562C212.165 569.29 212.679 569.153 213.254 569.153C213.315 569.153 213.375 569.153 213.436 569.153C213.497 569.153 213.554 569.155 213.607 569.159V569.858C213.561 569.854 213.506 569.848 213.442 569.841C213.381 569.83 213.305 569.824 213.214 569.824C212.73 569.824 212.298 569.928 211.919 570.136C211.544 570.345 211.249 570.633 211.033 571C210.817 571.364 210.709 571.78 210.709 572.25V578H210.016ZM219.969 581.273V569.273H220.645V571.222H220.73C220.866 570.847 221.058 570.502 221.304 570.188C221.554 569.873 221.863 569.621 222.23 569.432C222.601 569.239 223.037 569.142 223.537 569.142C224.241 569.142 224.855 569.335 225.378 569.722C225.901 570.108 226.306 570.642 226.594 571.324C226.882 572.002 227.026 572.78 227.026 573.659C227.026 574.538 226.88 575.318 226.588 576C226.3 576.678 225.895 577.212 225.372 577.602C224.853 577.989 224.245 578.182 223.548 578.182C223.052 578.182 222.616 578.087 222.241 577.898C221.87 577.708 221.558 577.456 221.304 577.142C221.054 576.824 220.863 576.475 220.73 576.097H220.662V581.273H219.969ZM220.651 573.653C220.651 574.396 220.764 575.061 220.991 575.648C221.219 576.231 221.545 576.693 221.969 577.034C222.393 577.371 222.899 577.54 223.486 577.54C224.08 577.54 224.59 577.369 225.014 577.028C225.442 576.684 225.768 576.218 225.991 575.631C226.219 575.044 226.332 574.384 226.332 573.653C226.332 572.922 226.221 572.265 225.997 571.682C225.774 571.098 225.45 570.638 225.026 570.301C224.601 569.96 224.088 569.79 223.486 569.79C222.891 569.79 222.382 569.958 221.957 570.295C221.537 570.629 221.213 571.087 220.986 571.67C220.762 572.25 220.651 572.911 220.651 573.653ZM231.734 578.188C231.231 578.188 230.768 578.087 230.348 577.886C229.931 577.686 229.596 577.392 229.342 577.006C229.092 576.619 228.967 576.15 228.967 575.597C228.967 575.233 229.032 574.913 229.161 574.636C229.289 574.36 229.488 574.121 229.757 573.92C230.026 573.72 230.371 573.555 230.791 573.426C231.212 573.294 231.714 573.191 232.297 573.119C232.74 573.066 233.136 573.015 233.484 572.966C233.833 572.913 234.106 572.831 234.303 572.722C234.503 572.612 234.604 572.445 234.604 572.222V571.858C234.604 571.222 234.403 570.716 234.001 570.341C233.6 569.966 233.047 569.778 232.342 569.778C231.717 569.778 231.191 569.917 230.763 570.193C230.339 570.466 230.041 570.818 229.871 571.25L229.217 571.006C229.384 570.589 229.625 570.242 229.939 569.966C230.257 569.689 230.621 569.483 231.03 569.347C231.443 569.21 231.875 569.142 232.325 569.142C232.715 569.142 233.087 569.197 233.439 569.307C233.795 569.417 234.111 569.583 234.388 569.807C234.668 570.03 234.89 570.316 235.053 570.665C235.215 571.009 235.297 571.422 235.297 571.903V578H234.604V576.426H234.553C234.401 576.752 234.193 577.049 233.928 577.318C233.666 577.583 233.35 577.795 232.979 577.955C232.611 578.11 232.196 578.188 231.734 578.188ZM231.803 577.545C232.348 577.545 232.831 577.413 233.251 577.148C233.676 576.879 234.007 576.511 234.246 576.045C234.484 575.58 234.604 575.051 234.604 574.46V573.176C234.517 573.252 234.39 573.32 234.223 573.381C234.06 573.437 233.875 573.489 233.666 573.534C233.462 573.576 233.246 573.614 233.018 573.648C232.795 573.678 232.577 573.706 232.365 573.733C231.729 573.809 231.21 573.926 230.808 574.085C230.411 574.241 230.119 574.445 229.933 574.699C229.751 574.953 229.661 575.259 229.661 575.619C229.661 576.214 229.865 576.684 230.274 577.028C230.683 577.373 231.193 577.545 231.803 577.545ZM243.749 571.153L243.107 571.324C243.004 571.006 242.858 570.731 242.669 570.5C242.48 570.269 242.241 570.091 241.953 569.966C241.669 569.837 241.328 569.773 240.93 569.773C240.29 569.773 239.766 569.932 239.357 570.25C238.951 570.568 238.749 570.983 238.749 571.494C238.749 571.911 238.887 572.256 239.163 572.528C239.44 572.797 239.862 573.002 240.43 573.142L241.771 573.477C242.461 573.648 242.98 573.924 243.328 574.307C243.677 574.686 243.851 575.157 243.851 575.722C243.851 576.203 243.72 576.629 243.459 577C243.197 577.371 242.836 577.661 242.374 577.869C241.915 578.078 241.381 578.182 240.771 578.182C239.957 578.182 239.288 577.992 238.766 577.614C238.243 577.231 237.908 576.684 237.76 575.972L238.425 575.801C238.55 576.369 238.809 576.803 239.203 577.102C239.601 577.398 240.122 577.545 240.766 577.545C241.478 577.545 242.052 577.377 242.487 577.04C242.927 576.703 243.146 576.271 243.146 575.744C243.146 575.343 243.018 575.004 242.76 574.727C242.502 574.451 242.112 574.248 241.589 574.119L240.197 573.778C239.485 573.604 238.951 573.326 238.595 572.943C238.239 572.557 238.061 572.081 238.061 571.517C238.061 571.047 238.184 570.634 238.43 570.278C238.677 569.922 239.016 569.644 239.447 569.443C239.879 569.242 240.374 569.142 240.93 569.142C241.669 569.142 242.271 569.316 242.737 569.665C243.203 570.013 243.54 570.509 243.749 571.153ZM251.795 571.153L251.153 571.324C251.051 571.006 250.905 570.731 250.716 570.5C250.527 570.269 250.288 570.091 250 569.966C249.716 569.837 249.375 569.773 248.977 569.773C248.337 569.773 247.813 569.932 247.403 570.25C246.998 570.568 246.795 570.983 246.795 571.494C246.795 571.911 246.934 572.256 247.21 572.528C247.487 572.797 247.909 573.002 248.477 573.142L249.818 573.477C250.508 573.648 251.027 573.924 251.375 574.307C251.723 574.686 251.898 575.157 251.898 575.722C251.898 576.203 251.767 576.629 251.506 577C251.244 577.371 250.883 577.661 250.42 577.869C249.962 578.078 249.428 578.182 248.818 578.182C248.004 578.182 247.335 577.992 246.812 577.614C246.29 577.231 245.955 576.684 245.807 575.972L246.472 575.801C246.597 576.369 246.856 576.803 247.25 577.102C247.648 577.398 248.169 577.545 248.812 577.545C249.525 577.545 250.098 577.377 250.534 577.04C250.973 576.703 251.193 576.271 251.193 575.744C251.193 575.343 251.064 575.004 250.807 574.727C250.549 574.451 250.159 574.248 249.636 574.119L248.244 573.778C247.532 573.604 246.998 573.326 246.642 572.943C246.286 572.557 246.108 572.081 246.108 571.517C246.108 571.047 246.231 570.634 246.477 570.278C246.723 569.922 247.063 569.644 247.494 569.443C247.926 569.242 248.42 569.142 248.977 569.142C249.716 569.142 250.318 569.316 250.784 569.665C251.25 570.013 251.587 570.509 251.795 571.153ZM256.2 578L253.587 569.273H254.314L256.564 576.983H256.626L258.882 569.273H259.604L261.854 576.977H261.911L264.161 569.273H264.888L262.274 578H261.501L259.274 570.403H259.2L256.973 578H256.2ZM269.994 578.182C269.275 578.182 268.634 577.989 268.074 577.602C267.513 577.212 267.072 576.676 266.75 575.994C266.428 575.312 266.267 574.536 266.267 573.665C266.267 572.79 266.428 572.013 266.75 571.335C267.072 570.653 267.513 570.117 268.074 569.727C268.634 569.337 269.275 569.142 269.994 569.142C270.714 569.142 271.354 569.337 271.915 569.727C272.475 570.117 272.917 570.653 273.239 571.335C273.561 572.017 273.722 572.794 273.722 573.665C273.722 574.536 273.561 575.312 273.239 575.994C272.917 576.676 272.475 577.212 271.915 577.602C271.354 577.989 270.714 578.182 269.994 578.182ZM269.994 577.54C270.604 577.54 271.136 577.367 271.591 577.023C272.049 576.678 272.403 576.212 272.653 575.625C272.907 575.038 273.034 574.384 273.034 573.665C273.034 572.945 272.907 572.294 272.653 571.71C272.4 571.123 272.045 570.657 271.591 570.312C271.136 569.964 270.604 569.79 269.994 569.79C269.384 569.79 268.852 569.964 268.398 570.312C267.943 570.657 267.589 571.123 267.335 571.71C267.081 572.294 266.955 572.945 266.955 573.665C266.955 574.384 267.08 575.038 267.33 575.625C267.583 576.212 267.938 576.678 268.392 577.023C268.85 577.367 269.384 577.54 269.994 577.54ZM276.109 578V569.273H276.786V570.636H276.848C277.037 570.189 277.357 569.831 277.808 569.562C278.259 569.29 278.772 569.153 279.348 569.153C279.409 569.153 279.469 569.153 279.53 569.153C279.59 569.153 279.647 569.155 279.7 569.159V569.858C279.655 569.854 279.6 569.848 279.536 569.841C279.475 569.83 279.399 569.824 279.308 569.824C278.823 569.824 278.392 569.928 278.013 570.136C277.638 570.345 277.342 570.633 277.126 571C276.911 571.364 276.803 571.78 276.803 572.25V578H276.109ZM284.291 578.182C283.59 578.182 282.979 577.989 282.456 577.602C281.933 577.216 281.528 576.684 281.24 576.006C280.956 575.324 280.814 574.542 280.814 573.659C280.814 572.784 280.958 572.008 281.246 571.33C281.537 570.648 281.945 570.114 282.467 569.727C282.99 569.337 283.6 569.142 284.297 569.142C284.797 569.142 285.231 569.239 285.598 569.432C285.969 569.621 286.28 569.873 286.53 570.188C286.784 570.502 286.977 570.847 287.109 571.222H287.178V566.364H287.865V578H287.195V576.097H287.109C286.969 576.472 286.774 576.818 286.524 577.136C286.274 577.451 285.964 577.705 285.592 577.898C285.221 578.087 284.787 578.182 284.291 578.182ZM284.354 577.54C284.945 577.54 285.45 577.371 285.871 577.034C286.295 576.693 286.619 576.231 286.842 575.648C287.07 575.061 287.183 574.396 287.183 573.653C287.183 572.911 287.07 572.25 286.842 571.67C286.619 571.087 286.295 570.629 285.871 570.295C285.45 569.958 284.945 569.79 284.354 569.79C283.755 569.79 283.242 569.96 282.814 570.301C282.39 570.638 282.064 571.098 281.837 571.682C281.613 572.265 281.501 572.922 281.501 573.653C281.501 574.384 281.613 575.044 281.837 575.631C282.064 576.218 282.39 576.684 282.814 577.028C283.242 577.369 283.755 577.54 284.354 577.54Z" fill="black"/>
<path d="M171.174 619V611.727H175.534V612.509H172.054V614.966H175.208V615.747H172.054V619H171.174ZM178.745 619.114C178.252 619.114 177.82 618.996 177.449 618.762C177.079 618.528 176.79 618.2 176.582 617.778C176.376 617.357 176.273 616.865 176.273 616.301C176.273 615.733 176.376 615.237 176.582 614.813C176.79 614.389 177.079 614.06 177.449 613.826C177.82 613.592 178.252 613.474 178.745 613.474C179.237 613.474 179.668 613.592 180.037 613.826C180.409 614.06 180.698 614.389 180.904 614.813C181.112 615.237 181.216 615.733 181.216 616.301C181.216 616.865 181.112 617.357 180.904 617.778C180.698 618.2 180.409 618.528 180.037 618.762C179.668 618.996 179.237 619.114 178.745 619.114ZM178.745 618.361C179.119 618.361 179.426 618.265 179.668 618.073C179.909 617.881 180.088 617.629 180.204 617.317C180.32 617.004 180.378 616.666 180.378 616.301C180.378 615.937 180.32 615.597 180.204 615.282C180.088 614.967 179.909 614.713 179.668 614.518C179.426 614.324 179.119 614.227 178.745 614.227C178.371 614.227 178.063 614.324 177.821 614.518C177.58 614.713 177.401 614.967 177.285 615.282C177.169 615.597 177.111 615.937 177.111 616.301C177.111 616.666 177.169 617.004 177.285 617.317C177.401 617.629 177.58 617.881 177.821 618.073C178.063 618.265 178.371 618.361 178.745 618.361ZM182.496 619V613.545H183.305V614.369H183.362C183.461 614.099 183.641 613.88 183.902 613.712C184.162 613.544 184.456 613.46 184.782 613.46C184.844 613.46 184.921 613.461 185.013 613.464C185.106 613.466 185.175 613.47 185.223 613.474V614.327C185.194 614.32 185.129 614.309 185.028 614.295C184.928 614.278 184.823 614.27 184.711 614.27C184.446 614.27 184.21 614.326 184.001 614.437C183.795 614.546 183.632 614.697 183.511 614.891C183.393 615.083 183.334 615.302 183.334 615.548V619H182.496ZM188.252 621.159C187.847 621.159 187.499 621.107 187.208 621.003C186.917 620.901 186.674 620.766 186.48 620.598C186.288 620.432 186.135 620.255 186.022 620.065L186.689 619.597C186.765 619.696 186.861 619.81 186.977 619.938C187.093 620.068 187.252 620.18 187.453 620.275C187.657 620.372 187.923 620.42 188.252 620.42C188.692 620.42 189.056 620.314 189.342 620.101C189.629 619.888 189.772 619.554 189.772 619.099V617.991H189.701C189.639 618.091 189.552 618.214 189.438 618.361C189.327 618.505 189.166 618.634 188.955 618.748C188.747 618.859 188.465 618.915 188.11 618.915C187.67 618.915 187.274 618.811 186.924 618.602C186.576 618.394 186.3 618.091 186.096 617.693C185.895 617.295 185.795 616.812 185.795 616.244C185.795 615.686 185.893 615.199 186.089 614.785C186.286 614.368 186.559 614.046 186.91 613.819C187.26 613.589 187.665 613.474 188.124 613.474C188.479 613.474 188.761 613.534 188.969 613.652C189.18 613.768 189.341 613.901 189.452 614.05C189.566 614.196 189.653 614.317 189.715 614.412H189.8V613.545H190.61V619.156C190.61 619.625 190.503 620.006 190.29 620.3C190.08 620.596 189.796 620.812 189.438 620.95C189.083 621.089 188.688 621.159 188.252 621.159ZM188.224 618.162C188.56 618.162 188.844 618.085 189.076 617.931C189.308 617.777 189.484 617.556 189.605 617.267C189.726 616.978 189.786 616.633 189.786 616.23C189.786 615.837 189.727 615.49 189.608 615.19C189.49 614.889 189.315 614.653 189.083 614.483C188.851 614.312 188.564 614.227 188.224 614.227C187.868 614.227 187.573 614.317 187.336 614.497C187.101 614.677 186.925 614.919 186.807 615.222C186.691 615.525 186.633 615.861 186.633 616.23C186.633 616.609 186.692 616.944 186.81 617.235C186.931 617.524 187.108 617.751 187.343 617.917C187.58 618.08 187.873 618.162 188.224 618.162ZM194.36 619.114C193.867 619.114 193.435 618.996 193.064 618.762C192.694 618.528 192.406 618.2 192.197 617.778C191.991 617.357 191.888 616.865 191.888 616.301C191.888 615.733 191.991 615.237 192.197 614.813C192.406 614.389 192.694 614.06 193.064 613.826C193.435 613.592 193.867 613.474 194.36 613.474C194.852 613.474 195.283 613.592 195.653 613.826C196.024 614.06 196.313 614.389 196.519 614.813C196.727 615.237 196.831 615.733 196.831 616.301C196.831 616.865 196.727 617.357 196.519 617.778C196.313 618.2 196.024 618.528 195.653 618.762C195.283 618.996 194.852 619.114 194.36 619.114ZM194.36 618.361C194.734 618.361 195.042 618.265 195.283 618.073C195.525 617.881 195.703 617.629 195.819 617.317C195.935 617.004 195.993 616.666 195.993 616.301C195.993 615.937 195.935 615.597 195.819 615.282C195.703 614.967 195.525 614.713 195.283 614.518C195.042 614.324 194.734 614.227 194.36 614.227C193.986 614.227 193.678 614.324 193.437 614.518C193.195 614.713 193.016 614.967 192.9 615.282C192.784 615.597 192.726 615.937 192.726 616.301C192.726 616.666 192.784 617.004 192.9 617.317C193.016 617.629 193.195 617.881 193.437 618.073C193.678 618.265 193.986 618.361 194.36 618.361ZM200.483 613.545V614.256H197.656V613.545H200.483ZM198.48 612.239H199.318V617.438C199.318 617.674 199.353 617.852 199.421 617.97C199.492 618.086 199.582 618.164 199.691 618.205C199.802 618.242 199.92 618.261 200.043 618.261C200.135 618.261 200.211 618.257 200.27 618.247C200.329 618.235 200.376 618.226 200.412 618.219L200.582 618.972C200.526 618.993 200.446 619.014 200.344 619.036C200.243 619.059 200.114 619.071 199.957 619.071C199.721 619.071 199.489 619.02 199.261 618.918C199.036 618.817 198.849 618.661 198.7 618.453C198.554 618.245 198.48 617.982 198.48 617.665V612.239ZM204.556 621.045V613.545H205.366V614.412H205.465C205.527 614.317 205.612 614.196 205.721 614.05C205.832 613.901 205.991 613.768 206.197 613.652C206.405 613.534 206.687 613.474 207.042 613.474C207.501 613.474 207.906 613.589 208.256 613.819C208.607 614.049 208.88 614.374 209.077 614.795C209.273 615.217 209.371 615.714 209.371 616.287C209.371 616.865 209.273 617.365 209.077 617.789C208.88 618.21 208.608 618.537 208.26 618.769C207.912 618.999 207.511 619.114 207.056 619.114C206.706 619.114 206.425 619.056 206.214 618.94C206.004 618.821 205.842 618.687 205.728 618.538C205.614 618.387 205.527 618.261 205.465 618.162H205.394V621.045H204.556ZM205.38 616.273C205.38 616.685 205.44 617.048 205.561 617.363C205.682 617.675 205.858 617.92 206.09 618.098C206.322 618.273 206.606 618.361 206.942 618.361C207.293 618.361 207.585 618.268 207.82 618.084C208.056 617.897 208.234 617.646 208.352 617.331C208.473 617.014 208.533 616.661 208.533 616.273C208.533 615.889 208.474 615.544 208.356 615.236C208.24 614.926 208.063 614.681 207.827 614.501C207.592 614.318 207.298 614.227 206.942 614.227C206.602 614.227 206.315 614.314 206.083 614.487C205.851 614.657 205.676 614.896 205.558 615.204C205.439 615.509 205.38 615.866 205.38 616.273ZM212.255 619.128C211.909 619.128 211.596 619.063 211.314 618.933C211.032 618.8 210.808 618.609 210.643 618.361C210.477 618.11 210.394 617.807 210.394 617.452C210.394 617.139 210.456 616.886 210.579 616.692C210.702 616.495 210.866 616.341 211.072 616.23C211.278 616.119 211.506 616.036 211.754 615.982C212.005 615.925 212.257 615.88 212.511 615.847C212.842 615.804 213.111 615.772 213.317 615.751C213.525 615.727 213.677 615.688 213.771 615.634C213.868 615.579 213.917 615.484 213.917 615.349V615.321C213.917 614.971 213.821 614.698 213.629 614.504C213.44 614.31 213.152 614.213 212.766 614.213C212.366 614.213 212.053 614.301 211.825 614.476C211.598 614.651 211.438 614.838 211.346 615.037L210.55 614.753C210.692 614.421 210.882 614.163 211.119 613.979C211.358 613.792 211.618 613.661 211.9 613.588C212.184 613.512 212.463 613.474 212.738 613.474C212.913 613.474 213.114 613.496 213.342 613.538C213.571 613.579 213.793 613.663 214.006 613.79C214.221 613.918 214.4 614.111 214.542 614.369C214.684 614.627 214.755 614.973 214.755 615.406V619H213.917V618.261H213.874C213.817 618.38 213.723 618.506 213.59 618.641C213.458 618.776 213.281 618.891 213.061 618.986C212.841 619.08 212.572 619.128 212.255 619.128ZM212.383 618.375C212.714 618.375 212.994 618.31 213.221 618.18C213.451 618.049 213.623 617.881 213.739 617.675C213.858 617.469 213.917 617.253 213.917 617.026V616.259C213.881 616.301 213.803 616.34 213.683 616.376C213.564 616.409 213.427 616.438 213.271 616.464C213.117 616.488 212.966 616.509 212.82 616.528C212.675 616.545 212.558 616.559 212.468 616.571C212.25 616.599 212.047 616.646 211.857 616.71C211.67 616.771 211.519 616.865 211.403 616.99C211.289 617.113 211.232 617.281 211.232 617.494C211.232 617.786 211.34 618.006 211.555 618.155C211.773 618.302 212.049 618.375 212.383 618.375ZM220.148 614.767L219.395 614.98C219.348 614.855 219.278 614.733 219.186 614.614C219.096 614.494 218.973 614.394 218.817 614.316C218.66 614.238 218.46 614.199 218.216 614.199C217.883 614.199 217.604 614.276 217.382 614.43C217.162 614.581 217.052 614.774 217.052 615.009C217.052 615.217 217.127 615.381 217.279 615.502C217.43 615.623 217.667 615.723 217.989 615.804L218.799 616.003C219.287 616.121 219.65 616.302 219.889 616.546C220.128 616.788 220.248 617.099 220.248 617.48C220.248 617.793 220.158 618.072 219.978 618.318C219.8 618.564 219.552 618.759 219.232 618.901C218.912 619.043 218.541 619.114 218.117 619.114C217.561 619.114 217.1 618.993 216.736 618.751C216.371 618.51 216.14 618.157 216.043 617.693L216.839 617.494C216.914 617.788 217.058 618.008 217.268 618.155C217.481 618.302 217.76 618.375 218.103 618.375C218.493 618.375 218.804 618.292 219.033 618.126C219.265 617.958 219.381 617.757 219.381 617.523C219.381 617.333 219.315 617.175 219.182 617.047C219.05 616.917 218.846 616.82 218.572 616.756L217.662 616.543C217.163 616.424 216.796 616.241 216.562 615.992C216.33 615.741 216.214 615.428 216.214 615.051C216.214 614.743 216.3 614.471 216.473 614.234C216.648 613.998 216.886 613.812 217.187 613.677C217.49 613.542 217.833 613.474 218.216 613.474C218.756 613.474 219.18 613.593 219.488 613.83C219.798 614.066 220.018 614.379 220.148 614.767ZM225.373 614.767L224.62 614.98C224.573 614.855 224.503 614.733 224.411 614.614C224.321 614.494 224.197 614.394 224.041 614.316C223.885 614.238 223.685 614.199 223.441 614.199C223.107 614.199 222.829 614.276 222.607 614.43C222.386 614.581 222.276 614.774 222.276 615.009C222.276 615.217 222.352 615.381 222.504 615.502C222.655 615.623 222.892 615.723 223.214 615.804L224.023 616.003C224.511 616.121 224.875 616.302 225.114 616.546C225.353 616.788 225.472 617.099 225.472 617.48C225.472 617.793 225.382 618.072 225.202 618.318C225.025 618.564 224.776 618.759 224.457 618.901C224.137 619.043 223.765 619.114 223.342 619.114C222.785 619.114 222.325 618.993 221.96 618.751C221.596 618.51 221.365 618.157 221.268 617.693L222.063 617.494C222.139 617.788 222.282 618.008 222.493 618.155C222.706 618.302 222.984 618.375 223.327 618.375C223.718 618.375 224.028 618.292 224.258 618.126C224.49 617.958 224.606 617.757 224.606 617.523C224.606 617.333 224.54 617.175 224.407 617.047C224.274 616.917 224.071 616.82 223.796 616.756L222.887 616.543C222.388 616.424 222.021 616.241 221.786 615.992C221.554 615.741 221.438 615.428 221.438 615.051C221.438 614.743 221.525 614.471 221.697 614.234C221.873 613.998 222.111 613.812 222.411 613.677C222.714 613.542 223.058 613.474 223.441 613.474C223.981 613.474 224.405 613.593 224.712 613.83C225.022 614.066 225.243 614.379 225.373 614.767ZM227.97 619L226.308 613.545H227.188L228.367 617.722H228.424L229.589 613.545H230.484L231.634 617.707H231.691L232.87 613.545H233.751L232.089 619H231.265L230.072 614.81H229.987L228.794 619H227.97ZM236.889 619.114C236.397 619.114 235.965 618.996 235.593 618.762C235.224 618.528 234.935 618.2 234.727 617.778C234.521 617.357 234.418 616.865 234.418 616.301C234.418 615.733 234.521 615.237 234.727 614.813C234.935 614.389 235.224 614.06 235.593 613.826C235.965 613.592 236.397 613.474 236.889 613.474C237.382 613.474 237.813 613.592 238.182 613.826C238.554 614.06 238.842 614.389 239.048 614.813C239.257 615.237 239.361 615.733 239.361 616.301C239.361 616.865 239.257 617.357 239.048 617.778C238.842 618.2 238.554 618.528 238.182 618.762C237.813 618.996 237.382 619.114 236.889 619.114ZM236.889 618.361C237.263 618.361 237.571 618.265 237.812 618.073C238.054 617.881 238.233 617.629 238.349 617.317C238.465 617.004 238.523 616.666 238.523 616.301C238.523 615.937 238.465 615.597 238.349 615.282C238.233 614.967 238.054 614.713 237.812 614.518C237.571 614.324 237.263 614.227 236.889 614.227C236.515 614.227 236.207 614.324 235.966 614.518C235.724 614.713 235.546 614.967 235.43 615.282C235.314 615.597 235.256 615.937 235.256 616.301C235.256 616.666 235.314 617.004 235.43 617.317C235.546 617.629 235.724 617.881 235.966 618.073C236.207 618.265 236.515 618.361 236.889 618.361ZM240.64 619V613.545H241.45V614.369H241.507C241.606 614.099 241.786 613.88 242.046 613.712C242.307 613.544 242.6 613.46 242.927 613.46C242.989 613.46 243.066 613.461 243.158 613.464C243.25 613.466 243.32 613.47 243.367 613.474V614.327C243.339 614.32 243.274 614.309 243.172 614.295C243.073 614.278 242.967 614.27 242.856 614.27C242.591 614.27 242.354 614.326 242.146 614.437C241.94 614.546 241.776 614.697 241.656 614.891C241.537 615.083 241.478 615.302 241.478 615.548V619H240.64ZM246.254 619.114C245.8 619.114 245.399 618.999 245.051 618.769C244.703 618.537 244.43 618.21 244.234 617.789C244.037 617.365 243.939 616.865 243.939 616.287C243.939 615.714 244.037 615.217 244.234 614.795C244.43 614.374 244.704 614.049 245.054 613.819C245.405 613.589 245.809 613.474 246.269 613.474C246.624 613.474 246.904 613.534 247.11 613.652C247.319 613.768 247.477 613.901 247.586 614.05C247.697 614.196 247.784 614.317 247.845 614.412H247.916V611.727H248.754V619H247.945V618.162H247.845C247.784 618.261 247.696 618.387 247.583 618.538C247.469 618.687 247.307 618.821 247.096 618.94C246.885 619.056 246.605 619.114 246.254 619.114ZM246.368 618.361C246.704 618.361 246.988 618.273 247.22 618.098C247.452 617.92 247.629 617.675 247.749 617.363C247.87 617.048 247.931 616.685 247.931 616.273C247.931 615.866 247.871 615.509 247.753 615.204C247.635 614.896 247.459 614.657 247.227 614.487C246.995 614.314 246.709 614.227 246.368 614.227C246.013 614.227 245.717 614.318 245.48 614.501C245.246 614.681 245.07 614.926 244.951 615.236C244.835 615.544 244.777 615.889 244.777 616.273C244.777 616.661 244.836 617.014 244.955 617.331C245.075 617.646 245.253 617.897 245.487 618.084C245.724 618.268 246.018 618.361 246.368 618.361ZM251.499 616.955V616.912C251.504 616.46 251.552 616.1 251.642 615.832C251.731 615.565 251.859 615.348 252.025 615.183C252.191 615.017 252.39 614.864 252.622 614.724C252.761 614.639 252.887 614.539 252.998 614.423C253.109 614.304 253.197 614.168 253.261 614.014C253.327 613.86 253.36 613.69 253.36 613.503C253.36 613.271 253.306 613.07 253.197 612.899C253.088 612.729 252.942 612.597 252.76 612.505C252.578 612.413 252.375 612.366 252.153 612.366C251.959 612.366 251.772 612.407 251.592 612.487C251.412 612.568 251.262 612.694 251.141 612.867C251.02 613.04 250.95 613.266 250.931 613.545H250.036C250.055 613.143 250.16 612.799 250.349 612.512C250.541 612.226 250.793 612.007 251.105 611.855C251.42 611.704 251.769 611.628 252.153 611.628C252.57 611.628 252.932 611.711 253.24 611.876C253.55 612.042 253.789 612.269 253.957 612.558C254.127 612.847 254.213 613.176 254.213 613.545C254.213 613.806 254.172 614.041 254.092 614.252C254.014 614.463 253.9 614.651 253.751 614.817C253.604 614.982 253.427 615.129 253.218 615.257C253.01 615.387 252.843 615.525 252.718 615.669C252.592 615.811 252.501 615.98 252.444 616.177C252.387 616.373 252.356 616.618 252.352 616.912V616.955H251.499ZM251.954 619.057C251.779 619.057 251.628 618.994 251.503 618.869C251.378 618.743 251.315 618.593 251.315 618.418C251.315 618.242 251.378 618.092 251.503 617.967C251.628 617.841 251.779 617.778 251.954 617.778C252.129 617.778 252.28 617.841 252.405 617.967C252.53 618.092 252.593 618.242 252.593 618.418C252.593 618.534 252.564 618.64 252.504 618.737C252.448 618.834 252.371 618.912 252.274 618.972C252.179 619.028 252.072 619.057 251.954 619.057Z" fill="black"/>
<path d="M161.513 728H159.268V720.727H161.612C162.318 720.727 162.921 720.873 163.423 721.164C163.925 721.453 164.31 721.868 164.577 722.411C164.845 722.95 164.979 723.597 164.979 724.349C164.979 725.107 164.844 725.759 164.574 726.306C164.304 726.851 163.911 727.27 163.395 727.563C162.879 727.854 162.251 728 161.513 728ZM160.149 727.219H161.456C162.057 727.219 162.556 727.103 162.951 726.871C163.346 726.639 163.641 726.308 163.835 725.88C164.029 725.451 164.126 724.941 164.126 724.349C164.126 723.762 164.03 723.257 163.839 722.833C163.647 722.407 163.36 722.08 162.979 721.853C162.598 721.623 162.123 721.509 161.555 721.509H160.149V727.219ZM168.558 728.114C168.066 728.114 167.634 727.996 167.262 727.762C166.893 727.528 166.604 727.2 166.396 726.778C166.19 726.357 166.087 725.865 166.087 725.301C166.087 724.733 166.19 724.237 166.396 723.813C166.604 723.389 166.893 723.06 167.262 722.826C167.634 722.592 168.066 722.474 168.558 722.474C169.051 722.474 169.481 722.592 169.851 722.826C170.222 723.06 170.511 723.389 170.717 723.813C170.926 724.237 171.03 724.733 171.03 725.301C171.03 725.865 170.926 726.357 170.717 726.778C170.511 727.2 170.222 727.528 169.851 727.762C169.481 727.996 169.051 728.114 168.558 728.114ZM168.558 727.361C168.932 727.361 169.24 727.265 169.481 727.073C169.723 726.881 169.902 726.629 170.018 726.317C170.134 726.004 170.192 725.666 170.192 725.301C170.192 724.937 170.134 724.597 170.018 724.282C169.902 723.967 169.723 723.713 169.481 723.518C169.24 723.324 168.932 723.227 168.558 723.227C168.184 723.227 167.876 723.324 167.635 723.518C167.393 723.713 167.215 723.967 167.099 724.282C166.983 724.597 166.925 724.937 166.925 725.301C166.925 725.666 166.983 726.004 167.099 726.317C167.215 726.629 167.393 726.881 167.635 727.073C167.876 727.265 168.184 727.361 168.558 727.361ZM173.147 724.719V728H172.309V722.545H173.119V723.398H173.19C173.318 723.121 173.512 722.898 173.772 722.73C174.033 722.56 174.369 722.474 174.781 722.474C175.15 722.474 175.473 722.55 175.75 722.702C176.027 722.851 176.243 723.078 176.396 723.384C176.55 723.687 176.627 724.07 176.627 724.534V728H175.789V724.591C175.789 724.162 175.678 723.829 175.455 723.589C175.233 723.348 174.927 723.227 174.539 723.227C174.272 723.227 174.033 723.285 173.822 723.401C173.613 723.517 173.449 723.687 173.328 723.909C173.207 724.132 173.147 724.402 173.147 724.719ZM178.897 720.727V721.366C178.897 721.561 178.862 721.768 178.791 721.988C178.722 722.206 178.62 722.418 178.485 722.624C178.353 722.827 178.192 723.005 178.002 723.156L177.548 722.787C177.697 722.574 177.826 722.353 177.935 722.123C178.046 721.891 178.102 721.643 178.102 721.381V720.727H178.897ZM182.523 722.545V723.256H179.696V722.545H182.523ZM180.52 721.239H181.358V726.438C181.358 726.674 181.393 726.852 181.461 726.97C181.532 727.086 181.622 727.164 181.731 727.205C181.842 727.242 181.96 727.261 182.083 727.261C182.175 727.261 182.251 727.257 182.31 727.247C182.369 727.235 182.416 727.226 182.452 727.219L182.622 727.972C182.566 727.993 182.486 728.014 182.384 728.036C182.283 728.059 182.154 728.071 181.997 728.071C181.761 728.071 181.529 728.02 181.301 727.918C181.076 727.817 180.889 727.661 180.74 727.453C180.594 727.245 180.52 726.982 180.52 726.665V721.239ZM187.434 724.719V728H186.596V720.727H187.434V723.398H187.505C187.633 723.116 187.825 722.892 188.081 722.727C188.339 722.558 188.682 722.474 189.11 722.474C189.482 722.474 189.808 722.549 190.087 722.698C190.366 722.845 190.583 723.071 190.737 723.376C190.893 723.679 190.971 724.065 190.971 724.534V728H190.133V724.591C190.133 724.158 190.021 723.823 189.796 723.586C189.573 723.347 189.264 723.227 188.869 723.227C188.594 723.227 188.348 723.285 188.13 723.401C187.915 723.517 187.744 723.687 187.619 723.909C187.496 724.132 187.434 724.402 187.434 724.719ZM194.109 728.128C193.764 728.128 193.45 728.063 193.168 727.933C192.887 727.8 192.663 727.609 192.497 727.361C192.332 727.11 192.249 726.807 192.249 726.452C192.249 726.139 192.31 725.886 192.433 725.692C192.556 725.495 192.721 725.341 192.927 725.23C193.133 725.119 193.36 725.036 193.609 724.982C193.86 724.925 194.112 724.88 194.365 724.847C194.697 724.804 194.965 724.772 195.171 724.751C195.38 724.727 195.531 724.688 195.626 724.634C195.723 724.579 195.771 724.484 195.771 724.349V724.321C195.771 723.971 195.676 723.698 195.484 723.504C195.294 723.31 195.007 723.213 194.621 723.213C194.221 723.213 193.907 723.301 193.68 723.476C193.453 723.651 193.293 723.838 193.2 724.037L192.405 723.753C192.547 723.421 192.736 723.163 192.973 722.979C193.212 722.792 193.473 722.661 193.754 722.588C194.038 722.512 194.318 722.474 194.592 722.474C194.768 722.474 194.969 722.496 195.196 722.538C195.426 722.579 195.647 722.663 195.86 722.79C196.076 722.918 196.254 723.111 196.396 723.369C196.538 723.627 196.609 723.973 196.609 724.406V728H195.771V727.261H195.729C195.672 727.38 195.577 727.506 195.445 727.641C195.312 727.776 195.136 727.891 194.916 727.986C194.695 728.08 194.427 728.128 194.109 728.128ZM194.237 727.375C194.569 727.375 194.848 727.31 195.075 727.18C195.305 727.049 195.478 726.881 195.594 726.675C195.712 726.469 195.771 726.253 195.771 726.026V725.259C195.736 725.301 195.658 725.34 195.537 725.376C195.419 725.409 195.281 725.438 195.125 725.464C194.971 725.488 194.821 725.509 194.674 725.528C194.53 725.545 194.412 725.559 194.323 725.571C194.105 725.599 193.901 725.646 193.712 725.71C193.525 725.771 193.373 725.865 193.257 725.99C193.144 726.113 193.087 726.281 193.087 726.494C193.087 726.786 193.194 727.006 193.41 727.155C193.628 727.302 193.903 727.375 194.237 727.375ZM202.404 722.545L200.387 728H199.535L197.518 722.545H198.427L199.932 726.892H199.989L201.495 722.545H202.404ZM205.602 728.114C205.076 728.114 204.623 727.998 204.242 727.766C203.863 727.531 203.571 727.205 203.365 726.786C203.161 726.364 203.059 725.874 203.059 725.315C203.059 724.757 203.161 724.264 203.365 723.838C203.571 723.41 203.857 723.076 204.224 722.837C204.593 722.595 205.024 722.474 205.517 722.474C205.801 722.474 206.081 722.522 206.358 722.616C206.635 722.711 206.887 722.865 207.115 723.078C207.342 723.289 207.523 723.568 207.658 723.916C207.793 724.264 207.86 724.693 207.86 725.202V725.557H203.656V724.832H207.008C207.008 724.525 206.947 724.25 206.823 724.009C206.703 723.767 206.53 723.576 206.305 723.437C206.082 723.297 205.82 723.227 205.517 723.227C205.183 723.227 204.894 723.31 204.65 723.476C204.409 723.639 204.223 723.852 204.093 724.115C203.962 724.378 203.897 724.66 203.897 724.96V725.443C203.897 725.855 203.968 726.204 204.11 726.491C204.255 726.775 204.455 726.991 204.71 727.141C204.966 727.287 205.263 727.361 205.602 727.361C205.822 727.361 206.021 727.33 206.198 727.268C206.378 727.205 206.533 727.11 206.664 726.984C206.794 726.857 206.894 726.698 206.965 726.509L207.775 726.736C207.69 727.01 207.547 727.252 207.345 727.46C207.144 727.666 206.896 727.827 206.6 727.943C206.304 728.057 205.971 728.114 205.602 728.114ZM213.553 728.128C213.207 728.128 212.893 728.063 212.612 727.933C212.33 727.8 212.106 727.609 211.941 727.361C211.775 727.11 211.692 726.807 211.692 726.452C211.692 726.139 211.754 725.886 211.877 725.692C212 725.495 212.164 725.341 212.37 725.23C212.576 725.119 212.804 725.036 213.052 724.982C213.303 724.925 213.555 724.88 213.809 724.847C214.14 724.804 214.409 724.772 214.615 724.751C214.823 724.727 214.974 724.688 215.069 724.634C215.166 724.579 215.215 724.484 215.215 724.349V724.321C215.215 723.971 215.119 723.698 214.927 723.504C214.738 723.31 214.45 723.213 214.064 723.213C213.664 723.213 213.35 723.301 213.123 723.476C212.896 723.651 212.736 723.838 212.644 724.037L211.848 723.753C211.99 723.421 212.18 723.163 212.416 722.979C212.656 722.792 212.916 722.661 213.198 722.588C213.482 722.512 213.761 722.474 214.036 722.474C214.211 722.474 214.412 722.496 214.639 722.538C214.869 722.579 215.09 722.663 215.304 722.79C215.519 722.918 215.698 723.111 215.84 723.369C215.982 723.627 216.053 723.973 216.053 724.406V728H215.215V727.261H215.172C215.115 727.38 215.021 727.506 214.888 727.641C214.755 727.776 214.579 727.891 214.359 727.986C214.139 728.08 213.87 728.128 213.553 728.128ZM213.681 727.375C214.012 727.375 214.291 727.31 214.519 727.18C214.748 727.049 214.921 726.881 215.037 726.675C215.156 726.469 215.215 726.253 215.215 726.026V725.259C215.179 725.301 215.101 725.34 214.98 725.376C214.862 725.409 214.725 725.438 214.568 725.464C214.415 725.488 214.264 725.509 214.117 725.528C213.973 725.545 213.856 725.559 213.766 725.571C213.548 725.599 213.344 725.646 213.155 725.71C212.968 725.771 212.817 725.865 212.701 725.99C212.587 726.113 212.53 726.281 212.53 726.494C212.53 726.786 212.638 727.006 212.853 727.155C213.071 727.302 213.347 727.375 213.681 727.375ZM218.421 724.719V728H217.582V722.545H218.392V723.398H218.463C218.591 723.121 218.785 722.898 219.046 722.73C219.306 722.56 219.642 722.474 220.054 722.474C220.423 722.474 220.747 722.55 221.024 722.702C221.301 722.851 221.516 723.078 221.67 723.384C221.824 723.687 221.901 724.07 221.901 724.534V728H221.063V724.591C221.063 724.162 220.951 723.829 220.729 723.589C220.506 723.348 220.201 723.227 219.813 723.227C219.545 723.227 219.306 723.285 219.095 723.401C218.887 723.517 218.722 723.687 218.602 723.909C218.481 724.132 218.421 724.402 218.421 724.719ZM227.85 728.128C227.504 728.128 227.19 728.063 226.909 727.933C226.627 727.8 226.403 727.609 226.237 727.361C226.072 727.11 225.989 726.807 225.989 726.452C225.989 726.139 226.05 725.886 226.174 725.692C226.297 725.495 226.461 725.341 226.667 725.23C226.873 725.119 227.1 725.036 227.349 724.982C227.6 724.925 227.852 724.88 228.105 724.847C228.437 724.804 228.706 724.772 228.911 724.751C229.12 724.727 229.271 724.688 229.366 724.634C229.463 724.579 229.512 724.484 229.512 724.349V724.321C229.512 723.971 229.416 723.698 229.224 723.504C229.035 723.31 228.747 723.213 228.361 723.213C227.961 723.213 227.647 723.301 227.42 723.476C227.193 723.651 227.033 723.838 226.941 724.037L226.145 723.753C226.287 723.421 226.477 723.163 226.713 722.979C226.952 722.792 227.213 722.661 227.495 722.588C227.779 722.512 228.058 722.474 228.333 722.474C228.508 722.474 228.709 722.496 228.936 722.538C229.166 722.579 229.387 722.663 229.6 722.79C229.816 722.918 229.995 723.111 230.137 723.369C230.279 723.627 230.35 723.973 230.35 724.406V728H229.512V727.261H229.469C229.412 727.38 229.318 727.506 229.185 727.641C229.052 727.776 228.876 727.891 228.656 727.986C228.436 728.08 228.167 728.128 227.85 728.128ZM227.978 727.375C228.309 727.375 228.588 727.31 228.816 727.18C229.045 727.049 229.218 726.881 229.334 726.675C229.452 726.469 229.512 726.253 229.512 726.026V725.259C229.476 725.301 229.398 725.34 229.277 725.376C229.159 725.409 229.022 725.438 228.865 725.464C228.711 725.488 228.561 725.509 228.414 725.528C228.27 725.545 228.153 725.559 228.063 725.571C227.845 725.599 227.641 725.646 227.452 725.71C227.265 725.771 227.113 725.865 226.997 725.99C226.884 726.113 226.827 726.281 226.827 726.494C226.827 726.786 226.935 727.006 227.15 727.155C227.368 727.302 227.644 727.375 227.978 727.375ZM234.095 728.114C233.584 728.114 233.144 727.993 232.774 727.751C232.405 727.51 232.121 727.177 231.922 726.754C231.723 726.33 231.624 725.846 231.624 725.301C231.624 724.747 231.725 724.258 231.929 723.835C232.135 723.408 232.421 723.076 232.788 722.837C233.158 722.595 233.589 722.474 234.081 722.474C234.465 722.474 234.81 722.545 235.118 722.688C235.426 722.83 235.678 723.028 235.874 723.284C236.071 723.54 236.193 723.838 236.24 724.179H235.402C235.338 723.93 235.196 723.71 234.976 723.518C234.758 723.324 234.465 723.227 234.095 723.227C233.769 723.227 233.482 723.312 233.236 723.483C232.992 723.651 232.801 723.889 232.664 724.197C232.529 724.502 232.462 724.861 232.462 725.273C232.462 725.694 232.528 726.061 232.661 726.374C232.796 726.686 232.985 726.929 233.229 727.102C233.475 727.274 233.764 727.361 234.095 727.361C234.313 727.361 234.511 727.323 234.688 727.247C234.866 727.171 235.016 727.062 235.139 726.92C235.262 726.778 235.35 726.608 235.402 726.409H236.24C236.193 726.731 236.076 727.021 235.889 727.279C235.704 727.535 235.459 727.738 235.153 727.89C234.85 728.039 234.498 728.114 234.095 728.114ZM239.681 728.114C239.17 728.114 238.729 727.993 238.36 727.751C237.991 727.51 237.707 727.177 237.508 726.754C237.309 726.33 237.21 725.846 237.21 725.301C237.21 724.747 237.311 724.258 237.515 723.835C237.721 723.408 238.007 723.076 238.374 722.837C238.744 722.595 239.175 722.474 239.667 722.474C240.051 722.474 240.396 722.545 240.704 722.688C241.012 722.83 241.264 723.028 241.46 723.284C241.657 723.54 241.779 723.838 241.826 724.179H240.988C240.924 723.93 240.782 723.71 240.562 723.518C240.344 723.324 240.051 723.227 239.681 723.227C239.354 723.227 239.068 723.312 238.822 723.483C238.578 723.651 238.387 723.889 238.25 724.197C238.115 724.502 238.048 724.861 238.048 725.273C238.048 725.694 238.114 726.061 238.247 726.374C238.381 726.686 238.571 726.929 238.815 727.102C239.061 727.274 239.35 727.361 239.681 727.361C239.899 727.361 240.097 727.323 240.274 727.247C240.452 727.171 240.602 727.062 240.725 726.92C240.848 726.778 240.936 726.608 240.988 726.409H241.826C241.779 726.731 241.662 727.021 241.475 727.279C241.29 727.535 241.045 727.738 240.739 727.89C240.436 728.039 240.084 728.114 239.681 728.114ZM245.267 728.114C244.775 728.114 244.343 727.996 243.971 727.762C243.602 727.528 243.313 727.2 243.104 726.778C242.899 726.357 242.796 725.865 242.796 725.301C242.796 724.733 242.899 724.237 243.104 723.813C243.313 723.389 243.602 723.06 243.971 722.826C244.343 722.592 244.775 722.474 245.267 722.474C245.76 722.474 246.19 722.592 246.56 722.826C246.931 723.06 247.22 723.389 247.426 723.813C247.635 724.237 247.739 724.733 247.739 725.301C247.739 725.865 247.635 726.357 247.426 726.778C247.22 727.2 246.931 727.528 246.56 727.762C246.19 727.996 245.76 728.114 245.267 728.114ZM245.267 727.361C245.641 727.361 245.949 727.265 246.19 727.073C246.432 726.881 246.611 726.629 246.727 726.317C246.843 726.004 246.901 725.666 246.901 725.301C246.901 724.937 246.843 724.597 246.727 724.282C246.611 723.967 246.432 723.713 246.19 723.518C245.949 723.324 245.641 723.227 245.267 723.227C244.893 723.227 244.585 723.324 244.344 723.518C244.102 723.713 243.924 723.967 243.808 724.282C243.692 724.597 243.634 724.937 243.634 725.301C243.634 725.666 243.692 726.004 243.808 726.317C243.924 726.629 244.102 726.881 244.344 727.073C244.585 727.265 244.893 727.361 245.267 727.361ZM252.456 725.77V722.545H253.294V728H252.456V727.077H252.399C252.271 727.354 252.072 727.589 251.802 727.783C251.532 727.975 251.191 728.071 250.779 728.071C250.438 728.071 250.135 727.996 249.87 727.847C249.605 727.696 249.397 727.469 249.245 727.165C249.094 726.86 249.018 726.475 249.018 726.011V722.545H249.856V725.955C249.856 726.352 249.967 726.67 250.19 726.906C250.415 727.143 250.701 727.261 251.049 727.261C251.258 727.261 251.469 727.208 251.685 727.102C251.903 726.995 252.085 726.832 252.232 726.612C252.381 726.391 252.456 726.111 252.456 725.77ZM255.667 724.719V728H254.829V722.545H255.638V723.398H255.709C255.837 723.121 256.031 722.898 256.292 722.73C256.552 722.56 256.888 722.474 257.3 722.474C257.669 722.474 257.993 722.55 258.27 722.702C258.547 722.851 258.762 723.078 258.916 723.384C259.07 723.687 259.147 724.07 259.147 724.534V728H258.309V724.591C258.309 724.162 258.197 723.829 257.975 723.589C257.752 723.348 257.447 723.227 257.059 723.227C256.791 723.227 256.552 723.285 256.341 723.401C256.133 723.517 255.968 723.687 255.848 723.909C255.727 724.132 255.667 724.402 255.667 724.719ZM263.05 722.545V723.256H260.224V722.545H263.05ZM261.047 721.239H261.886V726.438C261.886 726.674 261.92 726.852 261.989 726.97C262.06 727.086 262.15 727.164 262.258 727.205C262.37 727.242 262.487 727.261 262.61 727.261C262.702 727.261 262.778 727.257 262.837 727.247C262.896 727.235 262.944 727.226 262.979 727.219L263.15 727.972C263.093 727.993 263.014 728.014 262.912 728.036C262.81 728.059 262.681 728.071 262.525 728.071C262.288 728.071 262.056 728.02 261.829 727.918C261.604 727.817 261.417 727.661 261.268 727.453C261.121 727.245 261.047 726.982 261.047 726.665V721.239ZM265.405 725.955V725.912C265.409 725.46 265.457 725.1 265.547 724.832C265.637 724.565 265.765 724.348 265.93 724.183C266.096 724.017 266.295 723.864 266.527 723.724C266.667 723.639 266.792 723.539 266.903 723.423C267.015 723.304 267.102 723.168 267.166 723.014C267.232 722.86 267.266 722.69 267.266 722.503C267.266 722.271 267.211 722.07 267.102 721.899C266.993 721.729 266.848 721.597 266.665 721.505C266.483 721.413 266.281 721.366 266.058 721.366C265.864 721.366 265.677 721.407 265.497 721.487C265.317 721.568 265.167 721.694 265.046 721.867C264.925 722.04 264.855 722.266 264.837 722.545H263.942C263.961 722.143 264.065 721.799 264.254 721.512C264.446 721.226 264.698 721.007 265.011 720.855C265.325 720.704 265.675 720.628 266.058 720.628C266.475 720.628 266.837 720.711 267.145 720.876C267.455 721.042 267.694 721.269 267.862 721.558C268.033 721.847 268.118 722.176 268.118 722.545C268.118 722.806 268.078 723.041 267.997 723.252C267.919 723.463 267.805 723.651 267.656 723.817C267.509 723.982 267.332 724.129 267.123 724.257C266.915 724.387 266.748 724.525 266.623 724.669C266.497 724.811 266.406 724.98 266.349 725.177C266.293 725.373 266.262 725.618 266.257 725.912V725.955H265.405ZM265.859 728.057C265.684 728.057 265.534 727.994 265.408 727.869C265.283 727.743 265.22 727.593 265.22 727.418C265.22 727.242 265.283 727.092 265.408 726.967C265.534 726.841 265.684 726.778 265.859 726.778C266.034 726.778 266.185 726.841 266.31 726.967C266.436 727.092 266.498 727.242 266.498 727.418C266.498 727.534 266.469 727.64 266.41 727.737C266.353 727.834 266.276 727.912 266.179 727.972C266.084 728.028 265.978 728.057 265.859 728.057Z" fill="black"/>
<rect x="134" y="736" width="159" height="39" rx="19.5" fill="black"/>
<path d="M183.737 761V749.364H187.669C188.578 749.364 189.324 749.519 189.908 749.83C190.491 750.136 190.923 750.559 191.203 751.097C191.483 751.634 191.624 752.246 191.624 752.932C191.624 753.617 191.483 754.225 191.203 754.756C190.923 755.286 190.493 755.703 189.913 756.006C189.334 756.305 188.593 756.455 187.692 756.455H184.51V755.182H187.646C188.268 755.182 188.768 755.091 189.146 754.909C189.529 754.727 189.805 754.47 189.976 754.136C190.15 753.799 190.237 753.398 190.237 752.932C190.237 752.466 190.15 752.059 189.976 751.71C189.802 751.362 189.523 751.093 189.141 750.903C188.758 750.71 188.252 750.614 187.624 750.614H185.146V761H183.737ZM189.214 755.773L192.078 761H190.442L187.624 755.773H189.214ZM197.355 761.182C196.514 761.182 195.789 760.996 195.179 760.625C194.573 760.25 194.105 759.727 193.776 759.057C193.45 758.383 193.287 757.598 193.287 756.705C193.287 755.811 193.45 755.023 193.776 754.341C194.105 753.655 194.563 753.121 195.151 752.739C195.741 752.352 196.431 752.159 197.219 752.159C197.673 752.159 198.122 752.235 198.565 752.386C199.009 752.538 199.412 752.784 199.776 753.125C200.139 753.462 200.429 753.909 200.645 754.466C200.861 755.023 200.969 755.708 200.969 756.523V757.091H194.241V755.932H199.605C199.605 755.439 199.507 755 199.31 754.614C199.116 754.227 198.84 753.922 198.48 753.699C198.124 753.475 197.704 753.364 197.219 753.364C196.685 753.364 196.223 753.496 195.832 753.761C195.446 754.023 195.149 754.364 194.94 754.784C194.732 755.205 194.628 755.655 194.628 756.136V756.909C194.628 757.568 194.741 758.127 194.969 758.585C195.2 759.04 195.52 759.386 195.929 759.625C196.338 759.86 196.813 759.977 197.355 759.977C197.707 759.977 198.026 759.928 198.31 759.83C198.598 759.727 198.846 759.576 199.054 759.375C199.262 759.17 199.423 758.917 199.537 758.614L200.832 758.977C200.696 759.417 200.467 759.803 200.145 760.136C199.823 760.466 199.425 760.723 198.952 760.909C198.478 761.091 197.946 761.182 197.355 761.182ZM206.531 764.455C205.884 764.455 205.327 764.371 204.861 764.205C204.395 764.042 204.007 763.826 203.696 763.557C203.389 763.292 203.145 763.008 202.963 762.705L204.031 761.955C204.152 762.114 204.306 762.295 204.491 762.5C204.677 762.708 204.931 762.888 205.253 763.04C205.579 763.195 206.005 763.273 206.531 763.273C207.236 763.273 207.817 763.102 208.276 762.761C208.734 762.42 208.963 761.886 208.963 761.159V759.386H208.849C208.751 759.545 208.611 759.742 208.429 759.977C208.251 760.208 207.993 760.415 207.656 760.597C207.323 760.775 206.872 760.864 206.304 760.864C205.599 760.864 204.967 760.697 204.406 760.364C203.849 760.03 203.408 759.545 203.082 758.909C202.76 758.273 202.599 757.5 202.599 756.591C202.599 755.697 202.757 754.919 203.071 754.256C203.385 753.589 203.823 753.074 204.384 752.71C204.944 752.343 205.592 752.159 206.327 752.159C206.895 752.159 207.346 752.254 207.679 752.443C208.016 752.629 208.274 752.841 208.452 753.08C208.634 753.314 208.774 753.508 208.872 753.659H209.009V752.273H210.304V761.25C210.304 762 210.134 762.61 209.793 763.08C209.455 763.553 209.001 763.9 208.429 764.119C207.861 764.343 207.228 764.455 206.531 764.455ZM206.486 759.659C207.024 759.659 207.478 759.536 207.849 759.29C208.221 759.044 208.503 758.689 208.696 758.227C208.889 757.765 208.986 757.212 208.986 756.568C208.986 755.939 208.891 755.384 208.702 754.903C208.512 754.422 208.232 754.045 207.861 753.773C207.49 753.5 207.031 753.364 206.486 753.364C205.918 753.364 205.444 753.508 205.065 753.795C204.69 754.083 204.408 754.47 204.219 754.955C204.033 755.439 203.94 755.977 203.94 756.568C203.94 757.174 204.035 757.71 204.224 758.176C204.418 758.638 204.702 759.002 205.077 759.267C205.455 759.528 205.925 759.659 206.486 759.659ZM212.759 761V752.273H214.099V761H212.759ZM213.44 750.818C213.179 750.818 212.954 750.729 212.764 750.551C212.579 750.373 212.486 750.159 212.486 749.909C212.486 749.659 212.579 749.445 212.764 749.267C212.954 749.089 213.179 749 213.44 749C213.702 749 213.925 749.089 214.111 749.267C214.3 749.445 214.395 749.659 214.395 749.909C214.395 750.159 214.3 750.373 214.111 750.551C213.925 750.729 213.702 750.818 213.44 750.818ZM222.737 754.227L221.533 754.568C221.457 754.367 221.345 754.172 221.197 753.983C221.054 753.79 220.857 753.631 220.607 753.506C220.357 753.381 220.036 753.318 219.646 753.318C219.112 753.318 218.667 753.441 218.311 753.688C217.959 753.93 217.783 754.239 217.783 754.614C217.783 754.947 217.904 755.21 218.146 755.403C218.389 755.597 218.768 755.758 219.283 755.886L220.578 756.205C221.358 756.394 221.94 756.684 222.322 757.074C222.705 757.46 222.896 757.958 222.896 758.568C222.896 759.068 222.752 759.515 222.464 759.909C222.18 760.303 221.783 760.614 221.271 760.841C220.76 761.068 220.165 761.182 219.487 761.182C218.597 761.182 217.86 760.989 217.277 760.602C216.694 760.216 216.324 759.652 216.169 758.909L217.442 758.591C217.563 759.061 217.792 759.413 218.129 759.648C218.47 759.883 218.915 760 219.464 760C220.089 760 220.586 759.867 220.953 759.602C221.324 759.333 221.51 759.011 221.51 758.636C221.51 758.333 221.404 758.08 221.192 757.875C220.98 757.667 220.654 757.511 220.214 757.409L218.76 757.068C217.961 756.879 217.374 756.585 216.999 756.188C216.627 755.786 216.442 755.284 216.442 754.682C216.442 754.189 216.58 753.754 216.857 753.375C217.137 752.996 217.518 752.699 217.999 752.483C218.483 752.267 219.033 752.159 219.646 752.159C220.51 752.159 221.188 752.348 221.68 752.727C222.177 753.106 222.529 753.606 222.737 754.227ZM228.71 752.273V753.409H224.188V752.273H228.71ZM225.506 750.182H226.847V758.5C226.847 758.879 226.902 759.163 227.011 759.352C227.125 759.538 227.269 759.663 227.443 759.727C227.621 759.788 227.809 759.818 228.006 759.818C228.153 759.818 228.275 759.811 228.369 759.795C228.464 759.777 228.54 759.761 228.597 759.75L228.869 760.955C228.778 760.989 228.652 761.023 228.489 761.057C228.326 761.095 228.119 761.114 227.869 761.114C227.491 761.114 227.119 761.032 226.756 760.869C226.396 760.706 226.097 760.458 225.858 760.125C225.623 759.792 225.506 759.371 225.506 758.864V750.182ZM234.293 761.182C233.452 761.182 232.726 760.996 232.116 760.625C231.51 760.25 231.043 759.727 230.713 759.057C230.387 758.383 230.224 757.598 230.224 756.705C230.224 755.811 230.387 755.023 230.713 754.341C231.043 753.655 231.501 753.121 232.088 752.739C232.679 752.352 233.368 752.159 234.156 752.159C234.611 752.159 235.06 752.235 235.503 752.386C235.946 752.538 236.349 752.784 236.713 753.125C237.077 753.462 237.366 753.909 237.582 754.466C237.798 755.023 237.906 755.708 237.906 756.523V757.091H231.179V755.932H236.543C236.543 755.439 236.444 755 236.247 754.614C236.054 754.227 235.777 753.922 235.418 753.699C235.062 753.475 234.641 753.364 234.156 753.364C233.622 753.364 233.16 753.496 232.77 753.761C232.384 754.023 232.086 754.364 231.878 754.784C231.67 755.205 231.565 755.655 231.565 756.136V756.909C231.565 757.568 231.679 758.127 231.906 758.585C232.137 759.04 232.457 759.386 232.866 759.625C233.276 759.86 233.751 759.977 234.293 759.977C234.645 759.977 234.963 759.928 235.247 759.83C235.535 759.727 235.783 759.576 235.991 759.375C236.2 759.17 236.361 758.917 236.474 758.614L237.77 758.977C237.634 759.417 237.404 759.803 237.082 760.136C236.76 760.466 236.363 760.723 235.889 760.909C235.416 761.091 234.884 761.182 234.293 761.182ZM239.946 761V752.273H241.241V753.591H241.332C241.491 753.159 241.779 752.809 242.196 752.54C242.613 752.271 243.082 752.136 243.605 752.136C243.704 752.136 243.827 752.138 243.974 752.142C244.122 752.146 244.234 752.152 244.31 752.159V753.523C244.264 753.511 244.16 753.494 243.997 753.472C243.838 753.445 243.67 753.432 243.491 753.432C243.067 753.432 242.688 753.521 242.355 753.699C242.026 753.873 241.764 754.116 241.571 754.426C241.382 754.733 241.287 755.083 241.287 755.477V761H239.946Z" fill="white"/>
<path d="M125 180.5L301.5 357.5M125 357.5L301.5 180.5" stroke="black"/>
</svg>
